<ttFont>
    <TTGlyph name="A" xMin="20" yMin="-30" xMax="628" yMax="743">
      <contour>
        <pt x="347" y="716" on="1"/>
        <pt x="345" y="719" on="0"/>
        <pt x="338" y="732" on="0"/>
        <pt x="340" y="734" on="1"/>
        <pt x="342" y="736" on="0"/>
        <pt x="351" y="730" on="0"/>
        <pt x="352" y="729" on="1"/>
        <pt x="370" y="716" on="0"/>
        <pt x="401" y="670" on="0"/>
        <pt x="426" y="615" on="0"/>
        <pt x="446" y="555" on="0"/>
        <pt x="452" y="528" on="1"/>
        <pt x="467" y="462" on="0"/>
        <pt x="488" y="334" on="0"/>
        <pt x="488" y="266" on="1"/>
        <pt x="488" y="264" on="0"/>
        <pt x="489" y="244" on="0"/>
        <pt x="485" y="242" on="1"/>
        <pt x="482" y="244" on="0"/>
        <pt x="475" y="260" on="0"/>
        <pt x="474" y="263" on="1"/>
        <pt x="462" y="300" on="0"/>
        <pt x="443" y="395" on="0"/>
        <pt x="435" y="434" on="1"/>
        <pt x="429" y="464" on="0"/>
        <pt x="419" y="519" on="0"/>
        <pt x="406" y="571" on="0"/>
        <pt x="389" y="624" on="0"/>
        <pt x="377" y="653" on="1"/>
        <pt x="375" y="657" on="0"/>
        <pt x="366" y="677" on="0"/>
        <pt x="356" y="697" on="0"/>
        <pt x="348" y="714" on="0"/>
      </contour>
      <contour>
        <pt x="587" y="-25" on="1"/>
        <pt x="576" y="-19" on="0"/>
        <pt x="568" y="-16" on="0"/>
        <pt x="557" y="-9" on="1"/>
        <pt x="533" y="5" on="0"/>
        <pt x="493" y="50" on="0"/>
        <pt x="461" y="104" on="0"/>
        <pt x="436" y="165" on="0"/>
        <pt x="427" y="195" on="1"/>
        <pt x="407" y="182" on="0"/>
        <pt x="352" y="177" on="0"/>
        <pt x="329" y="177" on="1"/>
        <pt x="300" y="177" on="0"/>
        <pt x="243" y="181" on="0"/>
        <pt x="214" y="181" on="1"/>
        <pt x="186" y="129" on="0"/>
        <pt x="137" y="32" on="0"/>
        <pt x="123" y="-10" on="1"/>
        <pt x="123" y="-11" on="0"/>
        <pt x="121" y="-18" on="0"/>
        <pt x="119" y="-18" on="1"/>
        <pt x="116" y="-18" on="0"/>
        <pt x="116" y="-4" on="0"/>
        <pt x="116" y="-2" on="1"/>
        <pt x="116" y="38" on="0"/>
        <pt x="155" y="137" on="0"/>
        <pt x="179" y="185" on="1"/>
        <pt x="164" y="186" on="1"/>
        <pt x="158" y="172" on="0"/>
        <pt x="137" y="122" on="0"/>
        <pt x="118" y="68" on="0"/>
        <pt x="103" y="18" on="0"/>
        <pt x="103" y="3" on="1"/>
        <pt x="103" y="0" on="0"/>
        <pt x="100" y="0" on="1"/>
        <pt x="96" y="0" on="0"/>
        <pt x="92" y="13" on="0"/>
        <pt x="89" y="29" on="0"/>
        <pt x="88" y="46" on="0"/>
        <pt x="88" y="49" on="1"/>
        <pt x="88" y="84" on="0"/>
        <pt x="106" y="161" on="0"/>
        <pt x="121" y="193" on="1"/>
        <pt x="108" y="195" on="1"/>
        <pt x="99" y="173" on="0"/>
        <pt x="83" y="130" on="0"/>
        <pt x="77" y="107" on="1"/>
        <pt x="77" y="105" on="0"/>
        <pt x="75" y="99" on="0"/>
        <pt x="73" y="100" on="1"/>
        <pt x="71" y="104" on="0"/>
        <pt x="70" y="115" on="0"/>
        <pt x="70" y="119" on="1"/>
        <pt x="70" y="161" on="0"/>
        <pt x="85" y="200" on="1"/>
        <pt x="90" y="210" on="0"/>
        <pt x="95" y="210" on="1"/>
        <pt x="116" y="216" on="0"/>
        <pt x="159" y="218" on="0"/>
        <pt x="182" y="218" on="1"/>
        <pt x="232" y="218" on="0"/>
        <pt x="330" y="203" on="0"/>
        <pt x="379" y="203" on="1"/>
        <pt x="403" y="203" on="0"/>
        <pt x="423" y="207" on="1"/>
        <pt x="421" y="223" on="1"/>
        <pt x="410" y="220" on="0"/>
        <pt x="385" y="218" on="0"/>
        <pt x="374" y="218" on="1"/>
        <pt x="335" y="218" on="0"/>
        <pt x="252" y="234" on="0"/>
        <pt x="214" y="245" on="1"/>
        <pt x="212" y="247" on="0"/>
        <pt x="200" y="250" on="0"/>
        <pt x="200" y="253" on="1"/>
        <pt x="200" y="255" on="0"/>
        <pt x="212" y="258" on="0"/>
        <pt x="214" y="258" on="1"/>
        <pt x="228" y="259" on="0"/>
        <pt x="255" y="260" on="0"/>
        <pt x="269" y="260" on="1"/>
        <pt x="292" y="260" on="0"/>
        <pt x="338" y="259" on="0"/>
        <pt x="362" y="259" on="1"/>
        <pt x="374" y="259" on="0"/>
        <pt x="400" y="259" on="0"/>
        <pt x="412" y="260" on="1"/>
        <pt x="410" y="271" on="1"/>
        <pt x="397" y="271" on="1"/>
        <pt x="349" y="271" on="0"/>
        <pt x="254" y="289" on="0"/>
        <pt x="206" y="289" on="1"/>
        <pt x="165" y="289" on="0"/>
        <pt x="102" y="269" on="0"/>
        <pt x="57" y="243" on="0"/>
        <pt x="29" y="217" on="0"/>
        <pt x="23" y="211" on="1"/>
        <pt x="21" y="210" on="0"/>
        <pt x="21" y="210" on="1"/>
        <pt x="20" y="210" on="0"/>
        <pt x="20" y="212" on="1"/>
        <pt x="20" y="213" on="0"/>
        <pt x="21" y="214" on="1"/>
        <pt x="39" y="249" on="0"/>
        <pt x="91" y="296" on="0"/>
        <pt x="129" y="308" on="1"/>
        <pt x="167" y="389" on="0"/>
        <pt x="248" y="549" on="0"/>
        <pt x="293" y="627" on="1"/>
        <pt x="294" y="629" on="0"/>
        <pt x="300" y="638" on="0"/>
        <pt x="303" y="638" on="1"/>
        <pt x="304" y="637" on="0"/>
        <pt x="304" y="636" on="1"/>
        <pt x="304" y="634" on="1"/>
        <pt x="304" y="626" on="0"/>
        <pt x="303" y="622" on="1"/>
        <pt x="284" y="541" on="0"/>
        <pt x="210" y="391" on="0"/>
        <pt x="171" y="318" on="1"/>
        <pt x="190" y="319" on="1"/>
        <pt x="193" y="325" on="0"/>
        <pt x="218" y="365" on="0"/>
        <pt x="247" y="408" on="0"/>
        <pt x="271" y="443" on="0"/>
        <pt x="274" y="443" on="1"/>
        <pt x="275" y="440" on="1"/>
        <pt x="275" y="435" on="0"/>
        <pt x="263" y="401" on="0"/>
        <pt x="247" y="361" on="0"/>
        <pt x="232" y="326" on="0"/>
        <pt x="229" y="319" on="1"/>
        <pt x="235" y="319" on="0"/>
        <pt x="247" y="318" on="0"/>
        <pt x="253" y="318" on="1"/>
        <pt x="271" y="354" on="0"/>
        <pt x="312" y="433" on="0"/>
        <pt x="342" y="515" on="0"/>
        <pt x="353" y="599" on="0"/>
        <pt x="341" y="640" on="1"/>
        <pt x="341" y="635" on="0"/>
        <pt x="336" y="605" on="0"/>
        <pt x="328" y="572" on="0"/>
        <pt x="320" y="547" on="0"/>
        <pt x="316" y="547" on="1"/>
        <pt x="313" y="547" on="0"/>
        <pt x="314" y="555" on="0"/>
        <pt x="314" y="556" on="1"/>
        <pt x="314" y="582" on="0"/>
        <pt x="321" y="633" on="0"/>
        <pt x="321" y="659" on="1"/>
        <pt x="321" y="694" on="0"/>
        <pt x="310" y="727" on="1"/>
        <pt x="310" y="728" on="0"/>
        <pt x="304" y="743" on="0"/>
        <pt x="309" y="743" on="1"/>
        <pt x="311" y="743" on="0"/>
        <pt x="316" y="738" on="1"/>
        <pt x="326" y="728" on="0"/>
        <pt x="345" y="694" on="0"/>
        <pt x="361" y="655" on="0"/>
        <pt x="375" y="617" on="0"/>
        <pt x="379" y="604" on="1"/>
        <pt x="392" y="561" on="0"/>
        <pt x="409" y="474" on="0"/>
        <pt x="422" y="387" on="0"/>
        <pt x="436" y="299" on="0"/>
        <pt x="445" y="256" on="1"/>
        <pt x="454" y="214" on="0"/>
        <pt x="479" y="134" on="0"/>
        <pt x="515" y="62" on="0"/>
        <pt x="562" y="1" on="0"/>
        <pt x="593" y="-22" on="1"/>
        <pt x="598" y="-27" on="0"/>
        <pt x="595" y="-30" on="0"/>
      </contour>
      <contour>
        <pt x="585" y="60" on="1"/>
        <pt x="586" y="54" on="0"/>
        <pt x="582" y="55" on="0"/>
        <pt x="577" y="61" on="0"/>
        <pt x="572" y="69" on="0"/>
        <pt x="572" y="70" on="1"/>
        <pt x="548" y="114" on="0"/>
        <pt x="520" y="205" on="0"/>
        <pt x="504" y="298" on="0"/>
        <pt x="493" y="393" on="0"/>
        <pt x="478" y="492" on="0"/>
        <pt x="454" y="594" on="0"/>
        <pt x="432" y="647" on="1"/>
        <pt x="431" y="649" on="0"/>
        <pt x="427" y="659" on="0"/>
        <pt x="429" y="660" on="1"/>
        <pt x="431" y="660" on="0"/>
        <pt x="434" y="657" on="1"/>
        <pt x="438" y="653" on="1"/>
        <pt x="460" y="627" on="0"/>
        <pt x="494" y="541" on="0"/>
        <pt x="520" y="443" on="0"/>
        <pt x="537" y="347" on="0"/>
        <pt x="542" y="311" on="1"/>
        <pt x="550" y="254" on="0"/>
        <pt x="568" y="128" on="0"/>
        <pt x="582" y="72" on="1"/>
      </contour>
      <contour>
        <pt x="288" y="314" on="1"/>
        <pt x="317" y="311" on="0"/>
        <pt x="374" y="303" on="0"/>
        <pt x="403" y="301" on="1"/>
        <pt x="392" y="354" on="0"/>
        <pt x="376" y="458" on="0"/>
        <pt x="369" y="512" on="1"/>
        <pt x="356" y="460" on="0"/>
        <pt x="311" y="362" on="0"/>
      </contour>
      <contour>
        <pt x="617" y="-14" on="1"/>
        <pt x="597" y="-5" on="0"/>
        <pt x="567" y="12" on="0"/>
        <pt x="556" y="27" on="1"/>
        <pt x="539" y="50" on="0"/>
        <pt x="520" y="96" on="0"/>
        <pt x="514" y="116" on="1"/>
        <pt x="512" y="124" on="0"/>
        <pt x="509" y="144" on="0"/>
        <pt x="511" y="144" on="1"/>
        <pt x="515" y="144" on="0"/>
        <pt x="527" y="118" on="0"/>
        <pt x="532" y="109" on="1"/>
        <pt x="547" y="78" on="0"/>
        <pt x="593" y="15" on="0"/>
        <pt x="620" y="-5" on="1"/>
        <pt x="628" y="-12" on="0"/>
        <pt x="622" y="-16" on="0"/>
      </contour>
      <contour>
        <pt x="26" y="178" on="1"/>
        <pt x="26" y="178" on="0"/>
        <pt x="24" y="178" on="1"/>
        <pt x="23" y="178" on="1"/>
        <pt x="23" y="181" on="0"/>
        <pt x="25" y="187" on="0"/>
        <pt x="26" y="190" on="1"/>
        <pt x="34" y="207" on="0"/>
        <pt x="49" y="224" on="0"/>
        <pt x="66" y="234" on="1"/>
        <pt x="76" y="240" on="0"/>
        <pt x="112" y="252" on="0"/>
        <pt x="123" y="252" on="1"/>
        <pt x="125" y="252" on="0"/>
        <pt x="132" y="251" on="0"/>
        <pt x="132" y="248" on="1"/>
        <pt x="132" y="245" on="0"/>
        <pt x="111" y="235" on="0"/>
        <pt x="108" y="233" on="1"/>
        <pt x="70" y="210" on="0"/>
        <pt x="34" y="186" on="0"/>
      </contour>
    </TTGlyph>
    <TTGlyph name="AE" xMin="-21" yMin="-14" xMax="776" yMax="729">
      <contour>
        <pt x="760" y="686" on="1"/>
        <pt x="751" y="672" on="0"/>
        <pt x="722" y="652" on="0"/>
        <pt x="689" y="640" on="0"/>
        <pt x="657" y="634" on="0"/>
        <pt x="645" y="634" on="1"/>
        <pt x="614" y="634" on="0"/>
        <pt x="548" y="646" on="0"/>
        <pt x="515" y="653" on="1"/>
        <pt x="513" y="653" on="0"/>
        <pt x="503" y="657" on="0"/>
        <pt x="503" y="659" on="1"/>
        <pt x="501" y="662" on="0"/>
        <pt x="512" y="666" on="0"/>
        <pt x="514" y="666" on="1"/>
        <pt x="521" y="668" on="0"/>
        <pt x="544" y="671" on="0"/>
        <pt x="570" y="673" on="0"/>
        <pt x="593" y="673" on="0"/>
        <pt x="601" y="673" on="1"/>
        <pt x="623" y="671" on="0"/>
        <pt x="670" y="671" on="0"/>
        <pt x="712" y="675" on="0"/>
        <pt x="747" y="685" on="0"/>
        <pt x="758" y="693" on="1"/>
        <pt x="764" y="698" on="0"/>
        <pt x="762" y="689" on="0"/>
      </contour>
      <contour>
        <pt x="443" y="648" on="1"/>
        <pt x="444" y="645" on="0"/>
        <pt x="428" y="631" on="0"/>
        <pt x="425" y="629" on="1"/>
        <pt x="417" y="623" on="0"/>
        <pt x="402" y="612" on="0"/>
        <pt x="396" y="604" on="1"/>
        <pt x="388" y="595" on="0"/>
        <pt x="377" y="577" on="0"/>
        <pt x="373" y="566" on="1"/>
        <pt x="369" y="559" on="0"/>
        <pt x="369" y="559" on="1"/>
        <pt x="367" y="559" on="0"/>
        <pt x="367" y="566" on="1"/>
        <pt x="367" y="573" on="1"/>
        <pt x="369" y="588" on="0"/>
        <pt x="378" y="612" on="0"/>
        <pt x="388" y="625" on="1"/>
        <pt x="392" y="631" on="0"/>
        <pt x="410" y="642" on="0"/>
        <pt x="428" y="650" on="0"/>
        <pt x="442" y="652" on="0"/>
      </contour>
      <contour>
        <pt x="682" y="311" on="1"/>
        <pt x="665" y="282" on="0"/>
        <pt x="605" y="254" on="0"/>
        <pt x="582" y="256" on="1"/>
        <pt x="551" y="258" on="0"/>
        <pt x="483" y="271" on="0"/>
        <pt x="452" y="278" on="1"/>
        <pt x="450" y="279" on="0"/>
        <pt x="441" y="282" on="0"/>
        <pt x="441" y="285" on="1"/>
        <pt x="440" y="287" on="0"/>
        <pt x="449" y="292" on="0"/>
        <pt x="451" y="292" on="1"/>
        <pt x="458" y="294" on="0"/>
        <pt x="479" y="296" on="0"/>
        <pt x="502" y="298" on="0"/>
        <pt x="523" y="297" on="0"/>
        <pt x="530" y="296" on="1"/>
        <pt x="548" y="294" on="0"/>
        <pt x="591" y="294" on="0"/>
        <pt x="634" y="300" on="0"/>
        <pt x="670" y="310" on="0"/>
        <pt x="681" y="318" on="1"/>
        <pt x="686" y="322" on="0"/>
        <pt x="684" y="313" on="0"/>
      </contour>
      <contour>
        <pt x="771" y="721" on="1"/>
        <pt x="745" y="698" on="0"/>
        <pt x="683" y="686" on="0"/>
        <pt x="616" y="689" on="0"/>
        <pt x="545" y="698" on="0"/>
        <pt x="510" y="696" on="1"/>
        <pt x="481" y="694" on="0"/>
        <pt x="437" y="680" on="0"/>
        <pt x="401" y="654" on="0"/>
        <pt x="371" y="619" on="0"/>
        <pt x="355" y="597" on="1"/>
        <pt x="306" y="528" on="0"/>
        <pt x="209" y="386" on="0"/>
        <pt x="156" y="319" on="1"/>
        <pt x="175" y="321" on="1"/>
        <pt x="179" y="327" on="0"/>
        <pt x="214" y="366" on="0"/>
        <pt x="253" y="409" on="0"/>
        <pt x="287" y="443" on="0"/>
        <pt x="290" y="443" on="1"/>
        <pt x="292" y="440" on="1"/>
        <pt x="291" y="435" on="0"/>
        <pt x="270" y="401" on="0"/>
        <pt x="243" y="361" on="0"/>
        <pt x="218" y="326" on="0"/>
        <pt x="214" y="319" on="1"/>
        <pt x="220" y="319" on="0"/>
        <pt x="232" y="318" on="0"/>
        <pt x="238" y="318" on="1"/>
        <pt x="261" y="349" on="0"/>
        <pt x="314" y="416" on="0"/>
        <pt x="362" y="487" on="0"/>
        <pt x="399" y="559" on="0"/>
        <pt x="407" y="595" on="1"/>
        <pt x="407" y="597" on="0"/>
        <pt x="413" y="601" on="0"/>
        <pt x="416" y="603" on="1"/>
        <pt x="458" y="623" on="0"/>
        <pt x="547" y="626" on="0"/>
        <pt x="592" y="622" on="1"/>
        <pt x="621" y="620" on="0"/>
        <pt x="680" y="617" on="0"/>
        <pt x="712" y="626" on="1"/>
        <pt x="717" y="628" on="0"/>
        <pt x="716" y="624" on="0"/>
        <pt x="714" y="621" on="1"/>
        <pt x="701" y="606" on="0"/>
        <pt x="652" y="592" on="0"/>
        <pt x="597" y="588" on="0"/>
        <pt x="542" y="589" on="0"/>
        <pt x="523" y="589" on="1"/>
        <pt x="529" y="569" on="0"/>
        <pt x="528" y="512" on="0"/>
        <pt x="520" y="447" on="0"/>
        <pt x="506" y="381" on="0"/>
        <pt x="499" y="352" on="1"/>
        <pt x="526" y="350" on="0"/>
        <pt x="577" y="343" on="0"/>
        <pt x="625" y="340" on="0"/>
        <pt x="670" y="343" on="0"/>
        <pt x="690" y="351" on="1"/>
        <pt x="695" y="353" on="0"/>
        <pt x="695" y="347" on="0"/>
        <pt x="693" y="345" on="1"/>
        <pt x="669" y="321" on="0"/>
        <pt x="611" y="309" on="0"/>
        <pt x="548" y="313" on="0"/>
        <pt x="481" y="323" on="0"/>
        <pt x="448" y="322" on="1"/>
        <pt x="426" y="321" on="0"/>
        <pt x="378" y="306" on="0"/>
        <pt x="337" y="279" on="0"/>
        <pt x="306" y="241" on="0"/>
        <pt x="300" y="218" on="1"/>
        <pt x="268" y="221" on="0"/>
        <pt x="205" y="236" on="0"/>
        <pt x="177" y="247" on="1"/>
        <pt x="175" y="248" on="0"/>
        <pt x="166" y="252" on="0"/>
        <pt x="167" y="255" on="1"/>
        <pt x="167" y="257" on="0"/>
        <pt x="180" y="259" on="0"/>
        <pt x="182" y="259" on="1"/>
        <pt x="196" y="259" on="0"/>
        <pt x="223" y="260" on="0"/>
        <pt x="237" y="260" on="1"/>
        <pt x="254" y="260" on="0"/>
        <pt x="290" y="259" on="0"/>
        <pt x="308" y="259" on="1"/>
        <pt x="310" y="262" on="0"/>
        <pt x="312" y="270" on="0"/>
        <pt x="314" y="273" on="1"/>
        <pt x="281" y="277" on="0"/>
        <pt x="216" y="289" on="0"/>
        <pt x="181" y="290" on="1"/>
        <pt x="140" y="290" on="0"/>
        <pt x="75" y="271" on="0"/>
        <pt x="26" y="245" on="0"/>
        <pt x="-5" y="218" on="0"/>
        <pt x="-11" y="212" on="1"/>
        <pt x="-13" y="211" on="0"/>
        <pt x="-14" y="211" on="1"/>
        <pt x="-15" y="211" on="1"/>
        <pt x="-15" y="213" on="1"/>
        <pt x="-15" y="214" on="0"/>
        <pt x="-14" y="215" on="1"/>
        <pt x="29" y="285" on="0"/>
        <pt x="110" y="310" on="1"/>
        <pt x="170" y="391" on="0"/>
        <pt x="293" y="549" on="0"/>
        <pt x="359" y="627" on="1"/>
        <pt x="379" y="651" on="0"/>
        <pt x="406" y="687" on="0"/>
        <pt x="436" y="712" on="0"/>
        <pt x="479" y="725" on="0"/>
        <pt x="515" y="727" on="1"/>
        <pt x="551" y="729" on="0"/>
        <pt x="620" y="722" on="0"/>
        <pt x="685" y="716" on="0"/>
        <pt x="745" y="716" on="0"/>
        <pt x="771" y="726" on="1"/>
        <pt x="776" y="728" on="0"/>
        <pt x="773" y="722" on="0"/>
      </contour>
      <contour>
        <pt x="704" y="125" on="1"/>
        <pt x="683" y="101" on="0"/>
        <pt x="630" y="89" on="0"/>
        <pt x="571" y="92" on="0"/>
        <pt x="511" y="104" on="0"/>
        <pt x="482" y="104" on="1"/>
        <pt x="445" y="105" on="0"/>
        <pt x="369" y="70" on="0"/>
        <pt x="342" y="25" on="1"/>
        <pt x="341" y="21" on="0"/>
        <pt x="338" y="21" on="1"/>
        <pt x="337" y="21" on="0"/>
        <pt x="337" y="25" on="0"/>
        <pt x="338" y="26" on="1"/>
        <pt x="343" y="35" on="0"/>
        <pt x="349" y="51" on="0"/>
        <pt x="353" y="59" on="1"/>
        <pt x="336" y="94" on="0"/>
        <pt x="325" y="166" on="0"/>
        <pt x="327" y="207" on="1"/>
        <pt x="332" y="212" on="0"/>
        <pt x="348" y="227" on="0"/>
        <pt x="358" y="232" on="1"/>
        <pt x="377" y="242" on="0"/>
        <pt x="417" y="251" on="0"/>
        <pt x="460" y="252" on="0"/>
        <pt x="503" y="249" on="0"/>
        <pt x="525" y="247" on="1"/>
        <pt x="553" y="244" on="0"/>
        <pt x="609" y="241" on="0"/>
        <pt x="638" y="251" on="1"/>
        <pt x="646" y="253" on="0"/>
        <pt x="640" y="246" on="0"/>
        <pt x="638" y="244" on="1"/>
        <pt x="625" y="228" on="0"/>
        <pt x="579" y="216" on="0"/>
        <pt x="528" y="213" on="0"/>
        <pt x="480" y="215" on="0"/>
        <pt x="466" y="214" on="1"/>
        <pt x="460" y="214" on="1"/>
        <pt x="453" y="190" on="0"/>
        <pt x="438" y="147" on="0"/>
        <pt x="432" y="127" on="1"/>
        <pt x="460" y="137" on="0"/>
        <pt x="488" y="136" on="1"/>
        <pt x="517" y="135" on="0"/>
        <pt x="575" y="125" on="0"/>
        <pt x="630" y="118" on="0"/>
        <pt x="681" y="119" on="0"/>
        <pt x="703" y="130" on="1"/>
        <pt x="705" y="131" on="0"/>
        <pt x="705" y="129" on="1"/>
        <pt x="705" y="127" on="0"/>
      </contour>
      <contour>
        <pt x="696" y="97" on="1"/>
        <pt x="697" y="96" on="0"/>
        <pt x="695" y="92" on="0"/>
        <pt x="695" y="90" on="1"/>
        <pt x="681" y="61" on="0"/>
        <pt x="625" y="34" on="0"/>
        <pt x="603" y="34" on="1"/>
        <pt x="568" y="34" on="0"/>
        <pt x="512" y="51" on="0"/>
        <pt x="484" y="60" on="1"/>
        <pt x="482" y="62" on="0"/>
        <pt x="474" y="65" on="0"/>
        <pt x="473" y="68" on="1"/>
        <pt x="473" y="70" on="0"/>
        <pt x="482" y="74" on="0"/>
        <pt x="484" y="74" on="1"/>
        <pt x="496" y="76" on="0"/>
        <pt x="542" y="76" on="0"/>
        <pt x="556" y="75" on="1"/>
        <pt x="573" y="74" on="0"/>
        <pt x="613" y="74" on="0"/>
        <pt x="650" y="78" on="0"/>
        <pt x="683" y="88" on="0"/>
        <pt x="692" y="97" on="1"/>
        <pt x="696" y="101" on="0"/>
      </contour>
      <contour>
        <pt x="385" y="277" on="1"/>
        <pt x="385" y="274" on="0"/>
        <pt x="372" y="262" on="0"/>
        <pt x="355" y="248" on="0"/>
        <pt x="340" y="236" on="0"/>
        <pt x="338" y="234" on="1"/>
        <pt x="330" y="226" on="0"/>
        <pt x="316" y="211" on="0"/>
        <pt x="311" y="200" on="1"/>
        <pt x="307" y="191" on="0"/>
        <pt x="306" y="204" on="0"/>
        <pt x="307" y="207" on="1"/>
        <pt x="309" y="215" on="0"/>
        <pt x="318" y="242" on="0"/>
        <pt x="332" y="255" on="1"/>
        <pt x="338" y="260" on="0"/>
        <pt x="355" y="271" on="0"/>
        <pt x="372" y="278" on="0"/>
        <pt x="385" y="280" on="0"/>
      </contour>
      <contour>
        <pt x="659" y="29" on="1"/>
        <pt x="660" y="27" on="0"/>
        <pt x="656" y="23" on="1"/>
        <pt x="644" y="14" on="0"/>
        <pt x="601" y="4" on="0"/>
        <pt x="552" y="0" on="0"/>
        <pt x="506" y="0" on="0"/>
        <pt x="492" y="0" on="1"/>
        <pt x="467" y="0" on="0"/>
        <pt x="412" y="7" on="0"/>
        <pt x="392" y="12" on="1"/>
        <pt x="390" y="12" on="0"/>
        <pt x="384" y="14" on="0"/>
        <pt x="384" y="16" on="1"/>
        <pt x="384" y="18" on="0"/>
        <pt x="390" y="21" on="0"/>
        <pt x="392" y="22" on="1"/>
        <pt x="430" y="34" on="0"/>
        <pt x="509" y="31" on="0"/>
        <pt x="549" y="26" on="1"/>
        <pt x="574" y="22" on="0"/>
        <pt x="625" y="18" on="0"/>
        <pt x="653" y="29" on="1"/>
        <pt x="659" y="31" on="0"/>
      </contour>
      <contour>
        <pt x="422" y="63" on="1"/>
        <pt x="422" y="60" on="0"/>
        <pt x="409" y="51" on="0"/>
        <pt x="393" y="41" on="0"/>
        <pt x="378" y="32" on="0"/>
        <pt x="375" y="30" on="1"/>
        <pt x="367" y="23" on="0"/>
        <pt x="356" y="12" on="0"/>
        <pt x="349" y="4" on="1"/>
        <pt x="347" y="2" on="0"/>
        <pt x="342" y="0" on="0"/>
        <pt x="341" y="0" on="1"/>
        <pt x="341" y="1" on="1"/>
        <pt x="340" y="2" on="0"/>
        <pt x="341" y="3" on="1"/>
        <pt x="346" y="18" on="0"/>
        <pt x="357" y="38" on="0"/>
        <pt x="371" y="49" on="1"/>
        <pt x="377" y="53" on="0"/>
        <pt x="394" y="62" on="0"/>
        <pt x="410" y="67" on="0"/>
        <pt x="422" y="67" on="0"/>
      </contour>
      <contour>
        <pt x="308" y="177" on="1"/>
        <pt x="274" y="177" on="1"/>
        <pt x="245" y="177" on="0"/>
        <pt x="189" y="181" on="0"/>
        <pt x="160" y="182" on="1"/>
        <pt x="118" y="131" on="0"/>
        <pt x="44" y="34" on="0"/>
        <pt x="18" y="-6" on="1"/>
        <pt x="18" y="-7" on="0"/>
        <pt x="16" y="-14" on="0"/>
        <pt x="14" y="-14" on="1"/>
        <pt x="10" y="-14" on="0"/>
        <pt x="12" y="-7" on="1"/>
        <pt x="12" y="-4" on="0"/>
        <pt x="14" y="0" on="1"/>
        <pt x="20" y="19" on="0"/>
        <pt x="42" y="64" on="0"/>
        <pt x="72" y="112" on="0"/>
        <pt x="108" y="162" on="0"/>
        <pt x="126" y="186" on="1"/>
        <pt x="112" y="188" on="1"/>
        <pt x="102" y="173" on="0"/>
        <pt x="69" y="123" on="0"/>
        <pt x="36" y="69" on="0"/>
        <pt x="8" y="19" on="0"/>
        <pt x="4" y="4" on="1"/>
        <pt x="4" y="1" on="0"/>
        <pt x="1" y="1" on="1"/>
        <pt x="-1" y="1" on="0"/>
        <pt x="-1" y="14" on="0"/>
        <pt x="0" y="31" on="0"/>
        <pt x="2" y="47" on="0"/>
        <pt x="3" y="51" on="1"/>
        <pt x="10" y="86" on="0"/>
        <pt x="48" y="163" on="0"/>
        <pt x="71" y="195" on="1"/>
        <pt x="59" y="196" on="1"/>
        <pt x="43" y="174" on="0"/>
        <pt x="16" y="131" on="0"/>
        <pt x="5" y="108" on="1"/>
        <pt x="5" y="107" on="0"/>
        <pt x="2" y="100" on="0"/>
        <pt x="0" y="101" on="1"/>
        <pt x="0" y="112" on="0"/>
        <pt x="3" y="121" on="1"/>
        <pt x="8" y="141" on="0"/>
        <pt x="23" y="181" on="0"/>
        <pt x="37" y="201" on="1"/>
        <pt x="39" y="206" on="0"/>
        <pt x="47" y="211" on="0"/>
        <pt x="49" y="211" on="1"/>
        <pt x="73" y="217" on="0"/>
        <pt x="117" y="219" on="0"/>
        <pt x="140" y="219" on="1"/>
        <pt x="182" y="218" on="0"/>
        <pt x="258" y="206" on="0"/>
        <pt x="299" y="203" on="1"/>
        <pt x="299" y="200" on="0"/>
        <pt x="306" y="179" on="0"/>
      </contour>
      <contour>
        <pt x="97" y="249" on="1"/>
        <pt x="94" y="246" on="0"/>
        <pt x="72" y="236" on="0"/>
        <pt x="68" y="234" on="1"/>
        <pt x="25" y="211" on="0"/>
        <pt x="-10" y="187" on="0"/>
        <pt x="-18" y="179" on="1"/>
        <pt x="-20" y="179" on="0"/>
        <pt x="-20" y="179" on="1"/>
        <pt x="-21" y="179" on="1"/>
        <pt x="-21" y="184" on="0"/>
        <pt x="-15" y="192" on="1"/>
        <pt x="-4" y="209" on="0"/>
        <pt x="10" y="225" on="0"/>
        <pt x="26" y="236" on="1"/>
        <pt x="37" y="242" on="0"/>
        <pt x="79" y="253" on="0"/>
        <pt x="90" y="253" on="1"/>
        <pt x="92" y="253" on="0"/>
        <pt x="99" y="252" on="0"/>
      </contour>
      <contour>
        <pt x="515" y="589" on="1"/>
        <pt x="492" y="589" on="1"/>
        <pt x="493" y="564" on="0"/>
        <pt x="491" y="520" on="0"/>
        <pt x="486" y="503" on="1"/>
        <pt x="477" y="467" on="0"/>
        <pt x="455" y="389" on="0"/>
        <pt x="441" y="352" on="1"/>
        <pt x="446" y="353" on="0"/>
        <pt x="455" y="353" on="0"/>
        <pt x="460" y="353" on="1"/>
        <pt x="475" y="400" on="1"/>
        <pt x="489" y="444" on="0"/>
        <pt x="512" y="538" on="0"/>
      </contour>
      <contour>
        <pt x="469" y="590" on="1"/>
        <pt x="449" y="590" on="1"/>
        <pt x="441" y="530" on="0"/>
        <pt x="400" y="404" on="0"/>
        <pt x="382" y="338" on="1"/>
        <pt x="390" y="341" on="0"/>
        <pt x="403" y="346" on="0"/>
        <pt x="410" y="348" on="1"/>
        <pt x="414" y="368" on="0"/>
        <pt x="424" y="405" on="0"/>
        <pt x="429" y="419" on="1"/>
        <pt x="431" y="425" on="0"/>
        <pt x="441" y="459" on="0"/>
        <pt x="453" y="507" on="0"/>
        <pt x="465" y="563" on="0"/>
      </contour>
      <contour>
        <pt x="396" y="499" on="1"/>
        <pt x="370" y="450" on="0"/>
        <pt x="305" y="359" on="0"/>
        <pt x="270" y="314" on="1"/>
        <pt x="287" y="311" on="0"/>
        <pt x="317" y="305" on="0"/>
        <pt x="334" y="303" on="1"/>
        <pt x="337" y="305" on="0"/>
        <pt x="342" y="310" on="0"/>
        <pt x="345" y="312" on="1"/>
        <pt x="356" y="360" on="0"/>
        <pt x="383" y="453" on="0"/>
      </contour>
      <contour>
        <pt x="426" y="215" on="1"/>
        <pt x="418" y="216" on="0"/>
        <pt x="378" y="220" on="0"/>
        <pt x="358" y="212" on="1"/>
        <pt x="353" y="175" on="0"/>
        <pt x="358" y="112" on="0"/>
        <pt x="366" y="78" on="1"/>
        <pt x="378" y="93" on="1"/>
        <pt x="377" y="105" on="0"/>
        <pt x="377" y="133" on="0"/>
        <pt x="380" y="156" on="0"/>
        <pt x="385" y="170" on="0"/>
        <pt x="388" y="170" on="1"/>
        <pt x="389" y="170" on="0"/>
        <pt x="392" y="160" on="0"/>
        <pt x="393" y="148" on="0"/>
        <pt x="395" y="136" on="0"/>
        <pt x="395" y="133" on="1"/>
        <pt x="396" y="127" on="0"/>
        <pt x="396" y="116" on="0"/>
        <pt x="397" y="110" on="1"/>
        <pt x="402" y="113" on="0"/>
        <pt x="410" y="119" on="0"/>
        <pt x="415" y="121" on="1"/>
        <pt x="416" y="144" on="0"/>
        <pt x="422" y="192" on="0"/>
      </contour>
    </TTGlyph>
    <TTGlyph name="Aacute" xMin="20" yMin="-30" xMax="628" yMax="965">
      <component glyphName="A" x="0" y="0" flags="0x204"/>
      <component glyphName="acute" x="245" y="238" flags="0x4"/>
    </TTGlyph>
    <TTGlyph name="Abreve" xMin="20" yMin="-30" xMax="628" yMax="899">
      <component glyphName="A" x="0" y="0" flags="0x4"/>
      <component glyphName="breve" x="216" y="198" flags="0x4"/>
    </TTGlyph>
    <TTGlyph name="Acircumflex" xMin="20" yMin="-30" xMax="628" yMax="950">
      <component glyphName="A" x="0" y="0" flags="0x204"/>
      <component glyphName="circumflex" x="176" y="206" flags="0x4"/>
    </TTGlyph>
    <TTGlyph name="Adieresis" xMin="20" yMin="-30" xMax="628" yMax="889">
      <component glyphName="A" x="0" y="0" flags="0x204"/>
      <component glyphName="dieresis" x="170" y="188" flags="0x4"/>
    </TTGlyph>
    <TTGlyph name="Agrave" xMin="20" yMin="-30" xMax="628" yMax="962">
      <component glyphName="A" x="0" y="0" flags="0x204"/>
      <component glyphName="grave" x="145" y="235" flags="0x4"/>
    </TTGlyph>
    <TTGlyph name="Aogonek" xMin="20" yMin="-276" xMax="628" yMax="747">
      <contour>
        <pt x="488" y="266" on="1"/>
        <pt x="488" y="264" on="0"/>
        <pt x="489" y="244" on="0"/>
        <pt x="485" y="242" on="1"/>
        <pt x="482" y="244" on="0"/>
        <pt x="475" y="260" on="0"/>
        <pt x="474" y="263" on="1"/>
        <pt x="462" y="300" on="0"/>
        <pt x="443" y="395" on="0"/>
        <pt x="435" y="434" on="1"/>
        <pt x="429" y="464" on="0"/>
        <pt x="419" y="519" on="0"/>
        <pt x="406" y="571" on="0"/>
        <pt x="389" y="624" on="0"/>
        <pt x="377" y="653" on="1"/>
        <pt x="375" y="657" on="0"/>
        <pt x="366" y="677" on="0"/>
        <pt x="356" y="697" on="0"/>
        <pt x="348" y="714" on="0"/>
        <pt x="347" y="716" on="1"/>
        <pt x="345" y="719" on="0"/>
        <pt x="338" y="732" on="0"/>
        <pt x="340" y="734" on="1"/>
        <pt x="342" y="736" on="0"/>
        <pt x="351" y="730" on="0"/>
        <pt x="352" y="729" on="1"/>
        <pt x="370" y="716" on="0"/>
        <pt x="401" y="670" on="0"/>
        <pt x="426" y="615" on="0"/>
        <pt x="446" y="555" on="0"/>
        <pt x="452" y="528" on="1"/>
        <pt x="467" y="462" on="0"/>
        <pt x="488" y="334" on="0"/>
      </contour>
      <contour>
        <pt x="585" y="60" on="1"/>
        <pt x="586" y="54" on="0"/>
        <pt x="582" y="55" on="0"/>
        <pt x="577" y="61" on="0"/>
        <pt x="572" y="69" on="0"/>
        <pt x="572" y="70" on="1"/>
        <pt x="548" y="114" on="0"/>
        <pt x="520" y="205" on="0"/>
        <pt x="504" y="298" on="0"/>
        <pt x="493" y="393" on="0"/>
        <pt x="478" y="492" on="0"/>
        <pt x="454" y="594" on="0"/>
        <pt x="432" y="647" on="1"/>
        <pt x="431" y="649" on="0"/>
        <pt x="427" y="659" on="0"/>
        <pt x="429" y="660" on="1"/>
        <pt x="431" y="660" on="0"/>
        <pt x="434" y="657" on="1"/>
        <pt x="438" y="653" on="1"/>
        <pt x="460" y="627" on="0"/>
        <pt x="494" y="541" on="0"/>
        <pt x="520" y="443" on="0"/>
        <pt x="537" y="347" on="0"/>
        <pt x="542" y="311" on="1"/>
        <pt x="550" y="254" on="0"/>
        <pt x="568" y="128" on="0"/>
        <pt x="582" y="72" on="1"/>
      </contour>
      <contour>
        <pt x="620" y="-5" on="1"/>
        <pt x="628" y="-12" on="0"/>
        <pt x="622" y="-16" on="0"/>
        <pt x="617" y="-14" on="1"/>
        <pt x="597" y="-5" on="0"/>
        <pt x="567" y="12" on="0"/>
        <pt x="556" y="27" on="1"/>
        <pt x="539" y="50" on="0"/>
        <pt x="520" y="96" on="0"/>
        <pt x="514" y="116" on="1"/>
        <pt x="512" y="124" on="0"/>
        <pt x="509" y="144" on="0"/>
        <pt x="511" y="144" on="1"/>
        <pt x="515" y="144" on="0"/>
        <pt x="527" y="118" on="0"/>
        <pt x="532" y="109" on="1"/>
        <pt x="547" y="78" on="0"/>
        <pt x="593" y="15" on="0"/>
      </contour>
      <contour>
        <pt x="611" y="-198" on="1"/>
        <pt x="611" y="-214" on="0"/>
        <pt x="594" y="-242" on="0"/>
        <pt x="567" y="-263" on="0"/>
        <pt x="534" y="-276" on="0"/>
        <pt x="518" y="-276" on="1"/>
        <pt x="492" y="-276" on="0"/>
        <pt x="453" y="-257" on="0"/>
        <pt x="426" y="-225" on="0"/>
        <pt x="414" y="-184" on="0"/>
        <pt x="415" y="-162" on="1"/>
        <pt x="416" y="-132" on="0"/>
        <pt x="434" y="-88" on="0"/>
        <pt x="462" y="-51" on="0"/>
        <pt x="497" y="-15" on="0"/>
        <pt x="515" y="7" on="1"/>
        <pt x="516" y="9" on="0"/>
        <pt x="520" y="15" on="0"/>
        <pt x="522" y="19" on="1"/>
        <pt x="487" y="51" on="0"/>
        <pt x="442" y="144" on="0"/>
        <pt x="427" y="195" on="1"/>
        <pt x="407" y="182" on="0"/>
        <pt x="352" y="177" on="0"/>
        <pt x="329" y="177" on="1"/>
        <pt x="300" y="177" on="0"/>
        <pt x="243" y="181" on="0"/>
        <pt x="214" y="181" on="1"/>
        <pt x="186" y="129" on="0"/>
        <pt x="137" y="32" on="0"/>
        <pt x="123" y="-9" on="1"/>
        <pt x="123" y="-10" on="0"/>
        <pt x="121" y="-17" on="0"/>
        <pt x="119" y="-17" on="1"/>
        <pt x="116" y="-17" on="0"/>
        <pt x="116" y="-2" on="0"/>
        <pt x="116" y="0" on="1"/>
        <pt x="116" y="38" on="0"/>
        <pt x="155" y="137" on="0"/>
        <pt x="179" y="185" on="1"/>
        <pt x="164" y="186" on="1"/>
        <pt x="158" y="172" on="0"/>
        <pt x="137" y="122" on="0"/>
        <pt x="118" y="68" on="0"/>
        <pt x="103" y="18" on="0"/>
        <pt x="103" y="3" on="1"/>
        <pt x="103" y="0" on="0"/>
        <pt x="100" y="0" on="1"/>
        <pt x="96" y="0" on="0"/>
        <pt x="92" y="13" on="0"/>
        <pt x="89" y="29" on="0"/>
        <pt x="88" y="46" on="0"/>
        <pt x="88" y="49" on="1"/>
        <pt x="88" y="84" on="0"/>
        <pt x="106" y="161" on="0"/>
        <pt x="121" y="193" on="1"/>
        <pt x="108" y="195" on="1"/>
        <pt x="99" y="173" on="0"/>
        <pt x="83" y="130" on="0"/>
        <pt x="77" y="107" on="1"/>
        <pt x="77" y="105" on="0"/>
        <pt x="75" y="99" on="0"/>
        <pt x="73" y="100" on="1"/>
        <pt x="71" y="104" on="0"/>
        <pt x="70" y="115" on="0"/>
        <pt x="70" y="119" on="1"/>
        <pt x="70" y="161" on="0"/>
        <pt x="85" y="200" on="1"/>
        <pt x="87" y="205" on="0"/>
        <pt x="93" y="208" on="0"/>
        <pt x="95" y="210" on="1"/>
        <pt x="116" y="216" on="0"/>
        <pt x="159" y="218" on="0"/>
        <pt x="182" y="218" on="1"/>
        <pt x="232" y="218" on="0"/>
        <pt x="330" y="203" on="0"/>
        <pt x="379" y="203" on="1"/>
        <pt x="403" y="203" on="0"/>
        <pt x="423" y="207" on="1"/>
        <pt x="421" y="223" on="1"/>
        <pt x="410" y="220" on="0"/>
        <pt x="385" y="218" on="0"/>
        <pt x="374" y="218" on="1"/>
        <pt x="335" y="218" on="0"/>
        <pt x="252" y="234" on="0"/>
        <pt x="214" y="245" on="1"/>
        <pt x="212" y="247" on="0"/>
        <pt x="200" y="250" on="0"/>
        <pt x="200" y="253" on="1"/>
        <pt x="200" y="255" on="0"/>
        <pt x="212" y="258" on="0"/>
        <pt x="214" y="258" on="1"/>
        <pt x="228" y="259" on="0"/>
        <pt x="255" y="260" on="0"/>
        <pt x="269" y="260" on="1"/>
        <pt x="292" y="260" on="0"/>
        <pt x="338" y="259" on="0"/>
        <pt x="362" y="259" on="1"/>
        <pt x="374" y="259" on="0"/>
        <pt x="400" y="259" on="0"/>
        <pt x="412" y="260" on="1"/>
        <pt x="410" y="271" on="1"/>
        <pt x="397" y="271" on="1"/>
        <pt x="349" y="271" on="0"/>
        <pt x="254" y="289" on="0"/>
        <pt x="206" y="289" on="1"/>
        <pt x="165" y="289" on="0"/>
        <pt x="102" y="269" on="0"/>
        <pt x="57" y="243" on="0"/>
        <pt x="29" y="217" on="0"/>
        <pt x="23" y="211" on="1"/>
        <pt x="21" y="210" on="0"/>
        <pt x="21" y="210" on="1"/>
        <pt x="20" y="210" on="0"/>
        <pt x="20" y="212" on="1"/>
        <pt x="20" y="213" on="0"/>
        <pt x="21" y="214" on="1"/>
        <pt x="39" y="249" on="0"/>
        <pt x="91" y="296" on="0"/>
        <pt x="129" y="308" on="1"/>
        <pt x="167" y="389" on="0"/>
        <pt x="248" y="549" on="0"/>
        <pt x="293" y="627" on="1"/>
        <pt x="294" y="629" on="0"/>
        <pt x="300" y="638" on="0"/>
        <pt x="303" y="638" on="1"/>
        <pt x="304" y="637" on="0"/>
        <pt x="304" y="636" on="1"/>
        <pt x="304" y="634" on="1"/>
        <pt x="304" y="626" on="0"/>
        <pt x="303" y="622" on="1"/>
        <pt x="284" y="541" on="0"/>
        <pt x="210" y="391" on="0"/>
        <pt x="171" y="318" on="1"/>
        <pt x="190" y="319" on="1"/>
        <pt x="193" y="325" on="0"/>
        <pt x="218" y="365" on="0"/>
        <pt x="247" y="408" on="0"/>
        <pt x="271" y="443" on="0"/>
        <pt x="274" y="443" on="1"/>
        <pt x="275" y="440" on="1"/>
        <pt x="275" y="435" on="0"/>
        <pt x="263" y="401" on="0"/>
        <pt x="247" y="361" on="0"/>
        <pt x="232" y="326" on="0"/>
        <pt x="229" y="319" on="1"/>
        <pt x="235" y="319" on="0"/>
        <pt x="247" y="318" on="0"/>
        <pt x="253" y="318" on="1"/>
        <pt x="271" y="354" on="0"/>
        <pt x="312" y="433" on="0"/>
        <pt x="342" y="515" on="0"/>
        <pt x="353" y="599" on="0"/>
        <pt x="341" y="640" on="1"/>
        <pt x="341" y="635" on="0"/>
        <pt x="336" y="605" on="0"/>
        <pt x="328" y="572" on="0"/>
        <pt x="320" y="547" on="0"/>
        <pt x="316" y="547" on="1"/>
        <pt x="313" y="547" on="0"/>
        <pt x="314" y="555" on="0"/>
        <pt x="314" y="556" on="1"/>
        <pt x="314" y="582" on="0"/>
        <pt x="321" y="633" on="0"/>
        <pt x="321" y="659" on="1"/>
        <pt x="321" y="694" on="0"/>
        <pt x="310" y="727" on="1"/>
        <pt x="309" y="729" on="0"/>
        <pt x="307" y="736" on="0"/>
        <pt x="307" y="738" on="1"/>
        <pt x="307" y="747" on="0"/>
        <pt x="316" y="738" on="1"/>
        <pt x="326" y="728" on="0"/>
        <pt x="345" y="694" on="0"/>
        <pt x="361" y="655" on="0"/>
        <pt x="375" y="617" on="0"/>
        <pt x="379" y="604" on="1"/>
        <pt x="392" y="561" on="0"/>
        <pt x="409" y="474" on="0"/>
        <pt x="422" y="387" on="0"/>
        <pt x="436" y="299" on="0"/>
        <pt x="445" y="256" on="1"/>
        <pt x="457" y="199" on="0"/>
        <pt x="499" y="90" on="0"/>
        <pt x="530" y="45" on="1"/>
        <pt x="537" y="35" on="0"/>
        <pt x="539" y="25" on="0"/>
        <pt x="537" y="19" on="1"/>
        <pt x="527" y="-5" on="0"/>
        <pt x="498" y="-46" on="0"/>
        <pt x="471" y="-88" on="0"/>
        <pt x="450" y="-133" on="0"/>
        <pt x="449" y="-159" on="1"/>
        <pt x="448" y="-177" on="0"/>
        <pt x="458" y="-209" on="0"/>
        <pt x="477" y="-235" on="0"/>
        <pt x="507" y="-250" on="0"/>
        <pt x="527" y="-250" on="1"/>
        <pt x="548" y="-250" on="0"/>
        <pt x="578" y="-235" on="0"/>
        <pt x="596" y="-216" on="0"/>
        <pt x="605" y="-198" on="0"/>
        <pt x="607" y="-196" on="1"/>
        <pt x="609" y="-192" on="0"/>
        <pt x="612" y="-193" on="0"/>
      </contour>
      <contour>
        <pt x="596" y="-24" on="1"/>
        <pt x="601" y="-28" on="0"/>
        <pt x="594" y="-31" on="0"/>
        <pt x="586" y="-26" on="1"/>
        <pt x="576" y="-21" on="0"/>
        <pt x="561" y="-11" on="0"/>
        <pt x="553" y="-3" on="1"/>
        <pt x="553" y="-13" on="1"/>
        <pt x="551" y="-42" on="0"/>
        <pt x="526" y="-83" on="0"/>
        <pt x="514" y="-103" on="1"/>
        <pt x="503" y="-120" on="0"/>
        <pt x="492" y="-162" on="0"/>
        <pt x="490" y="-192" on="1"/>
        <pt x="490" y="-194" on="0"/>
        <pt x="488" y="-198" on="0"/>
        <pt x="486" y="-196" on="1"/>
        <pt x="476" y="-187" on="0"/>
        <pt x="470" y="-162" on="0"/>
        <pt x="471" y="-148" on="1"/>
        <pt x="472" y="-128" on="0"/>
        <pt x="487" y="-92" on="0"/>
        <pt x="508" y="-56" on="0"/>
        <pt x="531" y="-21" on="0"/>
        <pt x="540" y="-3" on="1"/>
        <pt x="546" y="10" on="0"/>
        <pt x="550" y="14" on="0"/>
        <pt x="555" y="10" on="1"/>
        <pt x="566" y="0" on="0"/>
        <pt x="584" y="-13" on="0"/>
      </contour>
      <contour>
        <pt x="563" y="-195" on="1"/>
        <pt x="562" y="-199" on="0"/>
        <pt x="547" y="-202" on="0"/>
        <pt x="544" y="-202" on="1"/>
        <pt x="521" y="-202" on="0"/>
        <pt x="504" y="-179" on="0"/>
        <pt x="506" y="-161" on="1"/>
        <pt x="506" y="-152" on="0"/>
        <pt x="517" y="-126" on="0"/>
        <pt x="531" y="-97" on="0"/>
        <pt x="547" y="-69" on="0"/>
        <pt x="552" y="-58" on="1"/>
        <pt x="556" y="-49" on="0"/>
        <pt x="558" y="-54" on="1"/>
        <pt x="559" y="-63" on="0"/>
        <pt x="558" y="-70" on="1"/>
        <pt x="558" y="-82" on="0"/>
        <pt x="550" y="-104" on="0"/>
        <pt x="541" y="-125" on="0"/>
        <pt x="533" y="-146" on="0"/>
        <pt x="532" y="-159" on="1"/>
        <pt x="532" y="-171" on="0"/>
        <pt x="541" y="-184" on="0"/>
        <pt x="553" y="-190" on="0"/>
        <pt x="563" y="-193" on="0"/>
      </contour>
      <contour>
        <pt x="603" y="-176" on="1"/>
        <pt x="600" y="-202" on="0"/>
        <pt x="569" y="-231" on="0"/>
        <pt x="540" y="-231" on="1"/>
        <pt x="537" y="-231" on="0"/>
        <pt x="530" y="-228" on="0"/>
        <pt x="530" y="-225" on="1"/>
        <pt x="532" y="-221" on="0"/>
        <pt x="559" y="-212" on="0"/>
        <pt x="563" y="-210" on="1"/>
        <pt x="577" y="-202" on="0"/>
        <pt x="594" y="-179" on="0"/>
        <pt x="599" y="-173" on="1"/>
        <pt x="601" y="-171" on="0"/>
        <pt x="604" y="-171" on="0"/>
      </contour>
      <contour>
        <pt x="132" y="248" on="1"/>
        <pt x="132" y="245" on="0"/>
        <pt x="111" y="235" on="0"/>
        <pt x="108" y="233" on="1"/>
        <pt x="70" y="210" on="0"/>
        <pt x="34" y="186" on="0"/>
        <pt x="26" y="178" on="1"/>
        <pt x="26" y="178" on="0"/>
        <pt x="24" y="178" on="1"/>
        <pt x="23" y="178" on="1"/>
        <pt x="23" y="181" on="0"/>
        <pt x="25" y="187" on="0"/>
        <pt x="26" y="190" on="1"/>
        <pt x="34" y="207" on="0"/>
        <pt x="49" y="224" on="0"/>
        <pt x="66" y="234" on="1"/>
        <pt x="76" y="240" on="0"/>
        <pt x="112" y="252" on="0"/>
        <pt x="123" y="252" on="1"/>
        <pt x="125" y="252" on="0"/>
        <pt x="132" y="251" on="0"/>
      </contour>
      <contour>
        <pt x="403" y="301" on="1"/>
        <pt x="392" y="354" on="0"/>
        <pt x="376" y="458" on="0"/>
        <pt x="369" y="512" on="1"/>
        <pt x="356" y="460" on="0"/>
        <pt x="311" y="362" on="0"/>
        <pt x="288" y="314" on="1"/>
        <pt x="317" y="311" on="0"/>
        <pt x="374" y="303" on="0"/>
      </contour>
    </TTGlyph>
    <TTGlyph name="Aring" xMin="20" yMin="-30" xMax="628" yMax="989">
      <component glyphName="A" x="0" y="0" flags="0x204"/>
      <component glyphName="ring" x="213" y="229" flags="0x4"/>
    </TTGlyph>
    <TTGlyph name="Atilde" xMin="20" yMin="-30" xMax="628" yMax="918">
      <component glyphName="A" x="0" y="0" flags="0x204"/>
      <component glyphName="tilde" x="181" y="206" flags="0x4"/>
    </TTGlyph>
    <TTGlyph name="B" xMin="30" yMin="-40" xMax="491" yMax="732">
      <contour>
        <pt x="64" y="-16" on="1"/>
        <pt x="57" y="-23" on="0"/>
        <pt x="55" y="-22" on="1"/>
        <pt x="53" y="-21" on="0"/>
        <pt x="57" y="-14" on="0"/>
        <pt x="58" y="-12" on="1"/>
        <pt x="66" y="-3" on="0"/>
        <pt x="75" y="6" on="0"/>
        <pt x="81" y="11" on="1"/>
        <pt x="57" y="43" on="0"/>
        <pt x="35" y="116" on="0"/>
        <pt x="31" y="194" on="0"/>
        <pt x="42" y="274" on="0"/>
        <pt x="51" y="312" on="1"/>
        <pt x="69" y="387" on="0"/>
        <pt x="116" y="530" on="0"/>
        <pt x="132" y="596" on="1"/>
        <pt x="100" y="590" on="0"/>
        <pt x="49" y="570" on="0"/>
        <pt x="41" y="558" on="1"/>
        <pt x="38" y="553" on="0"/>
        <pt x="33" y="555" on="0"/>
        <pt x="37" y="563" on="1"/>
        <pt x="45" y="580" on="0"/>
        <pt x="87" y="607" on="0"/>
        <pt x="141" y="625" on="0"/>
        <pt x="204" y="635" on="0"/>
        <pt x="233" y="634" on="1"/>
        <pt x="298" y="632" on="0"/>
        <pt x="385" y="586" on="0"/>
        <pt x="386" y="541" on="1"/>
        <pt x="386" y="513" on="0"/>
        <pt x="347" y="457" on="0"/>
        <pt x="292" y="408" on="0"/>
        <pt x="230" y="369" on="0"/>
        <pt x="208" y="358" on="1"/>
        <pt x="204" y="344" on="1"/>
        <pt x="219" y="357" on="0"/>
        <pt x="269" y="373" on="0"/>
        <pt x="324" y="373" on="0"/>
        <pt x="377" y="354" on="0"/>
        <pt x="397" y="333" on="1"/>
        <pt x="424" y="303" on="0"/>
        <pt x="439" y="226" on="0"/>
        <pt x="427" y="189" on="1"/>
        <pt x="416" y="152" on="0"/>
        <pt x="364" y="105" on="0"/>
        <pt x="337" y="93" on="1"/>
        <pt x="334" y="91" on="0"/>
        <pt x="318" y="86" on="0"/>
        <pt x="316" y="89" on="1"/>
        <pt x="315" y="91" on="0"/>
        <pt x="327" y="102" on="0"/>
        <pt x="330" y="104" on="1"/>
        <pt x="357" y="122" on="0"/>
        <pt x="395" y="184" on="0"/>
        <pt x="404" y="251" on="0"/>
        <pt x="380" y="313" on="0"/>
        <pt x="345" y="330" on="1"/>
        <pt x="331" y="337" on="0"/>
        <pt x="285" y="344" on="0"/>
        <pt x="239" y="341" on="0"/>
        <pt x="200" y="323" on="0"/>
        <pt x="192" y="304" on="1"/>
        <pt x="210" y="315" on="0"/>
        <pt x="256" y="327" on="0"/>
        <pt x="303" y="326" on="0"/>
        <pt x="345" y="309" on="0"/>
        <pt x="359" y="292" on="1"/>
        <pt x="376" y="271" on="0"/>
        <pt x="381" y="225" on="0"/>
        <pt x="366" y="181" on="0"/>
        <pt x="333" y="143" on="0"/>
        <pt x="312" y="130" on="1"/>
        <pt x="284" y="113" on="0"/>
        <pt x="216" y="80" on="0"/>
        <pt x="148" y="45" on="0"/>
        <pt x="86" y="6" on="0"/>
      </contour>
      <contour>
        <pt x="184" y="270" on="1"/>
        <pt x="166" y="225" on="0"/>
        <pt x="143" y="134" on="0"/>
        <pt x="129" y="96" on="1"/>
        <pt x="124" y="83" on="0"/>
        <pt x="122" y="84" on="1"/>
        <pt x="119" y="85" on="0"/>
        <pt x="119" y="94" on="0"/>
        <pt x="119" y="99" on="1"/>
        <pt x="122" y="175" on="0"/>
        <pt x="160" y="324" on="0"/>
        <pt x="182" y="400" on="1"/>
        <pt x="196" y="447" on="0"/>
        <pt x="221" y="546" on="0"/>
        <pt x="223" y="603" on="1"/>
        <pt x="206" y="603" on="1"/>
        <pt x="207" y="576" on="0"/>
        <pt x="202" y="523" on="0"/>
        <pt x="197" y="504" on="1"/>
        <pt x="183" y="450" on="0"/>
        <pt x="143" y="334" on="0"/>
        <pt x="121" y="282" on="1"/>
        <pt x="120" y="280" on="0"/>
        <pt x="113" y="265" on="0"/>
        <pt x="110" y="266" on="1"/>
        <pt x="108" y="267" on="0"/>
        <pt x="107" y="283" on="0"/>
        <pt x="108" y="286" on="1"/>
        <pt x="109" y="298" on="0"/>
        <pt x="116" y="334" on="0"/>
        <pt x="123" y="372" on="0"/>
        <pt x="132" y="408" on="0"/>
        <pt x="136" y="421" on="1"/>
        <pt x="137" y="426" on="0"/>
        <pt x="146" y="462" on="0"/>
        <pt x="156" y="513" on="0"/>
        <pt x="167" y="572" on="0"/>
        <pt x="171" y="600" on="1"/>
        <pt x="163" y="600" on="0"/>
        <pt x="159" y="599" on="1"/>
        <pt x="154" y="562" on="0"/>
        <pt x="135" y="486" on="0"/>
        <pt x="111" y="408" on="0"/>
        <pt x="87" y="331" on="0"/>
        <pt x="78" y="292" on="1"/>
        <pt x="70" y="259" on="0"/>
        <pt x="62" y="187" on="0"/>
        <pt x="62" y="116" on="0"/>
        <pt x="74" y="48" on="0"/>
        <pt x="87" y="17" on="1"/>
        <pt x="96" y="26" on="1"/>
        <pt x="93" y="33" on="0"/>
        <pt x="87" y="53" on="0"/>
        <pt x="85" y="67" on="1"/>
        <pt x="83" y="78" on="0"/>
        <pt x="82" y="112" on="0"/>
        <pt x="84" y="144" on="0"/>
        <pt x="88" y="166" on="0"/>
        <pt x="92" y="166" on="1"/>
        <pt x="93" y="166" on="0"/>
        <pt x="96" y="156" on="0"/>
        <pt x="98" y="142" on="0"/>
        <pt x="100" y="130" on="0"/>
        <pt x="100" y="127" on="1"/>
        <pt x="101" y="118" on="0"/>
        <pt x="103" y="96" on="0"/>
        <pt x="106" y="72" on="0"/>
        <pt x="109" y="49" on="0"/>
        <pt x="112" y="41" on="1"/>
        <pt x="135" y="62" on="0"/>
        <pt x="187" y="95" on="0"/>
        <pt x="238" y="123" on="0"/>
        <pt x="286" y="149" on="0"/>
        <pt x="304" y="162" on="1"/>
        <pt x="335" y="183" on="0"/>
        <pt x="353" y="248" on="0"/>
        <pt x="333" y="274" on="1"/>
        <pt x="320" y="291" on="0"/>
        <pt x="275" y="305" on="0"/>
        <pt x="228" y="302" on="0"/>
        <pt x="190" y="284" on="0"/>
      </contour>
      <contour>
        <pt x="343" y="423" on="1"/>
        <pt x="345" y="422" on="0"/>
        <pt x="332" y="403" on="0"/>
        <pt x="330" y="399" on="1"/>
        <pt x="364" y="404" on="0"/>
        <pt x="417" y="442" on="0"/>
        <pt x="449" y="495" on="0"/>
        <pt x="457" y="558" on="0"/>
        <pt x="447" y="590" on="1"/>
        <pt x="437" y="622" on="0"/>
        <pt x="391" y="666" on="0"/>
        <pt x="331" y="694" on="0"/>
        <pt x="261" y="706" on="0"/>
        <pt x="191" y="705" on="0"/>
        <pt x="127" y="693" on="0"/>
        <pt x="103" y="682" on="1"/>
        <pt x="98" y="680" on="0"/>
        <pt x="97" y="680" on="0"/>
        <pt x="96" y="681" on="1"/>
        <pt x="95" y="684" on="0"/>
        <pt x="101" y="688" on="1"/>
        <pt x="126" y="710" on="0"/>
        <pt x="203" y="732" on="0"/>
        <pt x="288" y="732" on="0"/>
        <pt x="374" y="709" on="0"/>
        <pt x="443" y="662" on="0"/>
        <pt x="488" y="589" on="0"/>
        <pt x="490" y="540" on="1"/>
        <pt x="491" y="510" on="0"/>
        <pt x="473" y="461" on="0"/>
        <pt x="443" y="423" on="0"/>
        <pt x="404" y="396" on="0"/>
        <pt x="383" y="387" on="1"/>
        <pt x="416" y="372" on="0"/>
        <pt x="464" y="309" on="0"/>
        <pt x="474" y="278" on="1"/>
        <pt x="486" y="237" on="0"/>
        <pt x="473" y="163" on="0"/>
        <pt x="442" y="103" on="0"/>
        <pt x="403" y="60" on="0"/>
        <pt x="389" y="51" on="1"/>
        <pt x="360" y="32" on="0"/>
        <pt x="300" y="11" on="0"/>
        <pt x="242" y="0" on="0"/>
        <pt x="189" y="-4" on="0"/>
        <pt x="168" y="-5" on="1"/>
        <pt x="152" y="-7" on="0"/>
        <pt x="152" y="-4" on="1"/>
        <pt x="151" y="-2" on="0"/>
        <pt x="164" y="1" on="0"/>
        <pt x="169" y="2" on="1"/>
        <pt x="208" y="9" on="0"/>
        <pt x="284" y="33" on="0"/>
        <pt x="323" y="53" on="1"/>
        <pt x="342" y="63" on="0"/>
        <pt x="383" y="90" on="0"/>
        <pt x="418" y="127" on="0"/>
        <pt x="443" y="173" on="0"/>
        <pt x="447" y="201" on="1"/>
        <pt x="452" y="236" on="0"/>
        <pt x="439" y="305" on="0"/>
        <pt x="412" y="337" on="1"/>
        <pt x="386" y="368" on="0"/>
        <pt x="329" y="390" on="0"/>
        <pt x="296" y="388" on="1"/>
        <pt x="288" y="388" on="0"/>
        <pt x="288" y="389" on="1"/>
        <pt x="288" y="391" on="0"/>
        <pt x="310" y="401" on="0"/>
        <pt x="313" y="403" on="1"/>
        <pt x="322" y="409" on="0"/>
        <pt x="342" y="425" on="0"/>
      </contour>
      <contour>
        <pt x="355" y="537" on="1"/>
        <pt x="355" y="569" on="0"/>
        <pt x="287" y="598" on="0"/>
        <pt x="227" y="603" on="1"/>
        <pt x="234" y="572" on="0"/>
        <pt x="238" y="520" on="0"/>
        <pt x="233" y="469" on="0"/>
        <pt x="220" y="414" on="0"/>
        <pt x="212" y="381" on="1"/>
        <pt x="233" y="391" on="0"/>
        <pt x="283" y="432" on="0"/>
        <pt x="326" y="477" on="0"/>
        <pt x="355" y="522" on="0"/>
      </contour>
      <contour>
        <pt x="217" y="690" on="1"/>
        <pt x="251" y="692" on="0"/>
        <pt x="338" y="673" on="0"/>
        <pt x="373" y="652" on="1"/>
        <pt x="391" y="641" on="0"/>
        <pt x="415" y="609" on="0"/>
        <pt x="428" y="574" on="0"/>
        <pt x="430" y="538" on="0"/>
        <pt x="425" y="523" on="1"/>
        <pt x="424" y="521" on="0"/>
        <pt x="422" y="514" on="0"/>
        <pt x="418" y="507" on="0"/>
        <pt x="414" y="502" on="0"/>
        <pt x="412" y="503" on="1"/>
        <pt x="409" y="503" on="0"/>
        <pt x="410" y="517" on="0"/>
        <pt x="412" y="525" on="1"/>
        <pt x="417" y="553" on="0"/>
        <pt x="398" y="595" on="0"/>
        <pt x="360" y="624" on="0"/>
        <pt x="310" y="642" on="0"/>
        <pt x="257" y="652" on="0"/>
        <pt x="207" y="653" on="0"/>
        <pt x="189" y="651" on="1"/>
        <pt x="164" y="648" on="0"/>
        <pt x="115" y="635" on="0"/>
        <pt x="73" y="619" on="0"/>
        <pt x="43" y="601" on="0"/>
        <pt x="37" y="593" on="1"/>
        <pt x="31" y="585" on="0"/>
        <pt x="30" y="588" on="1"/>
        <pt x="30" y="591" on="0"/>
        <pt x="32" y="597" on="1"/>
        <pt x="39" y="617" on="0"/>
        <pt x="77" y="650" on="0"/>
        <pt x="127" y="674" on="0"/>
        <pt x="187" y="688" on="0"/>
      </contour>
      <contour>
        <pt x="168" y="16" on="1"/>
        <pt x="135" y="3" on="0"/>
        <pt x="96" y="-17" on="0"/>
        <pt x="77" y="-33" on="1"/>
        <pt x="75" y="-34" on="0"/>
        <pt x="71" y="-40" on="0"/>
        <pt x="69" y="-39" on="1"/>
        <pt x="67" y="-38" on="0"/>
        <pt x="71" y="-29" on="0"/>
        <pt x="73" y="-27" on="1"/>
        <pt x="83" y="-13" on="0"/>
        <pt x="115" y="14" on="0"/>
        <pt x="144" y="26" on="1"/>
        <pt x="154" y="30" on="0"/>
        <pt x="179" y="39" on="0"/>
        <pt x="202" y="45" on="0"/>
        <pt x="217" y="47" on="0"/>
        <pt x="219" y="44" on="1"/>
        <pt x="220" y="42" on="0"/>
        <pt x="206" y="34" on="0"/>
        <pt x="188" y="25" on="0"/>
        <pt x="171" y="17" on="0"/>
      </contour>
    </TTGlyph>
    <TTGlyph name="C" xMin="14" yMin="-1" xMax="521" yMax="735">
      <contour>
        <pt x="281" y="42" on="1"/>
        <pt x="317" y="48" on="0"/>
        <pt x="384" y="80" on="0"/>
        <pt x="411" y="105" on="1"/>
        <pt x="413" y="106" on="0"/>
        <pt x="425" y="118" on="0"/>
        <pt x="427" y="116" on="1"/>
        <pt x="429" y="114" on="0"/>
        <pt x="423" y="106" on="0"/>
        <pt x="421" y="103" on="1"/>
        <pt x="401" y="74" on="0"/>
        <pt x="336" y="37" on="0"/>
        <pt x="301" y="26" on="1"/>
        <pt x="272" y="18" on="0"/>
        <pt x="206" y="23" on="0"/>
        <pt x="177" y="37" on="1"/>
        <pt x="168" y="41" on="0"/>
        <pt x="164" y="46" on="0"/>
        <pt x="168" y="48" on="0"/>
        <pt x="177" y="48" on="0"/>
        <pt x="181" y="47" on="1"/>
        <pt x="192" y="45" on="0"/>
        <pt x="221" y="42" on="0"/>
        <pt x="250" y="41" on="0"/>
        <pt x="274" y="41" on="0"/>
      </contour>
      <contour>
        <pt x="147" y="336" on="1"/>
        <pt x="142" y="301" on="0"/>
        <pt x="142" y="234" on="0"/>
        <pt x="151" y="175" on="0"/>
        <pt x="170" y="129" on="0"/>
        <pt x="184" y="114" on="1"/>
        <pt x="200" y="98" on="0"/>
        <pt x="247" y="81" on="0"/>
        <pt x="302" y="81" on="0"/>
        <pt x="363" y="97" on="0"/>
        <pt x="393" y="114" on="1"/>
        <pt x="399" y="118" on="0"/>
        <pt x="401" y="116" on="1"/>
        <pt x="403" y="114" on="0"/>
        <pt x="396" y="109" on="0"/>
        <pt x="393" y="107" on="1"/>
        <pt x="367" y="87" on="0"/>
        <pt x="309" y="63" on="0"/>
        <pt x="250" y="57" on="0"/>
        <pt x="195" y="70" on="0"/>
        <pt x="173" y="88" on="1"/>
        <pt x="152" y="106" on="0"/>
        <pt x="126" y="157" on="0"/>
        <pt x="113" y="218" on="0"/>
        <pt x="111" y="284" on="0"/>
        <pt x="114" y="316" on="1"/>
        <pt x="118" y="367" on="0"/>
        <pt x="150" y="471" on="0"/>
        <pt x="203" y="559" on="0"/>
        <pt x="277" y="625" on="0"/>
        <pt x="323" y="638" on="1"/>
        <pt x="346" y="644" on="0"/>
        <pt x="394" y="642" on="0"/>
        <pt x="435" y="626" on="0"/>
        <pt x="465" y="595" on="0"/>
        <pt x="470" y="573" on="1"/>
        <pt x="475" y="549" on="0"/>
        <pt x="457" y="504" on="0"/>
        <pt x="425" y="471" on="0"/>
        <pt x="385" y="457" on="0"/>
        <pt x="367" y="464" on="1"/>
        <pt x="366" y="464" on="0"/>
        <pt x="365" y="470" on="0"/>
        <pt x="369" y="469" on="1"/>
        <pt x="381" y="467" on="0"/>
        <pt x="412" y="482" on="0"/>
        <pt x="437" y="508" on="0"/>
        <pt x="452" y="544" on="0"/>
        <pt x="449" y="563" on="1"/>
        <pt x="446" y="577" on="0"/>
        <pt x="427" y="598" on="0"/>
        <pt x="397" y="611" on="0"/>
        <pt x="360" y="615" on="0"/>
        <pt x="340" y="611" on="1"/>
        <pt x="302" y="604" on="0"/>
        <pt x="237" y="551" on="0"/>
        <pt x="187" y="475" on="0"/>
        <pt x="153" y="382" on="0"/>
      </contour>
      <contour>
        <pt x="226" y="5" on="1"/>
        <pt x="237" y="4" on="0"/>
        <pt x="260" y="4" on="0"/>
        <pt x="260" y="1" on="1"/>
        <pt x="260" y="0" on="0"/>
        <pt x="252" y="-1" on="0"/>
        <pt x="243" y="-1" on="0"/>
        <pt x="233" y="-1" on="0"/>
        <pt x="232" y="-1" on="1"/>
        <pt x="201" y="-1" on="0"/>
        <pt x="141" y="17" on="0"/>
        <pt x="90" y="50" on="0"/>
        <pt x="50" y="98" on="0"/>
        <pt x="40" y="129" on="1"/>
        <pt x="20" y="190" on="0"/>
        <pt x="14" y="306" on="0"/>
        <pt x="22" y="362" on="1"/>
        <pt x="26" y="394" on="0"/>
        <pt x="49" y="475" on="0"/>
        <pt x="88" y="559" on="0"/>
        <pt x="147" y="641" on="0"/>
        <pt x="188" y="675" on="1"/>
        <pt x="231" y="711" on="0"/>
        <pt x="336" y="735" on="0"/>
        <pt x="432" y="719" on="0"/>
        <pt x="506" y="668" on="0"/>
        <pt x="518" y="629" on="1"/>
        <pt x="519" y="627" on="0"/>
        <pt x="521" y="614" on="0"/>
        <pt x="519" y="612" on="1"/>
        <pt x="518" y="611" on="0"/>
        <pt x="514" y="623" on="0"/>
        <pt x="512" y="625" on="1"/>
        <pt x="470" y="682" on="0"/>
        <pt x="364" y="713" on="0"/>
        <pt x="260" y="688" on="0"/>
        <pt x="168" y="621" on="0"/>
        <pt x="141" y="580" on="1"/>
        <pt x="94" y="509" on="0"/>
        <pt x="45" y="349" on="0"/>
        <pt x="47" y="264" on="1"/>
        <pt x="48" y="225" on="0"/>
        <pt x="63" y="139" on="0"/>
        <pt x="85" y="100" on="1"/>
        <pt x="107" y="60" on="0"/>
        <pt x="184" y="7" on="0"/>
      </contour>
      <contour>
        <pt x="82" y="381" on="1"/>
        <pt x="90" y="434" on="0"/>
        <pt x="125" y="534" on="0"/>
        <pt x="182" y="617" on="0"/>
        <pt x="266" y="677" on="0"/>
        <pt x="323" y="689" on="1"/>
        <pt x="343" y="693" on="0"/>
        <pt x="393" y="692" on="0"/>
        <pt x="443" y="675" on="0"/>
        <pt x="486" y="641" on="0"/>
        <pt x="500" y="611" on="1"/>
        <pt x="513" y="582" on="0"/>
        <pt x="505" y="526" on="0"/>
        <pt x="479" y="481" on="0"/>
        <pt x="441" y="451" on="0"/>
        <pt x="423" y="449" on="1"/>
        <pt x="412" y="447" on="0"/>
        <pt x="410" y="452" on="0"/>
        <pt x="422" y="456" on="1"/>
        <pt x="441" y="462" on="0"/>
        <pt x="480" y="511" on="0"/>
        <pt x="484" y="549" on="1"/>
        <pt x="486" y="568" on="0"/>
        <pt x="472" y="605" on="0"/>
        <pt x="446" y="633" on="0"/>
        <pt x="410" y="653" on="0"/>
        <pt x="390" y="656" on="1"/>
        <pt x="347" y="662" on="0"/>
        <pt x="275" y="638" on="0"/>
        <pt x="222" y="601" on="0"/>
        <pt x="189" y="565" on="0"/>
        <pt x="185" y="559" on="1"/>
        <pt x="154" y="520" on="0"/>
        <pt x="108" y="429" on="0"/>
        <pt x="93" y="379" on="1"/>
        <pt x="93" y="378" on="0"/>
        <pt x="90" y="366" on="0"/>
        <pt x="87" y="353" on="0"/>
        <pt x="83" y="342" on="0"/>
        <pt x="82" y="342" on="1"/>
        <pt x="80" y="342" on="0"/>
        <pt x="80" y="354" on="0"/>
        <pt x="80" y="367" on="0"/>
        <pt x="82" y="379" on="0"/>
      </contour>
    </TTGlyph>
    <TTGlyph name="Cacute" xMin="14" yMin="-1" xMax="521" yMax="967">
      <component glyphName="C" x="0" y="0" flags="0x204"/>
      <component glyphName="acute" x="260" y="240" flags="0x4"/>
    </TTGlyph>
    <TTGlyph name="Ccaron" xMin="14" yMin="-1" xMax="521" yMax="951">
      <component glyphName="C" x="0" y="0" flags="0x204"/>
      <component glyphName="caron" x="150" y="232" flags="0x4"/>
    </TTGlyph>
    <TTGlyph name="Ccedilla" xMin="14" yMin="-244" xMax="521" yMax="735">
      <contour>
        <pt x="500" y="611" on="1"/>
        <pt x="513" y="582" on="0"/>
        <pt x="505" y="526" on="0"/>
        <pt x="479" y="481" on="0"/>
        <pt x="441" y="451" on="0"/>
        <pt x="423" y="449" on="1"/>
        <pt x="412" y="447" on="0"/>
        <pt x="410" y="452" on="0"/>
        <pt x="422" y="456" on="1"/>
        <pt x="441" y="462" on="0"/>
        <pt x="480" y="511" on="0"/>
        <pt x="484" y="549" on="1"/>
        <pt x="486" y="568" on="0"/>
        <pt x="472" y="605" on="0"/>
        <pt x="446" y="633" on="0"/>
        <pt x="410" y="653" on="0"/>
        <pt x="390" y="656" on="1"/>
        <pt x="347" y="662" on="0"/>
        <pt x="275" y="638" on="0"/>
        <pt x="222" y="601" on="0"/>
        <pt x="189" y="565" on="0"/>
        <pt x="185" y="559" on="1"/>
        <pt x="154" y="520" on="0"/>
        <pt x="108" y="429" on="0"/>
        <pt x="93" y="379" on="1"/>
        <pt x="93" y="378" on="0"/>
        <pt x="90" y="366" on="0"/>
        <pt x="87" y="353" on="0"/>
        <pt x="83" y="342" on="0"/>
        <pt x="82" y="342" on="1"/>
        <pt x="80" y="343" on="0"/>
        <pt x="80" y="354" on="0"/>
        <pt x="81" y="367" on="0"/>
        <pt x="82" y="379" on="0"/>
        <pt x="82" y="381" on="1"/>
        <pt x="91" y="434" on="0"/>
        <pt x="125" y="534" on="0"/>
        <pt x="182" y="617" on="0"/>
        <pt x="266" y="677" on="0"/>
        <pt x="323" y="689" on="1"/>
        <pt x="343" y="693" on="0"/>
        <pt x="393" y="692" on="0"/>
        <pt x="443" y="675" on="0"/>
        <pt x="486" y="641" on="0"/>
      </contour>
      <contour>
        <pt x="470" y="573" on="1"/>
        <pt x="475" y="549" on="0"/>
        <pt x="457" y="504" on="0"/>
        <pt x="425" y="471" on="0"/>
        <pt x="385" y="457" on="0"/>
        <pt x="367" y="464" on="1"/>
        <pt x="366" y="464" on="0"/>
        <pt x="365" y="469" on="0"/>
        <pt x="369" y="469" on="1"/>
        <pt x="381" y="467" on="0"/>
        <pt x="412" y="481" on="0"/>
        <pt x="437" y="508" on="0"/>
        <pt x="452" y="544" on="0"/>
        <pt x="449" y="563" on="1"/>
        <pt x="446" y="577" on="0"/>
        <pt x="427" y="598" on="0"/>
        <pt x="397" y="611" on="0"/>
        <pt x="360" y="615" on="0"/>
        <pt x="340" y="611" on="1"/>
        <pt x="302" y="604" on="0"/>
        <pt x="237" y="551" on="0"/>
        <pt x="187" y="475" on="0"/>
        <pt x="153" y="382" on="0"/>
        <pt x="147" y="336" on="1"/>
        <pt x="142" y="301" on="0"/>
        <pt x="142" y="234" on="0"/>
        <pt x="151" y="175" on="0"/>
        <pt x="170" y="129" on="0"/>
        <pt x="184" y="114" on="1"/>
        <pt x="200" y="98" on="0"/>
        <pt x="247" y="81" on="0"/>
        <pt x="302" y="80" on="0"/>
        <pt x="363" y="97" on="0"/>
        <pt x="393" y="114" on="1"/>
        <pt x="395" y="115" on="0"/>
        <pt x="400" y="118" on="0"/>
        <pt x="401" y="116" on="1"/>
        <pt x="403" y="115" on="0"/>
        <pt x="396" y="110" on="0"/>
        <pt x="393" y="107" on="1"/>
        <pt x="367" y="87" on="0"/>
        <pt x="309" y="63" on="0"/>
        <pt x="250" y="57" on="0"/>
        <pt x="195" y="70" on="0"/>
        <pt x="173" y="88" on="1"/>
        <pt x="152" y="106" on="0"/>
        <pt x="126" y="157" on="0"/>
        <pt x="113" y="218" on="0"/>
        <pt x="111" y="284" on="0"/>
        <pt x="114" y="316" on="1"/>
        <pt x="118" y="367" on="0"/>
        <pt x="150" y="471" on="0"/>
        <pt x="203" y="559" on="0"/>
        <pt x="277" y="625" on="0"/>
        <pt x="323" y="638" on="1"/>
        <pt x="346" y="644" on="0"/>
        <pt x="394" y="642" on="0"/>
        <pt x="435" y="626" on="0"/>
        <pt x="465" y="595" on="0"/>
      </contour>
      <contour>
        <pt x="314" y="-89" on="1"/>
        <pt x="314" y="-102" on="0"/>
        <pt x="303" y="-133" on="0"/>
        <pt x="284" y="-159" on="0"/>
        <pt x="258" y="-176" on="0"/>
        <pt x="244" y="-176" on="1"/>
        <pt x="237" y="-173" on="1"/>
        <pt x="237" y="-169" on="0"/>
        <pt x="249" y="-154" on="0"/>
        <pt x="263" y="-135" on="0"/>
        <pt x="275" y="-111" on="0"/>
        <pt x="275" y="-98" on="1"/>
        <pt x="275" y="-81" on="0"/>
        <pt x="256" y="-57" on="0"/>
        <pt x="238" y="-57" on="1"/>
        <pt x="214" y="-57" on="0"/>
        <pt x="198" y="-73" on="0"/>
        <pt x="193" y="-77" on="1"/>
        <pt x="186" y="-70" on="0"/>
        <pt x="166" y="-50" on="0"/>
        <pt x="147" y="-28" on="0"/>
        <pt x="134" y="-6" on="0"/>
        <pt x="134" y="3" on="1"/>
        <pt x="134" y="11" on="0"/>
        <pt x="140" y="19" on="1"/>
        <pt x="106" y="35" on="0"/>
        <pt x="54" y="90" on="0"/>
        <pt x="40" y="129" on="1"/>
        <pt x="19" y="190" on="0"/>
        <pt x="14" y="306" on="0"/>
        <pt x="22" y="362" on="1"/>
        <pt x="26" y="394" on="0"/>
        <pt x="49" y="475" on="0"/>
        <pt x="88" y="559" on="0"/>
        <pt x="147" y="641" on="0"/>
        <pt x="188" y="675" on="1"/>
        <pt x="231" y="711" on="0"/>
        <pt x="336" y="735" on="0"/>
        <pt x="432" y="719" on="0"/>
        <pt x="506" y="668" on="0"/>
        <pt x="518" y="629" on="1"/>
        <pt x="519" y="627" on="0"/>
        <pt x="521" y="614" on="0"/>
        <pt x="519" y="612" on="1"/>
        <pt x="518" y="611" on="0"/>
        <pt x="514" y="623" on="0"/>
        <pt x="512" y="625" on="1"/>
        <pt x="470" y="682" on="0"/>
        <pt x="364" y="713" on="0"/>
        <pt x="260" y="688" on="0"/>
        <pt x="168" y="621" on="0"/>
        <pt x="141" y="580" on="1"/>
        <pt x="94" y="509" on="0"/>
        <pt x="45" y="349" on="0"/>
        <pt x="47" y="264" on="1"/>
        <pt x="48" y="225" on="0"/>
        <pt x="63" y="139" on="0"/>
        <pt x="85" y="100" on="1"/>
        <pt x="110" y="54" on="0"/>
        <pt x="153" y="29" on="1"/>
        <pt x="159" y="32" on="0"/>
        <pt x="173" y="37" on="0"/>
        <pt x="185" y="45" on="0"/>
        <pt x="192" y="57" on="0"/>
        <pt x="192" y="67" on="1"/>
        <pt x="200" y="63" on="0"/>
        <pt x="212" y="40" on="0"/>
        <pt x="212" y="34" on="1"/>
        <pt x="212" y="24" on="0"/>
        <pt x="197" y="16" on="0"/>
        <pt x="178" y="10" on="0"/>
        <pt x="163" y="1" on="0"/>
        <pt x="163" y="-9" on="1"/>
        <pt x="163" y="-23" on="0"/>
        <pt x="181" y="-50" on="0"/>
        <pt x="192" y="-59" on="1"/>
        <pt x="196" y="-45" on="0"/>
        <pt x="236" y="-25" on="0"/>
        <pt x="279" y="-25" on="0"/>
        <pt x="314" y="-54" on="0"/>
      </contour>
      <contour>
        <pt x="359" y="-99" on="1"/>
        <pt x="359" y="-132" on="0"/>
        <pt x="333" y="-186" on="0"/>
        <pt x="290" y="-223" on="0"/>
        <pt x="232" y="-244" on="0"/>
        <pt x="201" y="-244" on="1"/>
        <pt x="197" y="-244" on="0"/>
        <pt x="178" y="-241" on="0"/>
        <pt x="158" y="-235" on="0"/>
        <pt x="143" y="-227" on="0"/>
        <pt x="142" y="-222" on="1"/>
        <pt x="144" y="-221" on="1"/>
        <pt x="175" y="-221" on="0"/>
        <pt x="240" y="-208" on="0"/>
        <pt x="292" y="-178" on="0"/>
        <pt x="326" y="-129" on="0"/>
        <pt x="326" y="-91" on="1"/>
        <pt x="326" y="-46" on="0"/>
        <pt x="274" y="-4" on="0"/>
        <pt x="232" y="-4" on="1"/>
        <pt x="225" y="-4" on="0"/>
        <pt x="214" y="-21" on="0"/>
        <pt x="201" y="-21" on="1"/>
        <pt x="197" y="-21" on="0"/>
        <pt x="190" y="-18" on="0"/>
        <pt x="190" y="-13" on="1"/>
        <pt x="190" y="-7" on="0"/>
        <pt x="201" y="0" on="0"/>
        <pt x="213" y="8" on="0"/>
        <pt x="221" y="21" on="0"/>
        <pt x="218" y="34" on="1"/>
        <pt x="216" y="44" on="1"/>
        <pt x="219" y="44" on="0"/>
        <pt x="225" y="38" on="1"/>
        <pt x="240" y="38" on="0"/>
        <pt x="273" y="40" on="0"/>
        <pt x="281" y="42" on="1"/>
        <pt x="317" y="48" on="0"/>
        <pt x="383" y="81" on="0"/>
        <pt x="411" y="105" on="1"/>
        <pt x="412" y="107" on="0"/>
        <pt x="426" y="118" on="0"/>
        <pt x="427" y="116" on="1"/>
        <pt x="429" y="115" on="0"/>
        <pt x="423" y="106" on="0"/>
        <pt x="421" y="103" on="1"/>
        <pt x="400" y="74" on="0"/>
        <pt x="336" y="36" on="0"/>
        <pt x="301" y="26" on="1"/>
        <pt x="286" y="21" on="0"/>
        <pt x="255" y="18" on="0"/>
        <pt x="238" y="18" on="1"/>
        <pt x="243" y="13" on="0"/>
        <pt x="248" y="4" on="0"/>
        <pt x="249" y="4" on="1"/>
        <pt x="254" y="4" on="0"/>
        <pt x="263" y="7" on="0"/>
        <pt x="267" y="7" on="1"/>
        <pt x="288" y="7" on="0"/>
        <pt x="322" y="-12" on="0"/>
        <pt x="346" y="-42" on="0"/>
        <pt x="359" y="-80" on="0"/>
      </contour>
      <contour>
        <pt x="260" y="-89" on="1"/>
        <pt x="260" y="-114" on="0"/>
        <pt x="222" y="-145" on="0"/>
        <pt x="201" y="-154" on="1"/>
        <pt x="93" y="-199" on="1"/>
        <pt x="96" y="-194" on="1"/>
        <pt x="102" y="-191" on="0"/>
        <pt x="135" y="-168" on="0"/>
        <pt x="175" y="-139" on="0"/>
        <pt x="213" y="-111" on="0"/>
        <pt x="223" y="-102" on="1"/>
        <pt x="231" y="-96" on="0"/>
        <pt x="226" y="-90" on="0"/>
        <pt x="218" y="-92" on="1"/>
        <pt x="213" y="-95" on="0"/>
        <pt x="205" y="-104" on="0"/>
        <pt x="199" y="-104" on="1"/>
        <pt x="199" y="-89" on="0"/>
        <pt x="221" y="-66" on="0"/>
        <pt x="238" y="-66" on="1"/>
        <pt x="249" y="-66" on="0"/>
        <pt x="260" y="-79" on="0"/>
      </contour>
      <contour>
        <pt x="190" y="-188" on="1"/>
        <pt x="188" y="-194" on="0"/>
        <pt x="159" y="-205" on="0"/>
        <pt x="123" y="-215" on="0"/>
        <pt x="89" y="-223" on="0"/>
        <pt x="82" y="-224" on="1"/>
        <pt x="101" y="-202" on="0"/>
        <pt x="153" y="-184" on="0"/>
        <pt x="179" y="-184" on="1"/>
        <pt x="187" y="-184" on="0"/>
      </contour>
    </TTGlyph>
    <TTGlyph name="D" xMin="-3" yMin="-16" xMax="576" yMax="739">
      <contour>
        <pt x="497" y="348" on="1"/>
        <pt x="496" y="345" on="0"/>
        <pt x="491" y="335" on="0"/>
        <pt x="485" y="324" on="0"/>
        <pt x="479" y="317" on="0"/>
        <pt x="478" y="318" on="1"/>
        <pt x="478" y="318" on="0"/>
        <pt x="480" y="328" on="0"/>
        <pt x="483" y="340" on="0"/>
        <pt x="486" y="351" on="0"/>
        <pt x="486" y="353" on="1"/>
        <pt x="501" y="433" on="0"/>
        <pt x="471" y="549" on="0"/>
        <pt x="400" y="623" on="0"/>
        <pt x="297" y="659" on="0"/>
        <pt x="240" y="660" on="1"/>
        <pt x="199" y="660" on="0"/>
        <pt x="120" y="647" on="0"/>
        <pt x="55" y="627" on="0"/>
        <pt x="10" y="603" on="0"/>
        <pt x="4" y="592" on="1"/>
        <pt x="-3" y="580" on="0"/>
        <pt x="0" y="595" on="1"/>
        <pt x="8" y="621" on="0"/>
        <pt x="77" y="665" on="0"/>
        <pt x="169" y="693" on="0"/>
        <pt x="270" y="702" on="0"/>
        <pt x="311" y="692" on="1"/>
        <pt x="338" y="686" on="0"/>
        <pt x="392" y="664" on="0"/>
        <pt x="441" y="633" on="0"/>
        <pt x="482" y="590" on="0"/>
        <pt x="496" y="562" on="1"/>
        <pt x="523" y="508" on="0"/>
        <pt x="522" y="393" on="0"/>
      </contour>
      <contour>
        <pt x="562" y="355" on="1"/>
        <pt x="543" y="299" on="0"/>
        <pt x="480" y="209" on="0"/>
        <pt x="408" y="138" on="0"/>
        <pt x="332" y="86" on="0"/>
        <pt x="299" y="68" on="1"/>
        <pt x="289" y="63" on="0"/>
        <pt x="275" y="57" on="0"/>
        <pt x="275" y="59" on="1"/>
        <pt x="273" y="60" on="0"/>
        <pt x="288" y="71" on="0"/>
        <pt x="296" y="77" on="1"/>
        <pt x="352" y="122" on="0"/>
        <pt x="457" y="222" on="0"/>
        <pt x="499" y="286" on="1"/>
        <pt x="520" y="319" on="0"/>
        <pt x="542" y="398" on="0"/>
        <pt x="542" y="482" on="0"/>
        <pt x="519" y="564" on="0"/>
        <pt x="495" y="599" on="1"/>
        <pt x="463" y="645" on="0"/>
        <pt x="372" y="699" on="0"/>
        <pt x="268" y="720" on="0"/>
        <pt x="158" y="712" on="0"/>
        <pt x="107" y="697" on="1"/>
        <pt x="99" y="695" on="0"/>
        <pt x="96" y="693" on="0"/>
        <pt x="95" y="695" on="1"/>
        <pt x="94" y="697" on="0"/>
        <pt x="102" y="701" on="0"/>
        <pt x="105" y="703" on="1"/>
        <pt x="127" y="715" on="0"/>
        <pt x="197" y="735" on="0"/>
        <pt x="285" y="739" on="0"/>
        <pt x="385" y="720" on="0"/>
        <pt x="436" y="693" on="1"/>
        <pt x="491" y="663" on="0"/>
        <pt x="552" y="571" on="0"/>
        <pt x="576" y="474" on="0"/>
        <pt x="572" y="383" on="0"/>
      </contour>
      <contour>
        <pt x="127" y="12" on="1"/>
        <pt x="122" y="20" on="0"/>
        <pt x="107" y="55" on="0"/>
        <pt x="103" y="79" on="1"/>
        <pt x="101" y="91" on="0"/>
        <pt x="100" y="121" on="0"/>
        <pt x="102" y="148" on="0"/>
        <pt x="106" y="166" on="0"/>
        <pt x="110" y="166" on="1"/>
        <pt x="111" y="166" on="0"/>
        <pt x="114" y="155" on="0"/>
        <pt x="117" y="141" on="0"/>
        <pt x="118" y="128" on="0"/>
        <pt x="118" y="125" on="1"/>
        <pt x="120" y="99" on="0"/>
        <pt x="129" y="47" on="0"/>
        <pt x="138" y="23" on="1"/>
        <pt x="173" y="66" on="0"/>
        <pt x="263" y="154" on="0"/>
        <pt x="349" y="245" on="0"/>
        <pt x="420" y="341" on="0"/>
        <pt x="436" y="392" on="1"/>
        <pt x="447" y="427" on="0"/>
        <pt x="434" y="503" on="0"/>
        <pt x="415" y="534" on="1"/>
        <pt x="396" y="564" on="0"/>
        <pt x="326" y="604" on="0"/>
        <pt x="284" y="612" on="1"/>
        <pt x="267" y="615" on="0"/>
        <pt x="234" y="619" on="0"/>
        <pt x="216" y="619" on="1"/>
        <pt x="219" y="604" on="0"/>
        <pt x="220" y="569" on="0"/>
        <pt x="218" y="535" on="0"/>
        <pt x="214" y="504" on="0"/>
        <pt x="211" y="492" on="1"/>
        <pt x="197" y="438" on="0"/>
        <pt x="159" y="329" on="0"/>
        <pt x="138" y="279" on="1"/>
        <pt x="136" y="276" on="0"/>
        <pt x="129" y="263" on="0"/>
        <pt x="127" y="263" on="1"/>
        <pt x="125" y="263" on="0"/>
        <pt x="125" y="279" on="0"/>
        <pt x="126" y="282" on="1"/>
        <pt x="127" y="294" on="0"/>
        <pt x="133" y="329" on="0"/>
        <pt x="140" y="365" on="0"/>
        <pt x="148" y="400" on="0"/>
        <pt x="152" y="412" on="1"/>
        <pt x="154" y="418" on="0"/>
        <pt x="165" y="464" on="0"/>
        <pt x="177" y="524" on="0"/>
        <pt x="188" y="591" on="0"/>
        <pt x="190" y="619" on="1"/>
        <pt x="178" y="619" on="1"/>
        <pt x="176" y="580" on="0"/>
        <pt x="158" y="498" on="0"/>
        <pt x="133" y="415" on="0"/>
        <pt x="106" y="331" on="0"/>
        <pt x="96" y="289" on="1"/>
        <pt x="94" y="280" on="0"/>
        <pt x="87" y="236" on="0"/>
        <pt x="83" y="181" on="0"/>
        <pt x="83" y="120" on="0"/>
        <pt x="92" y="65" on="0"/>
        <pt x="110" y="21" on="0"/>
      </contour>
      <contour>
        <pt x="459" y="363" on="1"/>
        <pt x="437" y="311" on="0"/>
        <pt x="360" y="215" on="0"/>
        <pt x="270" y="126" on="0"/>
        <pt x="175" y="46" on="0"/>
        <pt x="136" y="10" on="1"/>
        <pt x="128" y="3" on="0"/>
        <pt x="103" y="14" on="0"/>
        <pt x="97" y="22" on="1"/>
        <pt x="76" y="50" on="0"/>
        <pt x="56" y="120" on="0"/>
        <pt x="52" y="195" on="0"/>
        <pt x="61" y="272" on="0"/>
        <pt x="70" y="308" on="1"/>
        <pt x="90" y="391" on="0"/>
        <pt x="141" y="546" on="0"/>
        <pt x="153" y="616" on="1"/>
        <pt x="99" y="610" on="0"/>
        <pt x="14" y="573" on="0"/>
        <pt x="0" y="547" on="1"/>
        <pt x="0" y="545" on="0"/>
        <pt x="-3" y="545" on="0"/>
        <pt x="-1" y="553" on="1"/>
        <pt x="7" y="581" on="0"/>
        <pt x="69" y="622" on="0"/>
        <pt x="155" y="645" on="0"/>
        <pt x="254" y="649" on="0"/>
        <pt x="301" y="641" on="1"/>
        <pt x="352" y="632" on="0"/>
        <pt x="427" y="573" on="0"/>
        <pt x="470" y="494" on="0"/>
        <pt x="477" y="404" on="0"/>
      </contour>
      <contour>
        <pt x="244" y="590" on="1"/>
        <pt x="256" y="564" on="0"/>
        <pt x="251" y="480" on="0"/>
        <pt x="233" y="389" on="0"/>
        <pt x="210" y="305" on="0"/>
        <pt x="204" y="279" on="1"/>
        <pt x="192" y="231" on="0"/>
        <pt x="158" y="135" on="0"/>
        <pt x="147" y="99" on="1"/>
        <pt x="142" y="85" on="0"/>
        <pt x="140" y="85" on="1"/>
        <pt x="137" y="85" on="0"/>
        <pt x="137" y="96" on="0"/>
        <pt x="137" y="101" on="1"/>
        <pt x="140" y="175" on="0"/>
        <pt x="177" y="319" on="0"/>
        <pt x="199" y="393" on="1"/>
        <pt x="212" y="438" on="0"/>
        <pt x="236" y="536" on="0"/>
        <pt x="238" y="590" on="1"/>
        <pt x="238" y="597" on="0"/>
        <pt x="240" y="598" on="1"/>
        <pt x="241" y="598" on="0"/>
        <pt x="243" y="592" on="0"/>
      </contour>
      <contour>
        <pt x="363" y="175" on="1"/>
        <pt x="364" y="174" on="0"/>
        <pt x="354" y="160" on="0"/>
        <pt x="339" y="143" on="0"/>
        <pt x="324" y="126" on="0"/>
        <pt x="321" y="123" on="1"/>
        <pt x="300" y="102" on="0"/>
        <pt x="257" y="59" on="0"/>
        <pt x="234" y="44" on="1"/>
        <pt x="144" y="-13" on="1"/>
        <pt x="142" y="-14" on="0"/>
        <pt x="135" y="-16" on="0"/>
        <pt x="133" y="-15" on="1"/>
        <pt x="131" y="-14" on="0"/>
        <pt x="132" y="-10" on="0"/>
        <pt x="133" y="-8" on="1"/>
        <pt x="134" y="-6" on="0"/>
        <pt x="136" y="-4" on="1"/>
        <pt x="153" y="8" on="0"/>
        <pt x="196" y="44" on="0"/>
        <pt x="219" y="63" on="1"/>
        <pt x="236" y="76" on="0"/>
        <pt x="283" y="116" on="0"/>
        <pt x="328" y="152" on="0"/>
        <pt x="361" y="177" on="0"/>
      </contour>
    </TTGlyph>
    <TTGlyph name="Dcaron" xMin="-3" yMin="-16" xMax="576" yMax="951">
      <component glyphName="D" x="0" y="0" flags="0x204"/>
      <component glyphName="caron" x="119" y="232" flags="0x4"/>
    </TTGlyph>
    <TTGlyph name="Dcroat" xMin="-29" yMin="-17" xMax="576" yMax="739">
      <component glyphName="Eth" x="0" y="0" flags="0x204"/>
    </TTGlyph>
    <TTGlyph name="E" xMin="16" yMin="0" xMax="494" yMax="728">
      <contour>
        <pt x="475" y="693" on="1"/>
        <pt x="482" y="698" on="0"/>
        <pt x="480" y="689" on="0"/>
        <pt x="478" y="686" on="1"/>
        <pt x="469" y="672" on="0"/>
        <pt x="440" y="652" on="0"/>
        <pt x="407" y="640" on="0"/>
        <pt x="375" y="634" on="0"/>
        <pt x="363" y="634" on="1"/>
        <pt x="332" y="634" on="0"/>
        <pt x="266" y="646" on="0"/>
        <pt x="233" y="653" on="1"/>
        <pt x="231" y="653" on="0"/>
        <pt x="221" y="657" on="0"/>
        <pt x="221" y="659" on="1"/>
        <pt x="219" y="662" on="0"/>
        <pt x="230" y="666" on="0"/>
        <pt x="232" y="666" on="1"/>
        <pt x="239" y="668" on="0"/>
        <pt x="262" y="671" on="0"/>
        <pt x="288" y="673" on="0"/>
        <pt x="311" y="673" on="0"/>
        <pt x="319" y="673" on="1"/>
        <pt x="341" y="671" on="0"/>
        <pt x="388" y="671" on="0"/>
        <pt x="430" y="675" on="0"/>
        <pt x="465" y="685" on="0"/>
      </contour>
      <contour>
        <pt x="489" y="726" on="1"/>
        <pt x="494" y="728" on="0"/>
        <pt x="490" y="722" on="0"/>
        <pt x="489" y="721" on="1"/>
        <pt x="463" y="698" on="0"/>
        <pt x="401" y="686" on="0"/>
        <pt x="334" y="689" on="0"/>
        <pt x="263" y="698" on="0"/>
        <pt x="227" y="696" on="1"/>
        <pt x="206" y="695" on="0"/>
        <pt x="160" y="681" on="0"/>
        <pt x="119" y="656" on="0"/>
        <pt x="86" y="617" on="0"/>
        <pt x="77" y="592" on="1"/>
        <pt x="75" y="588" on="0"/>
        <pt x="74" y="588" on="0"/>
        <pt x="73" y="590" on="0"/>
        <pt x="73" y="594" on="0"/>
        <pt x="73" y="595" on="1"/>
        <pt x="79" y="631" on="0"/>
        <pt x="111" y="681" on="0"/>
        <pt x="155" y="712" on="0"/>
        <pt x="207" y="726" on="0"/>
        <pt x="233" y="727" on="1"/>
        <pt x="269" y="728" on="0"/>
        <pt x="338" y="721" on="0"/>
        <pt x="403" y="715" on="0"/>
        <pt x="463" y="716" on="0"/>
      </contour>
      <contour>
        <pt x="160" y="648" on="1"/>
        <pt x="162" y="645" on="0"/>
        <pt x="146" y="631" on="0"/>
        <pt x="142" y="629" on="1"/>
        <pt x="134" y="623" on="0"/>
        <pt x="120" y="612" on="0"/>
        <pt x="114" y="604" on="1"/>
        <pt x="106" y="595" on="0"/>
        <pt x="95" y="577" on="0"/>
        <pt x="90" y="566" on="1"/>
        <pt x="88" y="559" on="0"/>
        <pt x="86" y="559" on="1"/>
        <pt x="85" y="559" on="0"/>
        <pt x="85" y="566" on="1"/>
        <pt x="85" y="573" on="1"/>
        <pt x="87" y="588" on="0"/>
        <pt x="95" y="612" on="0"/>
        <pt x="105" y="625" on="1"/>
        <pt x="109" y="631" on="0"/>
        <pt x="128" y="642" on="0"/>
        <pt x="146" y="650" on="0"/>
        <pt x="160" y="652" on="0"/>
      </contour>
      <contour>
        <pt x="430" y="626" on="1"/>
        <pt x="435" y="628" on="0"/>
        <pt x="434" y="623" on="0"/>
        <pt x="432" y="621" on="1"/>
        <pt x="419" y="606" on="0"/>
        <pt x="370" y="592" on="0"/>
        <pt x="314" y="587" on="0"/>
        <pt x="259" y="589" on="0"/>
        <pt x="241" y="589" on="1"/>
        <pt x="247" y="569" on="0"/>
        <pt x="246" y="512" on="0"/>
        <pt x="237" y="447" on="0"/>
        <pt x="223" y="381" on="0"/>
        <pt x="216" y="352" on="1"/>
        <pt x="243" y="350" on="0"/>
        <pt x="295" y="343" on="0"/>
        <pt x="343" y="340" on="0"/>
        <pt x="387" y="343" on="0"/>
        <pt x="408" y="351" on="1"/>
        <pt x="413" y="353" on="0"/>
        <pt x="413" y="347" on="0"/>
        <pt x="411" y="345" on="1"/>
        <pt x="387" y="321" on="0"/>
        <pt x="329" y="309" on="0"/>
        <pt x="265" y="313" on="0"/>
        <pt x="199" y="323" on="0"/>
        <pt x="166" y="322" on="1"/>
        <pt x="145" y="321" on="0"/>
        <pt x="103" y="309" on="0"/>
        <pt x="64" y="285" on="0"/>
        <pt x="31" y="250" on="0"/>
        <pt x="21" y="226" on="1"/>
        <pt x="20" y="222" on="0"/>
        <pt x="18" y="222" on="1"/>
        <pt x="16" y="222" on="0"/>
        <pt x="16" y="229" on="0"/>
        <pt x="17" y="231" on="1"/>
        <pt x="22" y="260" on="0"/>
        <pt x="46" y="298" on="0"/>
        <pt x="63" y="312" on="1"/>
        <pt x="80" y="384" on="0"/>
        <pt x="123" y="528" on="0"/>
        <pt x="137" y="592" on="1"/>
        <pt x="136" y="592" on="0"/>
        <pt x="125" y="593" on="0"/>
        <pt x="125" y="595" on="1"/>
        <pt x="125" y="597" on="0"/>
        <pt x="131" y="601" on="0"/>
        <pt x="134" y="603" on="1"/>
        <pt x="176" y="623" on="0"/>
        <pt x="264" y="626" on="0"/>
        <pt x="310" y="622" on="1"/>
        <pt x="339" y="620" on="0"/>
        <pt x="398" y="616" on="0"/>
      </contour>
      <contour>
        <pt x="210" y="589" on="1"/>
        <pt x="211" y="564" on="0"/>
        <pt x="209" y="520" on="0"/>
        <pt x="204" y="503" on="1"/>
        <pt x="195" y="467" on="0"/>
        <pt x="173" y="389" on="0"/>
        <pt x="159" y="352" on="1"/>
        <pt x="163" y="353" on="0"/>
        <pt x="173" y="353" on="0"/>
        <pt x="178" y="353" on="1"/>
        <pt x="193" y="400" on="1"/>
        <pt x="207" y="444" on="0"/>
        <pt x="230" y="538" on="0"/>
        <pt x="233" y="589" on="1"/>
      </contour>
      <contour>
        <pt x="167" y="590" on="1"/>
        <pt x="159" y="530" on="0"/>
        <pt x="117" y="404" on="0"/>
        <pt x="100" y="338" on="1"/>
        <pt x="108" y="341" on="0"/>
        <pt x="121" y="346" on="0"/>
        <pt x="127" y="348" on="1"/>
        <pt x="132" y="368" on="0"/>
        <pt x="142" y="405" on="0"/>
        <pt x="147" y="419" on="1"/>
        <pt x="149" y="425" on="0"/>
        <pt x="159" y="459" on="0"/>
        <pt x="171" y="507" on="0"/>
        <pt x="183" y="563" on="0"/>
        <pt x="186" y="590" on="1"/>
      </contour>
      <contour>
        <pt x="399" y="318" on="1"/>
        <pt x="404" y="322" on="0"/>
        <pt x="403" y="313" on="0"/>
        <pt x="401" y="311" on="1"/>
        <pt x="393" y="297" on="0"/>
        <pt x="368" y="275" on="0"/>
        <pt x="340" y="262" on="0"/>
        <pt x="311" y="255" on="0"/>
        <pt x="300" y="256" on="1"/>
        <pt x="269" y="258" on="0"/>
        <pt x="201" y="271" on="0"/>
        <pt x="170" y="278" on="1"/>
        <pt x="168" y="279" on="0"/>
        <pt x="159" y="282" on="0"/>
        <pt x="159" y="285" on="1"/>
        <pt x="158" y="287" on="0"/>
        <pt x="167" y="292" on="0"/>
        <pt x="169" y="292" on="1"/>
        <pt x="176" y="294" on="0"/>
        <pt x="197" y="296" on="0"/>
        <pt x="220" y="298" on="0"/>
        <pt x="241" y="297" on="0"/>
        <pt x="248" y="296" on="1"/>
        <pt x="266" y="294" on="0"/>
        <pt x="309" y="294" on="0"/>
        <pt x="352" y="300" on="0"/>
        <pt x="388" y="310" on="0"/>
      </contour>
      <contour>
        <pt x="421" y="130" on="1"/>
        <pt x="423" y="131" on="0"/>
        <pt x="423" y="129" on="1"/>
        <pt x="423" y="127" on="0"/>
        <pt x="422" y="125" on="1"/>
        <pt x="400" y="101" on="0"/>
        <pt x="347" y="89" on="0"/>
        <pt x="289" y="92" on="0"/>
        <pt x="229" y="104" on="0"/>
        <pt x="200" y="104" on="1"/>
        <pt x="163" y="105" on="0"/>
        <pt x="86" y="69" on="0"/>
        <pt x="60" y="25" on="1"/>
        <pt x="57" y="21" on="0"/>
        <pt x="56" y="21" on="1"/>
        <pt x="55" y="21" on="0"/>
        <pt x="56" y="27" on="0"/>
        <pt x="56" y="28" on="1"/>
        <pt x="60" y="39" on="0"/>
        <pt x="67" y="51" on="0"/>
        <pt x="71" y="59" on="1"/>
        <pt x="57" y="87" on="0"/>
        <pt x="45" y="144" on="0"/>
        <pt x="44" y="175" on="1"/>
        <pt x="44" y="198" on="0"/>
        <pt x="52" y="220" on="0"/>
        <pt x="75" y="232" on="1"/>
        <pt x="113" y="252" on="0"/>
        <pt x="199" y="252" on="0"/>
        <pt x="242" y="247" on="1"/>
        <pt x="270" y="244" on="0"/>
        <pt x="326" y="241" on="0"/>
        <pt x="356" y="251" on="1"/>
        <pt x="361" y="253" on="0"/>
        <pt x="359" y="246" on="0"/>
        <pt x="357" y="244" on="1"/>
        <pt x="344" y="228" on="0"/>
        <pt x="298" y="216" on="0"/>
        <pt x="246" y="213" on="0"/>
        <pt x="198" y="215" on="0"/>
        <pt x="184" y="214" on="1"/>
        <pt x="178" y="214" on="1"/>
        <pt x="171" y="190" on="0"/>
        <pt x="156" y="147" on="0"/>
        <pt x="149" y="127" on="1"/>
        <pt x="164" y="132" on="0"/>
        <pt x="191" y="137" on="0"/>
        <pt x="206" y="136" on="1"/>
        <pt x="235" y="135" on="0"/>
        <pt x="293" y="125" on="0"/>
        <pt x="348" y="118" on="0"/>
        <pt x="399" y="119" on="0"/>
      </contour>
      <contour>
        <pt x="144" y="215" on="1"/>
        <pt x="138" y="216" on="0"/>
        <pt x="113" y="219" on="0"/>
        <pt x="98" y="217" on="1"/>
        <pt x="88" y="216" on="0"/>
        <pt x="74" y="202" on="0"/>
        <pt x="73" y="192" on="1"/>
        <pt x="71" y="162" on="0"/>
        <pt x="77" y="107" on="0"/>
        <pt x="84" y="78" on="1"/>
        <pt x="96" y="93" on="1"/>
        <pt x="95" y="105" on="0"/>
        <pt x="95" y="133" on="0"/>
        <pt x="98" y="156" on="0"/>
        <pt x="102" y="170" on="0"/>
        <pt x="105" y="170" on="1"/>
        <pt x="107" y="170" on="0"/>
        <pt x="109" y="160" on="0"/>
        <pt x="111" y="148" on="0"/>
        <pt x="112" y="136" on="0"/>
        <pt x="112" y="133" on="1"/>
        <pt x="113" y="127" on="0"/>
        <pt x="114" y="116" on="0"/>
        <pt x="115" y="110" on="1"/>
        <pt x="120" y="113" on="0"/>
        <pt x="128" y="119" on="0"/>
        <pt x="133" y="121" on="1"/>
        <pt x="134" y="166" on="0"/>
      </contour>
      <contour>
        <pt x="414" y="97" on="1"/>
        <pt x="414" y="94" on="0"/>
        <pt x="412" y="90" on="1"/>
        <pt x="406" y="76" on="0"/>
        <pt x="384" y="55" on="0"/>
        <pt x="358" y="41" on="0"/>
        <pt x="331" y="34" on="0"/>
        <pt x="321" y="34" on="1"/>
        <pt x="286" y="34" on="0"/>
        <pt x="229" y="50" on="0"/>
        <pt x="201" y="60" on="1"/>
        <pt x="199" y="61" on="0"/>
        <pt x="191" y="65" on="0"/>
        <pt x="190" y="68" on="1"/>
        <pt x="189" y="70" on="0"/>
        <pt x="199" y="74" on="0"/>
        <pt x="201" y="74" on="1"/>
        <pt x="207" y="75" on="0"/>
        <pt x="226" y="76" on="0"/>
        <pt x="247" y="76" on="0"/>
        <pt x="267" y="75" on="0"/>
        <pt x="274" y="75" on="1"/>
        <pt x="291" y="74" on="0"/>
        <pt x="331" y="73" on="0"/>
        <pt x="368" y="78" on="0"/>
        <pt x="401" y="88" on="0"/>
        <pt x="410" y="97" on="1"/>
        <pt x="413" y="100" on="0"/>
      </contour>
      <contour>
        <pt x="103" y="277" on="1"/>
        <pt x="103" y="274" on="0"/>
        <pt x="90" y="262" on="0"/>
        <pt x="73" y="248" on="0"/>
        <pt x="58" y="236" on="0"/>
        <pt x="56" y="234" on="1"/>
        <pt x="48" y="226" on="0"/>
        <pt x="34" y="211" on="0"/>
        <pt x="29" y="200" on="1"/>
        <pt x="24" y="191" on="0"/>
        <pt x="24" y="204" on="0"/>
        <pt x="25" y="207" on="1"/>
        <pt x="27" y="215" on="0"/>
        <pt x="36" y="242" on="0"/>
        <pt x="49" y="255" on="1"/>
        <pt x="55" y="260" on="0"/>
        <pt x="72" y="271" on="0"/>
        <pt x="89" y="278" on="0"/>
        <pt x="102" y="280" on="0"/>
      </contour>
      <contour>
        <pt x="377" y="29" on="1"/>
        <pt x="378" y="25" on="0"/>
        <pt x="374" y="23" on="1"/>
        <pt x="362" y="13" on="0"/>
        <pt x="319" y="4" on="0"/>
        <pt x="270" y="0" on="0"/>
        <pt x="224" y="0" on="0"/>
        <pt x="210" y="0" on="1"/>
        <pt x="185" y="0" on="0"/>
        <pt x="130" y="7" on="0"/>
        <pt x="110" y="12" on="1"/>
        <pt x="108" y="13" on="0"/>
        <pt x="101" y="14" on="0"/>
        <pt x="101" y="16" on="1"/>
        <pt x="101" y="18" on="0"/>
        <pt x="108" y="21" on="0"/>
        <pt x="110" y="22" on="1"/>
        <pt x="148" y="34" on="0"/>
        <pt x="227" y="31" on="0"/>
        <pt x="267" y="26" on="1"/>
        <pt x="292" y="22" on="0"/>
        <pt x="343" y="18" on="0"/>
        <pt x="371" y="29" on="1"/>
        <pt x="377" y="31" on="0"/>
      </contour>
      <contour>
        <pt x="140" y="63" on="1"/>
        <pt x="140" y="60" on="0"/>
        <pt x="127" y="51" on="0"/>
        <pt x="111" y="41" on="0"/>
        <pt x="96" y="32" on="0"/>
        <pt x="93" y="30" on="1"/>
        <pt x="85" y="23" on="0"/>
        <pt x="73" y="13" on="0"/>
        <pt x="67" y="5" on="1"/>
        <pt x="62" y="0" on="0"/>
        <pt x="60" y="0" on="1"/>
        <pt x="59" y="0" on="1"/>
        <pt x="59" y="1" on="1"/>
        <pt x="59" y="1" on="0"/>
        <pt x="59" y="3" on="1"/>
        <pt x="64" y="18" on="0"/>
        <pt x="75" y="38" on="0"/>
        <pt x="89" y="49" on="1"/>
        <pt x="95" y="53" on="0"/>
        <pt x="111" y="62" on="0"/>
        <pt x="127" y="67" on="0"/>
        <pt x="139" y="67" on="0"/>
      </contour>
    </TTGlyph>
    <TTGlyph name="Eacute" xMin="16" yMin="0" xMax="494" yMax="957">
      <component glyphName="E" x="0" y="0" flags="0x204"/>
      <component glyphName="acute" x="168" y="230" flags="0x4"/>
    </TTGlyph>
    <TTGlyph name="Ecaron" xMin="16" yMin="0" xMax="494" yMax="951">
      <component glyphName="E" x="0" y="0" flags="0x204"/>
      <component glyphName="caron" x="102" y="232" flags="0x4"/>
    </TTGlyph>
    <TTGlyph name="Ecircumflex" xMin="16" yMin="0" xMax="494" yMax="953">
      <component glyphName="E" x="0" y="0" flags="0x204"/>
      <component glyphName="circumflex" x="108" y="209" flags="0x4"/>
    </TTGlyph>
    <TTGlyph name="Edieresis" xMin="16" yMin="0" xMax="494" yMax="906">
      <component glyphName="E" x="0" y="0" flags="0x204"/>
      <component glyphName="dieresis" x="111" y="205" flags="0x4"/>
    </TTGlyph>
    <TTGlyph name="Egrave" xMin="16" yMin="0" xMax="494" yMax="958">
      <component glyphName="E" x="0" y="0" flags="0x204"/>
      <component glyphName="grave" x="78" y="231" flags="0x4"/>
    </TTGlyph>
    <TTGlyph name="Eogonek" xMin="16" yMin="-281" xMax="494" yMax="728">
      <contour>
        <pt x="478" y="686" on="1"/>
        <pt x="469" y="672" on="0"/>
        <pt x="440" y="652" on="0"/>
        <pt x="407" y="640" on="0"/>
        <pt x="375" y="634" on="0"/>
        <pt x="363" y="634" on="1"/>
        <pt x="332" y="634" on="0"/>
        <pt x="266" y="646" on="0"/>
        <pt x="233" y="653" on="1"/>
        <pt x="231" y="653" on="0"/>
        <pt x="221" y="657" on="0"/>
        <pt x="221" y="659" on="1"/>
        <pt x="219" y="662" on="0"/>
        <pt x="230" y="666" on="0"/>
        <pt x="232" y="666" on="1"/>
        <pt x="239" y="668" on="0"/>
        <pt x="262" y="671" on="0"/>
        <pt x="288" y="673" on="0"/>
        <pt x="311" y="673" on="0"/>
        <pt x="319" y="673" on="1"/>
        <pt x="341" y="671" on="0"/>
        <pt x="388" y="671" on="0"/>
        <pt x="430" y="675" on="0"/>
        <pt x="465" y="685" on="0"/>
        <pt x="475" y="693" on="1"/>
        <pt x="482" y="698" on="0"/>
        <pt x="480" y="689" on="0"/>
      </contour>
      <contour>
        <pt x="489" y="721" on="1"/>
        <pt x="463" y="698" on="0"/>
        <pt x="401" y="686" on="0"/>
        <pt x="334" y="689" on="0"/>
        <pt x="263" y="698" on="0"/>
        <pt x="227" y="696" on="1"/>
        <pt x="206" y="695" on="0"/>
        <pt x="160" y="681" on="0"/>
        <pt x="119" y="656" on="0"/>
        <pt x="86" y="617" on="0"/>
        <pt x="77" y="592" on="1"/>
        <pt x="75" y="588" on="0"/>
        <pt x="74" y="588" on="0"/>
        <pt x="73" y="590" on="0"/>
        <pt x="73" y="594" on="0"/>
        <pt x="73" y="595" on="1"/>
        <pt x="79" y="631" on="0"/>
        <pt x="111" y="681" on="0"/>
        <pt x="155" y="712" on="0"/>
        <pt x="207" y="726" on="0"/>
        <pt x="233" y="727" on="1"/>
        <pt x="269" y="728" on="0"/>
        <pt x="338" y="721" on="0"/>
        <pt x="403" y="715" on="0"/>
        <pt x="463" y="716" on="0"/>
        <pt x="489" y="726" on="1"/>
        <pt x="494" y="728" on="0"/>
        <pt x="490" y="722" on="0"/>
      </contour>
      <contour>
        <pt x="160" y="648" on="1"/>
        <pt x="162" y="645" on="0"/>
        <pt x="146" y="631" on="0"/>
        <pt x="142" y="629" on="1"/>
        <pt x="134" y="623" on="0"/>
        <pt x="120" y="612" on="0"/>
        <pt x="114" y="604" on="1"/>
        <pt x="106" y="595" on="0"/>
        <pt x="95" y="577" on="0"/>
        <pt x="90" y="566" on="1"/>
        <pt x="88" y="559" on="0"/>
        <pt x="86" y="559" on="1"/>
        <pt x="85" y="559" on="0"/>
        <pt x="85" y="566" on="1"/>
        <pt x="85" y="573" on="1"/>
        <pt x="87" y="588" on="0"/>
        <pt x="95" y="612" on="0"/>
        <pt x="105" y="625" on="1"/>
        <pt x="109" y="631" on="0"/>
        <pt x="128" y="642" on="0"/>
        <pt x="146" y="650" on="0"/>
        <pt x="160" y="652" on="0"/>
      </contour>
      <contour>
        <pt x="432" y="621" on="1"/>
        <pt x="419" y="606" on="0"/>
        <pt x="370" y="592" on="0"/>
        <pt x="314" y="587" on="0"/>
        <pt x="259" y="589" on="0"/>
        <pt x="241" y="589" on="1"/>
        <pt x="247" y="569" on="0"/>
        <pt x="246" y="512" on="0"/>
        <pt x="237" y="447" on="0"/>
        <pt x="223" y="381" on="0"/>
        <pt x="216" y="352" on="1"/>
        <pt x="243" y="350" on="0"/>
        <pt x="295" y="343" on="0"/>
        <pt x="343" y="340" on="0"/>
        <pt x="387" y="343" on="0"/>
        <pt x="408" y="351" on="1"/>
        <pt x="413" y="353" on="0"/>
        <pt x="413" y="347" on="0"/>
        <pt x="411" y="345" on="1"/>
        <pt x="387" y="321" on="0"/>
        <pt x="329" y="309" on="0"/>
        <pt x="265" y="313" on="0"/>
        <pt x="199" y="323" on="0"/>
        <pt x="166" y="322" on="1"/>
        <pt x="145" y="321" on="0"/>
        <pt x="103" y="309" on="0"/>
        <pt x="64" y="285" on="0"/>
        <pt x="31" y="250" on="0"/>
        <pt x="21" y="226" on="1"/>
        <pt x="20" y="222" on="0"/>
        <pt x="18" y="222" on="1"/>
        <pt x="16" y="222" on="0"/>
        <pt x="16" y="229" on="0"/>
        <pt x="17" y="231" on="1"/>
        <pt x="22" y="260" on="0"/>
        <pt x="46" y="298" on="0"/>
        <pt x="63" y="312" on="1"/>
        <pt x="80" y="384" on="0"/>
        <pt x="123" y="528" on="0"/>
        <pt x="137" y="592" on="1"/>
        <pt x="136" y="592" on="0"/>
        <pt x="125" y="593" on="0"/>
        <pt x="125" y="595" on="1"/>
        <pt x="125" y="597" on="0"/>
        <pt x="131" y="601" on="0"/>
        <pt x="134" y="603" on="1"/>
        <pt x="176" y="623" on="0"/>
        <pt x="264" y="626" on="0"/>
        <pt x="310" y="622" on="1"/>
        <pt x="339" y="620" on="0"/>
        <pt x="398" y="616" on="0"/>
        <pt x="430" y="626" on="1"/>
        <pt x="435" y="628" on="0"/>
        <pt x="434" y="623" on="0"/>
      </contour>
      <contour>
        <pt x="401" y="311" on="1"/>
        <pt x="393" y="297" on="0"/>
        <pt x="368" y="275" on="0"/>
        <pt x="340" y="262" on="0"/>
        <pt x="311" y="255" on="0"/>
        <pt x="300" y="256" on="1"/>
        <pt x="269" y="258" on="0"/>
        <pt x="201" y="271" on="0"/>
        <pt x="170" y="278" on="1"/>
        <pt x="168" y="279" on="0"/>
        <pt x="159" y="282" on="0"/>
        <pt x="159" y="285" on="1"/>
        <pt x="158" y="287" on="0"/>
        <pt x="167" y="292" on="0"/>
        <pt x="169" y="292" on="1"/>
        <pt x="176" y="294" on="0"/>
        <pt x="197" y="296" on="0"/>
        <pt x="220" y="298" on="0"/>
        <pt x="241" y="297" on="0"/>
        <pt x="248" y="296" on="1"/>
        <pt x="266" y="294" on="0"/>
        <pt x="309" y="294" on="0"/>
        <pt x="352" y="300" on="0"/>
        <pt x="388" y="310" on="0"/>
        <pt x="399" y="318" on="1"/>
        <pt x="404" y="322" on="0"/>
        <pt x="403" y="313" on="0"/>
      </contour>
      <contour>
        <pt x="422" y="125" on="1"/>
        <pt x="400" y="101" on="0"/>
        <pt x="347" y="89" on="0"/>
        <pt x="289" y="92" on="0"/>
        <pt x="229" y="104" on="0"/>
        <pt x="200" y="104" on="1"/>
        <pt x="163" y="105" on="0"/>
        <pt x="86" y="69" on="0"/>
        <pt x="60" y="25" on="1"/>
        <pt x="57" y="21" on="0"/>
        <pt x="56" y="21" on="1"/>
        <pt x="55" y="21" on="0"/>
        <pt x="56" y="27" on="0"/>
        <pt x="56" y="28" on="1"/>
        <pt x="60" y="39" on="0"/>
        <pt x="67" y="51" on="0"/>
        <pt x="71" y="59" on="1"/>
        <pt x="57" y="87" on="0"/>
        <pt x="43" y="144" on="0"/>
        <pt x="44" y="175" on="1"/>
        <pt x="45" y="192" on="0"/>
        <pt x="52" y="220" on="0"/>
        <pt x="75" y="232" on="1"/>
        <pt x="113" y="252" on="0"/>
        <pt x="199" y="252" on="0"/>
        <pt x="242" y="247" on="1"/>
        <pt x="270" y="244" on="0"/>
        <pt x="326" y="241" on="0"/>
        <pt x="356" y="251" on="1"/>
        <pt x="361" y="253" on="0"/>
        <pt x="359" y="246" on="0"/>
        <pt x="357" y="244" on="1"/>
        <pt x="344" y="228" on="0"/>
        <pt x="298" y="216" on="0"/>
        <pt x="246" y="213" on="0"/>
        <pt x="198" y="215" on="0"/>
        <pt x="184" y="214" on="1"/>
        <pt x="178" y="214" on="1"/>
        <pt x="171" y="190" on="0"/>
        <pt x="156" y="147" on="0"/>
        <pt x="149" y="127" on="1"/>
        <pt x="164" y="132" on="0"/>
        <pt x="191" y="137" on="0"/>
        <pt x="206" y="136" on="1"/>
        <pt x="235" y="135" on="0"/>
        <pt x="293" y="125" on="0"/>
        <pt x="348" y="118" on="0"/>
        <pt x="399" y="119" on="0"/>
        <pt x="421" y="130" on="1"/>
        <pt x="423" y="131" on="0"/>
        <pt x="423" y="129" on="1"/>
        <pt x="423" y="127" on="0"/>
      </contour>
      <contour>
        <pt x="414" y="97" on="1"/>
        <pt x="414" y="94" on="0"/>
        <pt x="412" y="90" on="1"/>
        <pt x="406" y="76" on="0"/>
        <pt x="384" y="55" on="0"/>
        <pt x="358" y="41" on="0"/>
        <pt x="331" y="34" on="0"/>
        <pt x="321" y="34" on="1"/>
        <pt x="286" y="34" on="0"/>
        <pt x="229" y="50" on="0"/>
        <pt x="201" y="60" on="1"/>
        <pt x="199" y="61" on="0"/>
        <pt x="191" y="65" on="0"/>
        <pt x="190" y="68" on="1"/>
        <pt x="189" y="70" on="0"/>
        <pt x="199" y="74" on="0"/>
        <pt x="201" y="74" on="1"/>
        <pt x="207" y="75" on="0"/>
        <pt x="226" y="76" on="0"/>
        <pt x="247" y="76" on="0"/>
        <pt x="267" y="75" on="0"/>
        <pt x="274" y="75" on="1"/>
        <pt x="291" y="74" on="0"/>
        <pt x="331" y="74" on="0"/>
        <pt x="369" y="78" on="0"/>
        <pt x="401" y="88" on="0"/>
        <pt x="410" y="97" on="1"/>
        <pt x="413" y="100" on="0"/>
      </contour>
      <contour>
        <pt x="103" y="277" on="1"/>
        <pt x="103" y="274" on="0"/>
        <pt x="90" y="262" on="0"/>
        <pt x="73" y="248" on="0"/>
        <pt x="58" y="236" on="0"/>
        <pt x="56" y="234" on="1"/>
        <pt x="48" y="226" on="0"/>
        <pt x="34" y="211" on="0"/>
        <pt x="29" y="200" on="1"/>
        <pt x="24" y="191" on="0"/>
        <pt x="24" y="204" on="0"/>
        <pt x="25" y="207" on="1"/>
        <pt x="27" y="215" on="0"/>
        <pt x="36" y="242" on="0"/>
        <pt x="49" y="255" on="1"/>
        <pt x="55" y="260" on="0"/>
        <pt x="72" y="271" on="0"/>
        <pt x="89" y="278" on="0"/>
        <pt x="102" y="280" on="0"/>
      </contour>
      <contour>
        <pt x="377" y="29" on="1"/>
        <pt x="378" y="27" on="0"/>
        <pt x="375" y="25" on="0"/>
        <pt x="374" y="23" on="1"/>
        <pt x="363" y="14" on="0"/>
        <pt x="319" y="3" on="0"/>
        <pt x="296" y="1" on="1"/>
        <pt x="296" y="-19" on="0"/>
        <pt x="291" y="-45" on="0"/>
        <pt x="281" y="-68" on="0"/>
        <pt x="266" y="-91" on="0"/>
        <pt x="256" y="-109" on="1"/>
        <pt x="246" y="-126" on="0"/>
        <pt x="234" y="-169" on="0"/>
        <pt x="232" y="-198" on="1"/>
        <pt x="232" y="-200" on="0"/>
        <pt x="229" y="-203" on="0"/>
        <pt x="227" y="-202" on="1"/>
        <pt x="218" y="-192" on="0"/>
        <pt x="213" y="-168" on="0"/>
        <pt x="214" y="-154" on="1"/>
        <pt x="215" y="-134" on="0"/>
        <pt x="229" y="-98" on="0"/>
        <pt x="248" y="-65" on="0"/>
        <pt x="270" y="-31" on="0"/>
        <pt x="279" y="-13" on="1"/>
        <pt x="285" y="-1" on="0"/>
        <pt x="290" y="22" on="0"/>
        <pt x="301" y="21" on="1"/>
        <pt x="318" y="19" on="0"/>
        <pt x="349" y="21" on="0"/>
        <pt x="371" y="29" on="1"/>
        <pt x="377" y="31" on="0"/>
      </contour>
      <contour>
        <pt x="304" y="-200" on="1"/>
        <pt x="304" y="-205" on="0"/>
        <pt x="289" y="-207" on="0"/>
        <pt x="286" y="-207" on="1"/>
        <pt x="263" y="-207" on="0"/>
        <pt x="246" y="-185" on="0"/>
        <pt x="247" y="-166" on="1"/>
        <pt x="247" y="-157" on="0"/>
        <pt x="257" y="-131" on="0"/>
        <pt x="272" y="-102" on="0"/>
        <pt x="289" y="-74" on="0"/>
        <pt x="295" y="-63" on="1"/>
        <pt x="298" y="-53" on="0"/>
        <pt x="300" y="-59" on="1"/>
        <pt x="301" y="-64" on="0"/>
        <pt x="300" y="-71" on="0"/>
        <pt x="300" y="-76" on="1"/>
        <pt x="300" y="-88" on="0"/>
        <pt x="292" y="-110" on="0"/>
        <pt x="283" y="-131" on="0"/>
        <pt x="275" y="-152" on="0"/>
        <pt x="274" y="-165" on="1"/>
        <pt x="273" y="-177" on="0"/>
        <pt x="282" y="-189" on="0"/>
        <pt x="294" y="-195" on="0"/>
        <pt x="304" y="-198" on="0"/>
      </contour>
      <contour>
        <pt x="140" y="63" on="1"/>
        <pt x="140" y="60" on="0"/>
        <pt x="127" y="51" on="0"/>
        <pt x="111" y="41" on="0"/>
        <pt x="96" y="32" on="0"/>
        <pt x="93" y="30" on="1"/>
        <pt x="85" y="23" on="0"/>
        <pt x="73" y="13" on="0"/>
        <pt x="67" y="5" on="1"/>
        <pt x="62" y="0" on="0"/>
        <pt x="60" y="0" on="1"/>
        <pt x="59" y="0" on="1"/>
        <pt x="59" y="1" on="1"/>
        <pt x="58" y="2" on="0"/>
        <pt x="59" y="3" on="1"/>
        <pt x="64" y="18" on="0"/>
        <pt x="75" y="38" on="0"/>
        <pt x="89" y="49" on="1"/>
        <pt x="95" y="53" on="0"/>
        <pt x="111" y="62" on="0"/>
        <pt x="127" y="67" on="0"/>
        <pt x="139" y="67" on="0"/>
      </contour>
      <contour>
        <pt x="353" y="-203" on="1"/>
        <pt x="353" y="-219" on="0"/>
        <pt x="336" y="-248" on="0"/>
        <pt x="309" y="-269" on="0"/>
        <pt x="276" y="-281" on="0"/>
        <pt x="260" y="-281" on="1"/>
        <pt x="234" y="-281" on="0"/>
        <pt x="194" y="-262" on="0"/>
        <pt x="167" y="-231" on="0"/>
        <pt x="154" y="-190" on="0"/>
        <pt x="156" y="-168" on="1"/>
        <pt x="158" y="-138" on="0"/>
        <pt x="176" y="-94" on="0"/>
        <pt x="203" y="-57" on="0"/>
        <pt x="237" y="-21" on="0"/>
        <pt x="255" y="0" on="1"/>
        <pt x="210" y="0" on="1"/>
        <pt x="185" y="0" on="0"/>
        <pt x="130" y="7" on="0"/>
        <pt x="110" y="12" on="1"/>
        <pt x="108" y="12" on="0"/>
        <pt x="101" y="14" on="0"/>
        <pt x="101" y="16" on="1"/>
        <pt x="101" y="18" on="0"/>
        <pt x="108" y="21" on="0"/>
        <pt x="110" y="22" on="1"/>
        <pt x="146" y="34" on="0"/>
        <pt x="232" y="33" on="0"/>
        <pt x="273" y="25" on="1"/>
        <pt x="278" y="23" on="0"/>
        <pt x="278" y="13" on="0"/>
        <pt x="277" y="8" on="1"/>
        <pt x="270" y="-13" on="0"/>
        <pt x="243" y="-51" on="0"/>
        <pt x="215" y="-92" on="0"/>
        <pt x="193" y="-137" on="0"/>
        <pt x="192" y="-165" on="1"/>
        <pt x="191" y="-182" on="0"/>
        <pt x="200" y="-215" on="0"/>
        <pt x="220" y="-240" on="0"/>
        <pt x="250" y="-255" on="0"/>
        <pt x="270" y="-255" on="1"/>
        <pt x="291" y="-255" on="0"/>
        <pt x="320" y="-240" on="0"/>
        <pt x="338" y="-221" on="0"/>
        <pt x="347" y="-204" on="0"/>
        <pt x="348" y="-202" on="1"/>
        <pt x="350" y="-197" on="0"/>
        <pt x="353" y="-199" on="0"/>
      </contour>
      <contour>
        <pt x="345" y="-181" on="1"/>
        <pt x="342" y="-207" on="0"/>
        <pt x="311" y="-236" on="0"/>
        <pt x="282" y="-236" on="1"/>
        <pt x="279" y="-236" on="0"/>
        <pt x="273" y="-234" on="0"/>
        <pt x="273" y="-231" on="1"/>
        <pt x="273" y="-229" on="0"/>
        <pt x="282" y="-224" on="0"/>
        <pt x="293" y="-220" on="0"/>
        <pt x="304" y="-216" on="0"/>
        <pt x="306" y="-215" on="1"/>
        <pt x="320" y="-207" on="0"/>
        <pt x="336" y="-185" on="0"/>
        <pt x="341" y="-178" on="1"/>
        <pt x="342" y="-176" on="0"/>
        <pt x="345" y="-176" on="0"/>
      </contour>
      <contour>
        <pt x="233" y="589" on="1"/>
        <pt x="210" y="589" on="1"/>
        <pt x="211" y="564" on="0"/>
        <pt x="209" y="520" on="0"/>
        <pt x="204" y="503" on="1"/>
        <pt x="195" y="467" on="0"/>
        <pt x="173" y="389" on="0"/>
        <pt x="159" y="352" on="1"/>
        <pt x="163" y="353" on="0"/>
        <pt x="173" y="353" on="0"/>
        <pt x="178" y="353" on="1"/>
        <pt x="193" y="400" on="1"/>
        <pt x="207" y="444" on="0"/>
        <pt x="230" y="538" on="0"/>
      </contour>
      <contour>
        <pt x="186" y="590" on="1"/>
        <pt x="167" y="590" on="1"/>
        <pt x="159" y="530" on="0"/>
        <pt x="117" y="404" on="0"/>
        <pt x="100" y="338" on="1"/>
        <pt x="108" y="341" on="0"/>
        <pt x="121" y="346" on="0"/>
        <pt x="127" y="348" on="1"/>
        <pt x="132" y="368" on="0"/>
        <pt x="142" y="405" on="0"/>
        <pt x="147" y="419" on="1"/>
        <pt x="149" y="425" on="0"/>
        <pt x="159" y="459" on="0"/>
        <pt x="171" y="507" on="0"/>
        <pt x="183" y="563" on="0"/>
      </contour>
      <contour>
        <pt x="144" y="215" on="1"/>
        <pt x="138" y="216" on="0"/>
        <pt x="113" y="219" on="0"/>
        <pt x="98" y="217" on="1"/>
        <pt x="88" y="216" on="0"/>
        <pt x="74" y="202" on="0"/>
        <pt x="73" y="192" on="1"/>
        <pt x="71" y="162" on="0"/>
        <pt x="77" y="107" on="0"/>
        <pt x="84" y="78" on="1"/>
        <pt x="96" y="93" on="1"/>
        <pt x="95" y="105" on="0"/>
        <pt x="95" y="133" on="0"/>
        <pt x="98" y="156" on="0"/>
        <pt x="102" y="170" on="0"/>
        <pt x="105" y="170" on="1"/>
        <pt x="107" y="170" on="0"/>
        <pt x="109" y="160" on="0"/>
        <pt x="111" y="148" on="0"/>
        <pt x="112" y="136" on="0"/>
        <pt x="112" y="133" on="1"/>
        <pt x="113" y="127" on="0"/>
        <pt x="114" y="116" on="0"/>
        <pt x="115" y="110" on="1"/>
        <pt x="120" y="113" on="0"/>
        <pt x="128" y="119" on="0"/>
        <pt x="133" y="121" on="1"/>
        <pt x="134" y="166" on="0"/>
      </contour>
    </TTGlyph>
    <TTGlyph name="Eth" xMin="-29" yMin="-17" xMax="576" yMax="739">
      <contour>
        <pt x="126" y="282" on="1"/>
        <pt x="128" y="302" on="1"/>
        <pt x="114" y="302" on="0"/>
        <pt x="101" y="305" on="1"/>
        <pt x="99" y="300" on="0"/>
        <pt x="96" y="291" on="0"/>
        <pt x="96" y="289" on="1"/>
        <pt x="86" y="258" on="0"/>
        <pt x="77" y="188" on="0"/>
        <pt x="80" y="117" on="0"/>
        <pt x="95" y="49" on="0"/>
        <pt x="110" y="21" on="1"/>
        <pt x="113" y="13" on="0"/>
        <pt x="123" y="8" on="0"/>
        <pt x="127" y="12" on="1"/>
        <pt x="122" y="20" on="0"/>
        <pt x="107" y="55" on="0"/>
        <pt x="103" y="79" on="1"/>
        <pt x="101" y="91" on="0"/>
        <pt x="100" y="121" on="0"/>
        <pt x="102" y="148" on="0"/>
        <pt x="106" y="166" on="0"/>
        <pt x="110" y="166" on="1"/>
        <pt x="111" y="166" on="0"/>
        <pt x="114" y="155" on="0"/>
        <pt x="117" y="141" on="0"/>
        <pt x="118" y="128" on="0"/>
        <pt x="118" y="125" on="1"/>
        <pt x="120" y="99" on="0"/>
        <pt x="129" y="47" on="0"/>
        <pt x="138" y="23" on="1"/>
        <pt x="173" y="66" on="0"/>
        <pt x="263" y="154" on="0"/>
        <pt x="349" y="245" on="0"/>
        <pt x="420" y="341" on="0"/>
        <pt x="436" y="392" on="1"/>
        <pt x="447" y="427" on="0"/>
        <pt x="434" y="503" on="0"/>
        <pt x="415" y="534" on="1"/>
        <pt x="396" y="564" on="0"/>
        <pt x="326" y="604" on="0"/>
        <pt x="284" y="612" on="1"/>
        <pt x="267" y="615" on="0"/>
        <pt x="234" y="619" on="0"/>
        <pt x="216" y="619" on="1"/>
        <pt x="219" y="604" on="0"/>
        <pt x="220" y="569" on="0"/>
        <pt x="219" y="535" on="0"/>
        <pt x="214" y="504" on="0"/>
        <pt x="211" y="492" on="1"/>
        <pt x="193" y="433" on="1"/>
        <pt x="209" y="430" on="1"/>
        <pt x="220" y="468" on="0"/>
        <pt x="236" y="546" on="0"/>
        <pt x="238" y="590" on="1"/>
        <pt x="238" y="595" on="0"/>
        <pt x="239" y="596" on="0"/>
        <pt x="241" y="597" on="1"/>
        <pt x="242" y="597" on="0"/>
        <pt x="242" y="592" on="0"/>
        <pt x="244" y="590" on="1"/>
        <pt x="255" y="562" on="0"/>
        <pt x="250" y="474" on="0"/>
        <pt x="240" y="426" on="1"/>
        <pt x="272" y="421" on="0"/>
        <pt x="332" y="421" on="0"/>
        <pt x="358" y="433" on="1"/>
        <pt x="359" y="433" on="0"/>
        <pt x="363" y="430" on="0"/>
        <pt x="358" y="425" on="1"/>
        <pt x="335" y="402" on="0"/>
        <pt x="280" y="391" on="0"/>
        <pt x="219" y="396" on="0"/>
        <pt x="156" y="408" on="0"/>
        <pt x="125" y="409" on="1"/>
        <pt x="87" y="411" on="0"/>
        <pt x="4" y="375" on="0"/>
        <pt x="-25" y="329" on="1"/>
        <pt x="-26" y="327" on="0"/>
        <pt x="-29" y="329" on="0"/>
        <pt x="-27" y="332" on="1"/>
        <pt x="-5" y="389" on="0"/>
        <pt x="67" y="435" on="0"/>
        <pt x="106" y="438" on="1"/>
        <pt x="120" y="485" on="0"/>
        <pt x="145" y="574" on="0"/>
        <pt x="153" y="616" on="1"/>
        <pt x="100" y="610" on="0"/>
        <pt x="14" y="573" on="0"/>
        <pt x="0" y="547" on="1"/>
        <pt x="0" y="544" on="1"/>
        <pt x="-2" y="543" on="0"/>
        <pt x="0" y="549" on="0"/>
        <pt x="0" y="551" on="1"/>
        <pt x="10" y="579" on="0"/>
        <pt x="72" y="620" on="0"/>
        <pt x="156" y="644" on="0"/>
        <pt x="254" y="649" on="0"/>
        <pt x="301" y="641" on="1"/>
        <pt x="352" y="632" on="0"/>
        <pt x="427" y="573" on="0"/>
        <pt x="470" y="494" on="0"/>
        <pt x="477" y="404" on="0"/>
        <pt x="459" y="363" on="1"/>
        <pt x="437" y="311" on="0"/>
        <pt x="359" y="215" on="0"/>
        <pt x="267" y="127" on="0"/>
        <pt x="173" y="45" on="0"/>
        <pt x="134" y="8" on="1"/>
        <pt x="129" y="7" on="0"/>
        <pt x="121" y="4" on="0"/>
        <pt x="118" y="5" on="1"/>
        <pt x="113" y="7" on="0"/>
        <pt x="106" y="9" on="0"/>
        <pt x="101" y="15" on="1"/>
        <pt x="79" y="44" on="0"/>
        <pt x="57" y="117" on="0"/>
        <pt x="53" y="195" on="0"/>
        <pt x="62" y="274" on="0"/>
        <pt x="70" y="310" on="1"/>
        <pt x="29" y="318" on="1"/>
        <pt x="22" y="318" on="0"/>
        <pt x="22" y="322" on="1"/>
        <pt x="22" y="324" on="0"/>
        <pt x="29" y="327" on="0"/>
        <pt x="32" y="328" on="1"/>
        <pt x="71" y="339" on="0"/>
        <pt x="154" y="334" on="0"/>
        <pt x="196" y="329" on="1"/>
        <pt x="223" y="326" on="0"/>
        <pt x="278" y="321" on="0"/>
        <pt x="307" y="332" on="1"/>
        <pt x="310" y="333" on="0"/>
        <pt x="311" y="329" on="0"/>
        <pt x="309" y="327" on="1"/>
        <pt x="295" y="307" on="0"/>
        <pt x="238" y="296" on="0"/>
        <pt x="209" y="296" on="1"/>
        <pt x="204" y="279" on="1"/>
        <pt x="190" y="232" on="0"/>
        <pt x="158" y="135" on="0"/>
        <pt x="147" y="99" on="1"/>
        <pt x="142" y="85" on="0"/>
        <pt x="140" y="85" on="1"/>
        <pt x="137" y="85" on="0"/>
        <pt x="136" y="96" on="0"/>
        <pt x="137" y="101" on="1"/>
        <pt x="139" y="151" on="0"/>
        <pt x="157" y="248" on="0"/>
        <pt x="171" y="298" on="1"/>
        <pt x="147" y="301" on="1"/>
        <pt x="141" y="288" on="0"/>
        <pt x="138" y="279" on="1"/>
        <pt x="136" y="276" on="0"/>
        <pt x="129" y="263" on="0"/>
        <pt x="127" y="263" on="1"/>
        <pt x="125" y="263" on="0"/>
        <pt x="125" y="279" on="0"/>
      </contour>
      <contour>
        <pt x="562" y="355" on="1"/>
        <pt x="543" y="299" on="0"/>
        <pt x="481" y="209" on="0"/>
        <pt x="408" y="138" on="0"/>
        <pt x="332" y="86" on="0"/>
        <pt x="299" y="68" on="1"/>
        <pt x="289" y="63" on="0"/>
        <pt x="275" y="57" on="0"/>
        <pt x="275" y="59" on="1"/>
        <pt x="273" y="60" on="0"/>
        <pt x="288" y="71" on="0"/>
        <pt x="296" y="77" on="1"/>
        <pt x="352" y="122" on="0"/>
        <pt x="457" y="222" on="0"/>
        <pt x="499" y="286" on="1"/>
        <pt x="520" y="319" on="0"/>
        <pt x="542" y="398" on="0"/>
        <pt x="542" y="482" on="0"/>
        <pt x="519" y="564" on="0"/>
        <pt x="495" y="599" on="1"/>
        <pt x="463" y="645" on="0"/>
        <pt x="372" y="699" on="0"/>
        <pt x="268" y="720" on="0"/>
        <pt x="158" y="712" on="0"/>
        <pt x="107" y="697" on="1"/>
        <pt x="99" y="695" on="0"/>
        <pt x="97" y="693" on="0"/>
        <pt x="95" y="695" on="1"/>
        <pt x="95" y="697" on="0"/>
        <pt x="102" y="701" on="0"/>
        <pt x="105" y="703" on="1"/>
        <pt x="127" y="715" on="0"/>
        <pt x="197" y="735" on="0"/>
        <pt x="285" y="739" on="0"/>
        <pt x="385" y="720" on="0"/>
        <pt x="436" y="693" on="1"/>
        <pt x="491" y="663" on="0"/>
        <pt x="552" y="571" on="0"/>
        <pt x="576" y="474" on="0"/>
        <pt x="572" y="383" on="0"/>
      </contour>
      <contour>
        <pt x="497" y="348" on="1"/>
        <pt x="496" y="345" on="0"/>
        <pt x="491" y="335" on="0"/>
        <pt x="485" y="324" on="0"/>
        <pt x="479" y="317" on="0"/>
        <pt x="478" y="318" on="1"/>
        <pt x="478" y="318" on="0"/>
        <pt x="480" y="328" on="0"/>
        <pt x="483" y="340" on="0"/>
        <pt x="486" y="351" on="0"/>
        <pt x="486" y="353" on="1"/>
        <pt x="501" y="433" on="0"/>
        <pt x="471" y="549" on="0"/>
        <pt x="400" y="623" on="0"/>
        <pt x="297" y="659" on="0"/>
        <pt x="240" y="660" on="1"/>
        <pt x="199" y="660" on="0"/>
        <pt x="120" y="647" on="0"/>
        <pt x="55" y="627" on="0"/>
        <pt x="10" y="603" on="0"/>
        <pt x="4" y="592" on="1"/>
        <pt x="1" y="587" on="0"/>
        <pt x="0" y="581" on="0"/>
        <pt x="0" y="582" on="1"/>
        <pt x="0" y="595" on="1"/>
        <pt x="8" y="621" on="0"/>
        <pt x="77" y="665" on="0"/>
        <pt x="169" y="693" on="0"/>
        <pt x="270" y="702" on="0"/>
        <pt x="311" y="692" on="1"/>
        <pt x="338" y="686" on="0"/>
        <pt x="392" y="664" on="0"/>
        <pt x="441" y="633" on="0"/>
        <pt x="482" y="590" on="0"/>
        <pt x="496" y="562" on="1"/>
        <pt x="523" y="508" on="0"/>
        <pt x="522" y="393" on="0"/>
      </contour>
      <contour>
        <pt x="253" y="337" on="1"/>
        <pt x="223" y="339" on="0"/>
        <pt x="156" y="354" on="0"/>
        <pt x="127" y="365" on="1"/>
        <pt x="125" y="366" on="0"/>
        <pt x="116" y="370" on="0"/>
        <pt x="116" y="373" on="1"/>
        <pt x="116" y="376" on="0"/>
        <pt x="125" y="379" on="0"/>
        <pt x="127" y="379" on="1"/>
        <pt x="141" y="382" on="0"/>
        <pt x="186" y="381" on="0"/>
        <pt x="200" y="379" on="1"/>
        <pt x="212" y="377" on="0"/>
        <pt x="254" y="377" on="0"/>
        <pt x="298" y="381" on="0"/>
        <pt x="338" y="391" on="0"/>
        <pt x="347" y="399" on="1"/>
        <pt x="351" y="403" on="0"/>
        <pt x="353" y="401" on="0"/>
        <pt x="352" y="397" on="0"/>
        <pt x="350" y="391" on="0"/>
        <pt x="350" y="391" on="1"/>
        <pt x="343" y="377" on="0"/>
        <pt x="319" y="356" on="0"/>
        <pt x="292" y="343" on="0"/>
        <pt x="264" y="336" on="0"/>
      </contour>
      <contour>
        <pt x="363" y="175" on="1"/>
        <pt x="364" y="174" on="0"/>
        <pt x="354" y="161" on="0"/>
        <pt x="339" y="143" on="0"/>
        <pt x="324" y="127" on="0"/>
        <pt x="321" y="123" on="1"/>
        <pt x="299" y="103" on="0"/>
        <pt x="261" y="64" on="0"/>
        <pt x="238" y="49" on="1"/>
        <pt x="144" y="-13" on="1"/>
        <pt x="142" y="-14" on="0"/>
        <pt x="134" y="-17" on="0"/>
        <pt x="133" y="-15" on="1"/>
        <pt x="131" y="-14" on="0"/>
        <pt x="133" y="-9" on="1"/>
        <pt x="134" y="-7" on="0"/>
        <pt x="136" y="-4" on="1"/>
        <pt x="153" y="8" on="0"/>
        <pt x="196" y="44" on="0"/>
        <pt x="219" y="63" on="1"/>
        <pt x="236" y="76" on="0"/>
        <pt x="284" y="117" on="0"/>
        <pt x="328" y="153" on="0"/>
        <pt x="361" y="177" on="0"/>
      </contour>
      <contour>
        <pt x="178" y="619" on="1"/>
        <pt x="176" y="574" on="0"/>
        <pt x="153" y="485" on="0"/>
        <pt x="139" y="438" on="1"/>
        <pt x="144" y="438" on="0"/>
        <pt x="154" y="438" on="0"/>
        <pt x="159" y="437" on="1"/>
        <pt x="163" y="453" on="0"/>
        <pt x="172" y="498" on="0"/>
        <pt x="181" y="547" on="0"/>
        <pt x="188" y="597" on="0"/>
        <pt x="190" y="619" on="1"/>
      </contour>
      <contour>
        <pt x="13" y="333" on="1"/>
        <pt x="5" y="326" on="0"/>
        <pt x="-12" y="310" on="0"/>
        <pt x="-20" y="299" on="1"/>
        <pt x="-25" y="296" on="0"/>
        <pt x="-25" y="298" on="1"/>
        <pt x="-25" y="304" on="0"/>
        <pt x="-24" y="305" on="1"/>
        <pt x="-24" y="306" on="0"/>
        <pt x="-23" y="307" on="1"/>
        <pt x="-19" y="323" on="0"/>
        <pt x="-5" y="343" on="0"/>
        <pt x="9" y="355" on="1"/>
        <pt x="15" y="359" on="0"/>
        <pt x="32" y="368" on="0"/>
        <pt x="48" y="373" on="0"/>
        <pt x="60" y="373" on="0"/>
        <pt x="61" y="369" on="1"/>
        <pt x="62" y="365" on="0"/>
        <pt x="46" y="356" on="0"/>
        <pt x="43" y="354" on="1"/>
        <pt x="26" y="343" on="0"/>
      </contour>
    </TTGlyph>
    <TTGlyph name="Euro" xMin="26" yMin="-25" xMax="499" yMax="589">
      <contour>
        <pt x="100" y="190" on="1"/>
        <pt x="103" y="190" on="0"/>
        <pt x="107" y="186" on="1"/>
        <pt x="107" y="184" on="1"/>
        <pt x="99" y="177" on="0"/>
        <pt x="72" y="158" on="0"/>
        <pt x="67" y="153" on="1"/>
        <pt x="56" y="146" on="0"/>
        <pt x="42" y="127" on="0"/>
        <pt x="34" y="118" on="1"/>
        <pt x="30" y="116" on="1"/>
        <pt x="30" y="129" on="0"/>
        <pt x="42" y="156" on="0"/>
        <pt x="62" y="177" on="0"/>
        <pt x="87" y="190" on="0"/>
      </contour>
      <contour>
        <pt x="84" y="233" on="1"/>
        <pt x="83" y="236" on="0"/>
        <pt x="85" y="248" on="0"/>
        <pt x="88" y="263" on="0"/>
        <pt x="92" y="276" on="0"/>
        <pt x="93" y="279" on="1"/>
        <pt x="93" y="281" on="1"/>
        <pt x="93" y="284" on="0"/>
        <pt x="88" y="287" on="0"/>
        <pt x="86" y="289" on="1"/>
        <pt x="90" y="295" on="1"/>
        <pt x="115" y="301" on="0"/>
        <pt x="164" y="306" on="0"/>
        <pt x="189" y="306" on="1"/>
        <pt x="222" y="306" on="0"/>
        <pt x="289" y="300" on="0"/>
        <pt x="322" y="300" on="1"/>
        <pt x="348" y="300" on="0"/>
        <pt x="387" y="311" on="0"/>
        <pt x="411" y="315" on="1"/>
        <pt x="411" y="311" on="0"/>
        <pt x="405" y="305" on="0"/>
        <pt x="401" y="301" on="1"/>
        <pt x="388" y="287" on="0"/>
        <pt x="346" y="273" on="0"/>
        <pt x="299" y="268" on="0"/>
        <pt x="251" y="269" on="0"/>
        <pt x="233" y="269" on="1"/>
        <pt x="230" y="256" on="1"/>
        <pt x="233" y="252" on="1"/>
        <pt x="247" y="252" on="0"/>
        <pt x="276" y="247" on="0"/>
        <pt x="292" y="247" on="1"/>
        <pt x="327" y="247" on="0"/>
        <pt x="358" y="263" on="1"/>
        <pt x="359" y="263" on="1"/>
        <pt x="360" y="262" on="1"/>
        <pt x="358" y="251" on="0"/>
        <pt x="336" y="232" on="0"/>
        <pt x="307" y="220" on="0"/>
        <pt x="276" y="214" on="0"/>
        <pt x="266" y="215" on="1"/>
        <pt x="240" y="218" on="0"/>
        <pt x="189" y="226" on="0"/>
        <pt x="163" y="226" on="1"/>
        <pt x="118" y="226" on="0"/>
        <pt x="52" y="182" on="0"/>
        <pt x="29" y="147" on="1"/>
        <pt x="26" y="147" on="1"/>
        <pt x="26" y="154" on="0"/>
        <pt x="40" y="179" on="0"/>
        <pt x="58" y="205" on="0"/>
        <pt x="78" y="227" on="0"/>
      </contour>
      <contour>
        <pt x="153" y="192" on="1"/>
        <pt x="153" y="196" on="0"/>
        <pt x="174" y="200" on="0"/>
        <pt x="200" y="201" on="0"/>
        <pt x="223" y="200" on="0"/>
        <pt x="226" y="200" on="1"/>
        <pt x="251" y="200" on="0"/>
        <pt x="303" y="205" on="0"/>
        <pt x="326" y="215" on="1"/>
        <pt x="332" y="217" on="0"/>
        <pt x="353" y="230" on="0"/>
        <pt x="358" y="232" on="1"/>
        <pt x="358" y="217" on="0"/>
        <pt x="341" y="191" on="0"/>
        <pt x="315" y="173" on="0"/>
        <pt x="284" y="162" on="0"/>
        <pt x="271" y="162" on="1"/>
        <pt x="263" y="162" on="0"/>
        <pt x="228" y="167" on="0"/>
        <pt x="191" y="174" on="0"/>
        <pt x="159" y="184" on="0"/>
        <pt x="153" y="190" on="1"/>
      </contour>
      <contour>
        <pt x="126" y="278" on="1"/>
        <pt x="121" y="252" on="1"/>
        <pt x="145" y="258" on="1"/>
        <pt x="147" y="261" on="0"/>
        <pt x="147" y="268" on="0"/>
        <pt x="147" y="271" on="1"/>
        <pt x="147" y="274" on="1"/>
        <pt x="147" y="277" on="0"/>
        <pt x="136" y="278" on="0"/>
        <pt x="134" y="278" on="1"/>
      </contour>
      <contour>
        <pt x="174" y="258" on="1"/>
        <pt x="192" y="258" on="1"/>
        <pt x="195" y="267" on="1"/>
        <pt x="195" y="270" on="1"/>
        <pt x="191" y="270" on="0"/>
        <pt x="185" y="271" on="0"/>
        <pt x="181" y="271" on="1"/>
        <pt x="176" y="271" on="0"/>
        <pt x="174" y="261" on="0"/>
      </contour>
      <contour>
        <pt x="123" y="337" on="1"/>
        <pt x="128" y="337" on="0"/>
        <pt x="130" y="334" on="1"/>
        <pt x="130" y="333" on="1"/>
        <pt x="126" y="327" on="1"/>
        <pt x="99" y="314" on="0"/>
        <pt x="56" y="285" on="0"/>
        <pt x="36" y="264" on="1"/>
        <pt x="33" y="264" on="1"/>
        <pt x="33" y="279" on="0"/>
        <pt x="51" y="306" on="0"/>
        <pt x="78" y="325" on="0"/>
        <pt x="109" y="337" on="0"/>
      </contour>
      <contour>
        <pt x="386" y="589" on="1"/>
        <pt x="417" y="589" on="0"/>
        <pt x="461" y="558" on="0"/>
        <pt x="487" y="510" on="0"/>
        <pt x="499" y="452" on="0"/>
        <pt x="499" y="426" on="1"/>
        <pt x="497" y="425" on="1"/>
        <pt x="493" y="429" on="1"/>
        <pt x="487" y="450" on="0"/>
        <pt x="473" y="497" on="0"/>
        <pt x="449" y="537" on="0"/>
        <pt x="414" y="564" on="0"/>
        <pt x="388" y="564" on="1"/>
        <pt x="358" y="564" on="0"/>
        <pt x="297" y="533" on="0"/>
        <pt x="242" y="486" on="0"/>
        <pt x="197" y="431" on="0"/>
        <pt x="182" y="407" on="1"/>
        <pt x="201" y="407" on="1"/>
        <pt x="206" y="411" on="1"/>
        <pt x="222" y="432" on="0"/>
        <pt x="257" y="481" on="0"/>
        <pt x="299" y="524" on="0"/>
        <pt x="349" y="552" on="0"/>
        <pt x="381" y="552" on="1"/>
        <pt x="400" y="552" on="0"/>
        <pt x="428" y="538" on="0"/>
        <pt x="448" y="514" on="0"/>
        <pt x="463" y="483" on="0"/>
        <pt x="469" y="467" on="1"/>
        <pt x="469" y="462" on="1"/>
        <pt x="469" y="458" on="0"/>
        <pt x="466" y="458" on="1"/>
        <pt x="456" y="465" on="0"/>
        <pt x="442" y="487" on="0"/>
        <pt x="427" y="508" on="0"/>
        <pt x="408" y="522" on="0"/>
        <pt x="392" y="522" on="1"/>
        <pt x="375" y="522" on="0"/>
        <pt x="334" y="495" on="0"/>
        <pt x="293" y="458" on="0"/>
        <pt x="258" y="419" on="0"/>
        <pt x="248" y="407" on="1"/>
        <pt x="251" y="406" on="0"/>
        <pt x="259" y="406" on="1"/>
        <pt x="263" y="406" on="0"/>
        <pt x="289" y="436" on="0"/>
        <pt x="325" y="472" on="0"/>
        <pt x="364" y="502" on="0"/>
        <pt x="381" y="503" on="1"/>
        <pt x="381" y="498" on="0"/>
        <pt x="376" y="494" on="0"/>
        <pt x="374" y="492" on="1"/>
        <pt x="360" y="478" on="0"/>
        <pt x="333" y="451" on="0"/>
        <pt x="322" y="437" on="1"/>
        <pt x="316" y="429" on="0"/>
        <pt x="305" y="410" on="0"/>
        <pt x="297" y="404" on="1"/>
        <pt x="297" y="403" on="1"/>
        <pt x="297" y="401" on="1"/>
        <pt x="313" y="401" on="0"/>
        <pt x="343" y="399" on="0"/>
        <pt x="359" y="399" on="1"/>
        <pt x="382" y="399" on="0"/>
        <pt x="428" y="407" on="0"/>
        <pt x="449" y="418" on="1"/>
        <pt x="451" y="418" on="1"/>
        <pt x="452" y="418" on="0"/>
        <pt x="453" y="416" on="0"/>
        <pt x="455" y="416" on="1"/>
        <pt x="448" y="402" on="0"/>
        <pt x="419" y="383" on="0"/>
        <pt x="384" y="372" on="0"/>
        <pt x="348" y="367" on="0"/>
        <pt x="334" y="367" on="1"/>
        <pt x="294" y="367" on="0"/>
        <pt x="214" y="374" on="0"/>
        <pt x="174" y="374" on="1"/>
        <pt x="157" y="374" on="0"/>
        <pt x="116" y="361" on="0"/>
        <pt x="77" y="339" on="0"/>
        <pt x="45" y="311" on="0"/>
        <pt x="36" y="296" on="1"/>
        <pt x="30" y="293" on="1"/>
        <pt x="30" y="299" on="1"/>
        <pt x="43" y="319" on="0"/>
        <pt x="62" y="347" on="0"/>
        <pt x="84" y="369" on="0"/>
        <pt x="113" y="387" on="0"/>
        <pt x="136" y="397" on="1"/>
        <pt x="138" y="400" on="1"/>
        <pt x="160" y="433" on="0"/>
        <pt x="209" y="500" on="0"/>
        <pt x="269" y="555" on="0"/>
        <pt x="341" y="589" on="0"/>
      </contour>
      <contour>
        <pt x="190" y="340" on="1"/>
        <pt x="193" y="343" on="0"/>
        <pt x="205" y="347" on="0"/>
        <pt x="219" y="350" on="0"/>
        <pt x="233" y="351" on="0"/>
        <pt x="237" y="351" on="1"/>
        <pt x="259" y="352" on="0"/>
        <pt x="305" y="351" on="0"/>
        <pt x="352" y="353" on="0"/>
        <pt x="397" y="361" on="0"/>
        <pt x="418" y="370" on="1"/>
        <pt x="424" y="372" on="0"/>
        <pt x="443" y="386" on="0"/>
        <pt x="448" y="386" on="1"/>
        <pt x="448" y="375" on="0"/>
        <pt x="428" y="349" on="0"/>
        <pt x="400" y="328" on="0"/>
        <pt x="370" y="314" on="0"/>
        <pt x="359" y="314" on="1"/>
        <pt x="304" y="314" on="1"/>
        <pt x="298" y="314" on="0"/>
        <pt x="263" y="318" on="0"/>
        <pt x="224" y="326" on="0"/>
        <pt x="192" y="335" on="0"/>
      </contour>
      <contour>
        <pt x="84" y="137" on="1"/>
        <pt x="81" y="138" on="0"/>
        <pt x="81" y="142" on="1"/>
        <pt x="81" y="148" on="0"/>
        <pt x="104" y="154" on="0"/>
        <pt x="133" y="156" on="0"/>
        <pt x="159" y="156" on="0"/>
        <pt x="163" y="156" on="1"/>
        <pt x="191" y="156" on="0"/>
        <pt x="245" y="152" on="0"/>
        <pt x="273" y="152" on="1"/>
        <pt x="278" y="152" on="0"/>
        <pt x="298" y="155" on="0"/>
        <pt x="309" y="157" on="1"/>
        <pt x="321" y="159" on="0"/>
        <pt x="336" y="162" on="1"/>
        <pt x="335" y="147" on="0"/>
        <pt x="307" y="130" on="0"/>
        <pt x="271" y="121" on="0"/>
        <pt x="233" y="119" on="0"/>
        <pt x="223" y="119" on="1"/>
        <pt x="223" y="116" on="1"/>
        <pt x="223" y="106" on="0"/>
        <pt x="233" y="94" on="0"/>
        <pt x="248" y="88" on="0"/>
        <pt x="265" y="86" on="0"/>
        <pt x="273" y="86" on="1"/>
        <pt x="288" y="86" on="0"/>
        <pt x="319" y="93" on="0"/>
        <pt x="334" y="93" on="1"/>
        <pt x="334" y="88" on="0"/>
        <pt x="312" y="77" on="0"/>
        <pt x="284" y="68" on="0"/>
        <pt x="258" y="63" on="0"/>
        <pt x="253" y="63" on="1"/>
        <pt x="227" y="63" on="0"/>
        <pt x="190" y="95" on="0"/>
        <pt x="185" y="121" on="1"/>
        <pt x="149" y="123" on="0"/>
        <pt x="116" y="130" on="1"/>
        <pt x="116" y="126" on="1"/>
        <pt x="116" y="101" on="0"/>
        <pt x="137" y="56" on="0"/>
        <pt x="172" y="23" on="0"/>
        <pt x="218" y="3" on="0"/>
        <pt x="242" y="3" on="1"/>
        <pt x="268" y="3" on="0"/>
        <pt x="320" y="20" on="0"/>
        <pt x="365" y="50" on="0"/>
        <pt x="403" y="89" on="0"/>
        <pt x="416" y="111" on="1"/>
        <pt x="418" y="115" on="0"/>
        <pt x="424" y="129" on="0"/>
        <pt x="430" y="143" on="0"/>
        <pt x="436" y="154" on="0"/>
        <pt x="438" y="156" on="1"/>
        <pt x="440" y="155" on="0"/>
        <pt x="440" y="151" on="1"/>
        <pt x="440" y="127" on="0"/>
        <pt x="417" y="79" on="0"/>
        <pt x="381" y="35" on="0"/>
        <pt x="338" y="2" on="0"/>
        <pt x="318" y="-7" on="1"/>
        <pt x="301" y="-15" on="0"/>
        <pt x="264" y="-25" on="0"/>
        <pt x="244" y="-25" on="1"/>
        <pt x="207" y="-25" on="0"/>
        <pt x="150" y="0" on="0"/>
        <pt x="110" y="44" on="0"/>
        <pt x="87" y="103" on="0"/>
      </contour>
      <contour>
        <pt x="247" y="29" on="1"/>
        <pt x="252" y="34" on="1"/>
        <pt x="299" y="50" on="0"/>
        <pt x="367" y="96" on="0"/>
        <pt x="395" y="140" on="1"/>
        <pt x="400" y="147" on="0"/>
        <pt x="406" y="168" on="0"/>
        <pt x="414" y="173" on="1"/>
        <pt x="418" y="170" on="0"/>
        <pt x="418" y="160" on="1"/>
        <pt x="418" y="133" on="0"/>
        <pt x="387" y="84" on="0"/>
        <pt x="341" y="47" on="0"/>
        <pt x="285" y="25" on="0"/>
        <pt x="260" y="25" on="1"/>
        <pt x="257" y="25" on="0"/>
        <pt x="251" y="26" on="0"/>
        <pt x="249" y="26" on="1"/>
      </contour>
    </TTGlyph>
    <TTGlyph name="F" xMin="7" yMin="-5" xMax="426" yMax="730">
      <contour>
        <pt x="11" y="229" on="1"/>
        <pt x="8" y="222" on="0"/>
        <pt x="7" y="231" on="0"/>
        <pt x="8" y="233" on="1"/>
        <pt x="15" y="272" on="0"/>
        <pt x="36" y="296" on="1"/>
        <pt x="40" y="330" on="0"/>
        <pt x="61" y="407" on="0"/>
        <pt x="85" y="485" on="0"/>
        <pt x="108" y="560" on="0"/>
        <pt x="116" y="592" on="1"/>
        <pt x="93" y="592" on="0"/>
        <pt x="72" y="595" on="1"/>
        <pt x="64" y="597" on="0"/>
        <pt x="64" y="597" on="1"/>
        <pt x="63" y="600" on="0"/>
        <pt x="71" y="604" on="1"/>
        <pt x="110" y="624" on="0"/>
        <pt x="200" y="627" on="0"/>
        <pt x="245" y="623" on="1"/>
        <pt x="274" y="621" on="0"/>
        <pt x="332" y="619" on="0"/>
        <pt x="364" y="629" on="1"/>
        <pt x="369" y="630" on="0"/>
        <pt x="369" y="627" on="1"/>
        <pt x="369" y="625" on="0"/>
        <pt x="366" y="622" on="1"/>
        <pt x="355" y="609" on="0"/>
        <pt x="320" y="596" on="0"/>
        <pt x="278" y="590" on="0"/>
        <pt x="235" y="590" on="0"/>
        <pt x="216" y="590" on="1"/>
        <pt x="221" y="566" on="0"/>
        <pt x="219" y="503" on="0"/>
        <pt x="210" y="435" on="0"/>
        <pt x="195" y="367" on="0"/>
        <pt x="188" y="338" on="1"/>
        <pt x="226" y="333" on="0"/>
        <pt x="295" y="328" on="0"/>
        <pt x="323" y="344" on="1"/>
        <pt x="326" y="345" on="0"/>
        <pt x="326" y="343" on="1"/>
        <pt x="326" y="340" on="0"/>
        <pt x="325" y="338" on="1"/>
        <pt x="307" y="314" on="0"/>
        <pt x="261" y="299" on="0"/>
        <pt x="211" y="302" on="0"/>
        <pt x="157" y="312" on="0"/>
        <pt x="132" y="312" on="1"/>
        <pt x="100" y="312" on="0"/>
        <pt x="33" y="275" on="0"/>
      </contour>
      <contour>
        <pt x="108" y="103" on="1"/>
        <pt x="109" y="128" on="0"/>
        <pt x="113" y="182" on="0"/>
        <pt x="118" y="208" on="1"/>
        <pt x="114" y="209" on="0"/>
        <pt x="85" y="214" on="0"/>
        <pt x="71" y="215" on="1"/>
        <pt x="58" y="216" on="0"/>
        <pt x="51" y="207" on="0"/>
        <pt x="50" y="195" on="1"/>
        <pt x="45" y="144" on="0"/>
        <pt x="63" y="44" on="0"/>
        <pt x="84" y="4" on="1"/>
        <pt x="86" y="1" on="0"/>
        <pt x="84" y="-3" on="0"/>
        <pt x="81" y="0" on="1"/>
        <pt x="48" y="40" on="0"/>
        <pt x="24" y="121" on="0"/>
        <pt x="22" y="167" on="1"/>
        <pt x="21" y="187" on="0"/>
        <pt x="40" y="221" on="0"/>
        <pt x="60" y="230" on="1"/>
        <pt x="93" y="244" on="0"/>
        <pt x="159" y="240" on="0"/>
        <pt x="195" y="236" on="1"/>
        <pt x="216" y="234" on="0"/>
        <pt x="263" y="231" on="0"/>
        <pt x="286" y="242" on="1"/>
        <pt x="289" y="244" on="0"/>
        <pt x="290" y="243" on="1"/>
        <pt x="291" y="242" on="0"/>
        <pt x="289" y="238" on="0"/>
        <pt x="288" y="236" on="1"/>
        <pt x="279" y="220" on="0"/>
        <pt x="244" y="206" on="0"/>
        <pt x="204" y="202" on="0"/>
        <pt x="165" y="204" on="0"/>
        <pt x="152" y="204" on="1"/>
        <pt x="143" y="174" on="0"/>
        <pt x="123" y="122" on="0"/>
        <pt x="116" y="100" on="1"/>
        <pt x="112" y="87" on="0"/>
        <pt x="110" y="88" on="1"/>
        <pt x="108" y="89" on="0"/>
        <pt x="108" y="98" on="0"/>
      </contour>
      <contour>
        <pt x="15" y="593" on="1"/>
        <pt x="13" y="586" on="0"/>
        <pt x="10" y="593" on="0"/>
        <pt x="11" y="596" on="1"/>
        <pt x="16" y="632" on="0"/>
        <pt x="48" y="682" on="0"/>
        <pt x="92" y="713" on="0"/>
        <pt x="144" y="728" on="0"/>
        <pt x="170" y="729" on="1"/>
        <pt x="205" y="730" on="0"/>
        <pt x="273" y="723" on="0"/>
        <pt x="338" y="717" on="0"/>
        <pt x="397" y="718" on="0"/>
        <pt x="423" y="727" on="1"/>
        <pt x="426" y="728" on="0"/>
        <pt x="426" y="726" on="1"/>
        <pt x="423" y="722" on="1"/>
        <pt x="397" y="699" on="0"/>
        <pt x="335" y="687" on="0"/>
        <pt x="268" y="690" on="0"/>
        <pt x="198" y="699" on="0"/>
        <pt x="164" y="697" on="1"/>
        <pt x="142" y="696" on="0"/>
        <pt x="96" y="682" on="0"/>
        <pt x="56" y="657" on="0"/>
        <pt x="24" y="619" on="0"/>
      </contour>
      <contour>
        <pt x="306" y="633" on="1"/>
        <pt x="274" y="635" on="0"/>
        <pt x="201" y="647" on="0"/>
        <pt x="169" y="655" on="1"/>
        <pt x="167" y="655" on="0"/>
        <pt x="156" y="659" on="0"/>
        <pt x="156" y="662" on="1"/>
        <pt x="156" y="664" on="0"/>
        <pt x="165" y="667" on="0"/>
        <pt x="167" y="667" on="1"/>
        <pt x="174" y="669" on="0"/>
        <pt x="195" y="672" on="0"/>
        <pt x="218" y="674" on="0"/>
        <pt x="240" y="674" on="0"/>
        <pt x="248" y="674" on="1"/>
        <pt x="263" y="673" on="0"/>
        <pt x="310" y="673" on="0"/>
        <pt x="358" y="678" on="0"/>
        <pt x="399" y="687" on="0"/>
        <pt x="410" y="695" on="1"/>
        <pt x="415" y="700" on="0"/>
        <pt x="415" y="696" on="1"/>
        <pt x="415" y="694" on="0"/>
        <pt x="412" y="690" on="0"/>
        <pt x="411" y="688" on="1"/>
        <pt x="403" y="674" on="0"/>
        <pt x="377" y="653" on="0"/>
        <pt x="347" y="638" on="0"/>
        <pt x="318" y="632" on="0"/>
      </contour>
      <contour>
        <pt x="241" y="245" on="1"/>
        <pt x="215" y="247" on="0"/>
        <pt x="160" y="261" on="0"/>
        <pt x="134" y="270" on="1"/>
        <pt x="133" y="270" on="0"/>
        <pt x="126" y="274" on="0"/>
        <pt x="126" y="277" on="1"/>
        <pt x="126" y="279" on="0"/>
        <pt x="136" y="283" on="0"/>
        <pt x="141" y="284" on="1"/>
        <pt x="149" y="286" on="0"/>
        <pt x="179" y="289" on="0"/>
        <pt x="192" y="287" on="1"/>
        <pt x="208" y="285" on="0"/>
        <pt x="246" y="284" on="0"/>
        <pt x="280" y="289" on="0"/>
        <pt x="308" y="301" on="0"/>
        <pt x="315" y="310" on="1"/>
        <pt x="316" y="313" on="0"/>
        <pt x="319" y="313" on="1"/>
        <pt x="320" y="313" on="1"/>
        <pt x="321" y="311" on="0"/>
        <pt x="320" y="305" on="0"/>
        <pt x="319" y="303" on="1"/>
        <pt x="308" y="274" on="0"/>
        <pt x="260" y="244" on="0"/>
      </contour>
      <contour>
        <pt x="125" y="425" on="1"/>
        <pt x="126" y="430" on="0"/>
        <pt x="137" y="463" on="0"/>
        <pt x="151" y="509" on="0"/>
        <pt x="164" y="563" on="0"/>
        <pt x="167" y="590" on="1"/>
        <pt x="144" y="590" on="1"/>
        <pt x="136" y="527" on="0"/>
        <pt x="91" y="396" on="0"/>
        <pt x="73" y="329" on="1"/>
        <pt x="81" y="333" on="0"/>
        <pt x="96" y="339" on="0"/>
        <pt x="104" y="341" on="1"/>
        <pt x="109" y="363" on="0"/>
        <pt x="120" y="408" on="0"/>
      </contour>
      <contour>
        <pt x="178" y="497" on="1"/>
        <pt x="167" y="455" on="0"/>
        <pt x="148" y="384" on="0"/>
        <pt x="133" y="344" on="1"/>
        <pt x="136" y="344" on="1"/>
        <pt x="139" y="344" on="0"/>
        <pt x="146" y="344" on="0"/>
        <pt x="151" y="342" on="1"/>
        <pt x="155" y="358" on="0"/>
        <pt x="165" y="387" on="0"/>
        <pt x="170" y="404" on="1"/>
        <pt x="182" y="446" on="0"/>
        <pt x="202" y="531" on="0"/>
        <pt x="206" y="590" on="1"/>
        <pt x="186" y="590" on="1"/>
        <pt x="186" y="567" on="0"/>
        <pt x="183" y="514" on="0"/>
      </contour>
      <contour>
        <pt x="96" y="71" on="1"/>
        <pt x="99" y="54" on="0"/>
        <pt x="109" y="21" on="0"/>
        <pt x="115" y="4" on="1"/>
        <pt x="116" y="2" on="0"/>
        <pt x="117" y="-5" on="0"/>
        <pt x="115" y="-5" on="1"/>
        <pt x="113" y="-5" on="0"/>
        <pt x="107" y="-1" on="0"/>
        <pt x="105" y="1" on="1"/>
        <pt x="93" y="16" on="0"/>
        <pt x="78" y="42" on="0"/>
        <pt x="73" y="71" on="1"/>
        <pt x="71" y="82" on="0"/>
        <pt x="70" y="116" on="0"/>
        <pt x="72" y="148" on="0"/>
        <pt x="77" y="170" on="0"/>
        <pt x="81" y="170" on="1"/>
        <pt x="82" y="170" on="0"/>
        <pt x="85" y="160" on="0"/>
        <pt x="87" y="147" on="0"/>
        <pt x="88" y="134" on="0"/>
        <pt x="88" y="132" on="1"/>
        <pt x="90" y="115" on="0"/>
        <pt x="93" y="85" on="0"/>
      </contour>
      <contour>
        <pt x="52" y="606" on="1"/>
        <pt x="44" y="596" on="0"/>
        <pt x="31" y="577" on="0"/>
        <pt x="26" y="566" on="1"/>
        <pt x="25" y="564" on="0"/>
        <pt x="21" y="565" on="0"/>
        <pt x="22" y="573" on="1"/>
        <pt x="24" y="590" on="0"/>
        <pt x="30" y="612" on="0"/>
        <pt x="44" y="626" on="1"/>
        <pt x="49" y="632" on="0"/>
        <pt x="67" y="643" on="0"/>
        <pt x="83" y="651" on="0"/>
        <pt x="96" y="653" on="0"/>
        <pt x="97" y="649" on="1"/>
        <pt x="98" y="646" on="0"/>
        <pt x="83" y="632" on="0"/>
        <pt x="79" y="630" on="1"/>
        <pt x="63" y="618" on="0"/>
      </contour>
      <contour>
        <pt x="16" y="199" on="1"/>
        <pt x="14" y="195" on="0"/>
        <pt x="12" y="197" on="1"/>
        <pt x="11" y="198" on="0"/>
        <pt x="12" y="207" on="1"/>
        <pt x="16" y="221" on="0"/>
        <pt x="26" y="244" on="0"/>
        <pt x="37" y="255" on="1"/>
        <pt x="41" y="259" on="0"/>
        <pt x="58" y="267" on="0"/>
        <pt x="73" y="272" on="0"/>
        <pt x="83" y="273" on="0"/>
        <pt x="81" y="270" on="1"/>
        <pt x="75" y="262" on="0"/>
        <pt x="56" y="244" on="0"/>
        <pt x="37" y="224" on="0"/>
        <pt x="20" y="206" on="0"/>
      </contour>
    </TTGlyph>
    <TTGlyph name="G" xMin="12" yMin="-162" xMax="522" yMax="733">
      <contour>
        <pt x="147" y="333" on="1"/>
        <pt x="142" y="298" on="0"/>
        <pt x="142" y="232" on="0"/>
        <pt x="152" y="174" on="0"/>
        <pt x="171" y="127" on="0"/>
        <pt x="186" y="111" on="1"/>
        <pt x="205" y="91" on="0"/>
        <pt x="266" y="74" on="0"/>
        <pt x="304" y="79" on="1"/>
        <pt x="314" y="118" on="0"/>
        <pt x="341" y="190" on="0"/>
        <pt x="366" y="258" on="0"/>
        <pt x="384" y="324" on="0"/>
        <pt x="384" y="356" on="1"/>
        <pt x="384" y="359" on="0"/>
        <pt x="385" y="359" on="1"/>
        <pt x="386" y="359" on="0"/>
        <pt x="389" y="353" on="0"/>
        <pt x="389" y="352" on="1"/>
        <pt x="401" y="315" on="0"/>
        <pt x="392" y="240" on="0"/>
        <pt x="367" y="162" on="0"/>
        <pt x="335" y="81" on="0"/>
        <pt x="325" y="38" on="1"/>
        <pt x="320" y="19" on="0"/>
        <pt x="318" y="-32" on="0"/>
        <pt x="327" y="-85" on="0"/>
        <pt x="350" y="-137" on="0"/>
        <pt x="371" y="-157" on="1"/>
        <pt x="372" y="-159" on="0"/>
        <pt x="374" y="-161" on="1"/>
        <pt x="375" y="-162" on="1"/>
        <pt x="375" y="-162" on="0"/>
        <pt x="372" y="-162" on="1"/>
        <pt x="371" y="-162" on="0"/>
        <pt x="370" y="-161" on="1"/>
        <pt x="343" y="-143" on="0"/>
        <pt x="308" y="-97" on="0"/>
        <pt x="291" y="-48" on="0"/>
        <pt x="288" y="1" on="0"/>
        <pt x="292" y="21" on="1"/>
        <pt x="262" y="14" on="0"/>
        <pt x="203" y="24" on="0"/>
        <pt x="178" y="37" on="1"/>
        <pt x="173" y="39" on="0"/>
        <pt x="162" y="51" on="0"/>
        <pt x="163" y="52" on="1"/>
        <pt x="163" y="52" on="0"/>
        <pt x="194" y="47" on="0"/>
        <pt x="233" y="42" on="0"/>
        <pt x="272" y="39" on="0"/>
        <pt x="281" y="40" on="1"/>
        <pt x="284" y="41" on="0"/>
        <pt x="291" y="42" on="0"/>
        <pt x="296" y="44" on="1"/>
        <pt x="296" y="49" on="0"/>
        <pt x="298" y="58" on="0"/>
        <pt x="300" y="63" on="1"/>
        <pt x="265" y="55" on="0"/>
        <pt x="199" y="67" on="0"/>
        <pt x="173" y="89" on="1"/>
        <pt x="152" y="107" on="0"/>
        <pt x="127" y="158" on="0"/>
        <pt x="114" y="218" on="0"/>
        <pt x="112" y="283" on="0"/>
        <pt x="115" y="315" on="1"/>
        <pt x="119" y="366" on="0"/>
        <pt x="151" y="470" on="0"/>
        <pt x="204" y="559" on="0"/>
        <pt x="277" y="624" on="0"/>
        <pt x="323" y="637" on="1"/>
        <pt x="344" y="643" on="0"/>
        <pt x="392" y="641" on="0"/>
        <pt x="434" y="625" on="0"/>
        <pt x="465" y="596" on="0"/>
        <pt x="469" y="574" on="1"/>
        <pt x="474" y="550" on="0"/>
        <pt x="456" y="505" on="0"/>
        <pt x="424" y="472" on="0"/>
        <pt x="384" y="458" on="0"/>
        <pt x="366" y="466" on="1"/>
        <pt x="359" y="468" on="0"/>
        <pt x="363" y="470" on="1"/>
        <pt x="365" y="471" on="0"/>
        <pt x="367" y="469" on="0"/>
        <pt x="369" y="469" on="1"/>
        <pt x="381" y="467" on="0"/>
        <pt x="411" y="481" on="0"/>
        <pt x="436" y="507" on="0"/>
        <pt x="451" y="542" on="0"/>
        <pt x="448" y="560" on="1"/>
        <pt x="445" y="575" on="0"/>
        <pt x="426" y="597" on="0"/>
        <pt x="396" y="611" on="0"/>
        <pt x="359" y="615" on="0"/>
        <pt x="338" y="611" on="1"/>
        <pt x="301" y="604" on="0"/>
        <pt x="237" y="551" on="0"/>
        <pt x="187" y="474" on="0"/>
        <pt x="153" y="380" on="0"/>
      </contour>
      <contour>
        <pt x="226" y="3" on="1"/>
        <pt x="240" y="1" on="0"/>
        <pt x="244" y="-1" on="0"/>
        <pt x="227" y="-1" on="1"/>
        <pt x="199" y="-1" on="0"/>
        <pt x="142" y="17" on="0"/>
        <pt x="92" y="50" on="0"/>
        <pt x="52" y="98" on="0"/>
        <pt x="42" y="127" on="1"/>
        <pt x="20" y="190" on="0"/>
        <pt x="12" y="305" on="0"/>
        <pt x="21" y="363" on="1"/>
        <pt x="26" y="394" on="0"/>
        <pt x="48" y="474" on="0"/>
        <pt x="87" y="558" on="0"/>
        <pt x="145" y="640" on="0"/>
        <pt x="186" y="674" on="1"/>
        <pt x="229" y="710" on="0"/>
        <pt x="335" y="733" on="0"/>
        <pt x="431" y="717" on="0"/>
        <pt x="505" y="664" on="0"/>
        <pt x="517" y="625" on="1"/>
        <pt x="518" y="623" on="0"/>
        <pt x="522" y="611" on="0"/>
        <pt x="520" y="610" on="1"/>
        <pt x="518" y="609" on="0"/>
        <pt x="514" y="619" on="0"/>
        <pt x="509" y="625" on="1"/>
        <pt x="467" y="682" on="0"/>
        <pt x="361" y="712" on="0"/>
        <pt x="258" y="688" on="0"/>
        <pt x="167" y="621" on="0"/>
        <pt x="140" y="580" on="1"/>
        <pt x="93" y="511" on="0"/>
        <pt x="47" y="348" on="0"/>
        <pt x="48" y="264" on="1"/>
        <pt x="49" y="223" on="0"/>
        <pt x="65" y="139" on="0"/>
        <pt x="86" y="99" on="1"/>
        <pt x="106" y="60" on="0"/>
        <pt x="185" y="8" on="0"/>
      </contour>
      <contour>
        <pt x="84" y="382" on="1"/>
        <pt x="91" y="434" on="0"/>
        <pt x="125" y="535" on="0"/>
        <pt x="182" y="617" on="0"/>
        <pt x="266" y="677" on="0"/>
        <pt x="323" y="689" on="1"/>
        <pt x="342" y="693" on="0"/>
        <pt x="391" y="692" on="0"/>
        <pt x="440" y="675" on="0"/>
        <pt x="483" y="641" on="0"/>
        <pt x="497" y="611" on="1"/>
        <pt x="510" y="582" on="0"/>
        <pt x="503" y="525" on="0"/>
        <pt x="478" y="480" on="0"/>
        <pt x="441" y="450" on="0"/>
        <pt x="423" y="448" on="1"/>
        <pt x="420" y="447" on="0"/>
        <pt x="411" y="448" on="0"/>
        <pt x="411" y="450" on="1"/>
        <pt x="411" y="452" on="0"/>
        <pt x="413" y="451" on="0"/>
        <pt x="423" y="455" on="1"/>
        <pt x="430" y="458" on="0"/>
        <pt x="449" y="473" on="0"/>
        <pt x="466" y="497" on="0"/>
        <pt x="480" y="529" on="0"/>
        <pt x="482" y="548" on="1"/>
        <pt x="484" y="568" on="0"/>
        <pt x="470" y="604" on="0"/>
        <pt x="443" y="633" on="0"/>
        <pt x="407" y="653" on="0"/>
        <pt x="388" y="656" on="1"/>
        <pt x="329" y="665" on="0"/>
        <pt x="233" y="616" on="0"/>
        <pt x="159" y="531" on="0"/>
        <pt x="109" y="426" on="0"/>
        <pt x="96" y="379" on="1"/>
        <pt x="96" y="378" on="0"/>
        <pt x="92" y="366" on="0"/>
        <pt x="88" y="352" on="0"/>
        <pt x="85" y="341" on="0"/>
        <pt x="84" y="341" on="1"/>
        <pt x="83" y="341" on="0"/>
        <pt x="82" y="352" on="0"/>
        <pt x="83" y="367" on="0"/>
        <pt x="84" y="380" on="0"/>
      </contour>
      <contour>
        <pt x="427" y="29" on="1"/>
        <pt x="421" y="7" on="0"/>
        <pt x="398" y="-60" on="0"/>
        <pt x="389" y="-88" on="1"/>
        <pt x="386" y="-96" on="0"/>
        <pt x="384" y="-96" on="1"/>
        <pt x="380" y="-96" on="0"/>
        <pt x="379" y="-89" on="0"/>
        <pt x="379" y="-87" on="1"/>
        <pt x="376" y="-60" on="0"/>
        <pt x="380" y="-11" on="0"/>
        <pt x="392" y="37" on="0"/>
        <pt x="409" y="85" on="0"/>
        <pt x="418" y="112" on="1"/>
        <pt x="430" y="147" on="0"/>
        <pt x="450" y="214" on="0"/>
        <pt x="452" y="256" on="1"/>
        <pt x="452" y="261" on="0"/>
        <pt x="453" y="262" on="0"/>
        <pt x="455" y="262" on="1"/>
        <pt x="458" y="256" on="1"/>
        <pt x="468" y="235" on="0"/>
        <pt x="465" y="173" on="0"/>
        <pt x="451" y="107" on="0"/>
        <pt x="432" y="47" on="0"/>
      </contour>
      <contour>
        <pt x="430" y="188" on="1"/>
        <pt x="416" y="150" on="0"/>
        <pt x="382" y="68" on="0"/>
        <pt x="364" y="30" on="1"/>
        <pt x="363" y="29" on="0"/>
        <pt x="358" y="18" on="0"/>
        <pt x="355" y="19" on="1"/>
        <pt x="353" y="20" on="0"/>
        <pt x="353" y="31" on="0"/>
        <pt x="353" y="34" on="1"/>
        <pt x="353" y="43" on="0"/>
        <pt x="357" y="70" on="0"/>
        <pt x="363" y="97" on="0"/>
        <pt x="370" y="123" on="0"/>
        <pt x="374" y="132" on="1"/>
        <pt x="376" y="138" on="0"/>
        <pt x="390" y="191" on="0"/>
        <pt x="404" y="254" on="0"/>
        <pt x="412" y="314" on="0"/>
        <pt x="408" y="329" on="1"/>
        <pt x="406" y="334" on="0"/>
        <pt x="408" y="336" on="1"/>
        <pt x="410" y="336" on="0"/>
        <pt x="413" y="331" on="0"/>
        <pt x="415" y="329" on="1"/>
        <pt x="424" y="315" on="0"/>
        <pt x="434" y="278" on="0"/>
        <pt x="437" y="239" on="0"/>
        <pt x="434" y="202" on="0"/>
      </contour>
      <contour>
        <pt x="371" y="-107" on="1"/>
        <pt x="383" y="-132" on="0"/>
        <pt x="400" y="-154" on="1"/>
        <pt x="403" y="-157" on="0"/>
        <pt x="401" y="-159" on="1"/>
        <pt x="398" y="-161" on="0"/>
        <pt x="395" y="-159" on="1"/>
        <pt x="393" y="-158" on="0"/>
        <pt x="392" y="-157" on="1"/>
        <pt x="378" y="-149" on="0"/>
        <pt x="360" y="-133" on="0"/>
        <pt x="351" y="-110" on="1"/>
        <pt x="348" y="-102" on="0"/>
        <pt x="343" y="-77" on="0"/>
        <pt x="341" y="-54" on="0"/>
        <pt x="342" y="-38" on="0"/>
        <pt x="345" y="-39" on="1"/>
        <pt x="350" y="-39" on="0"/>
        <pt x="357" y="-63" on="0"/>
        <pt x="358" y="-66" on="1"/>
        <pt x="362" y="-77" on="0"/>
        <pt x="366" y="-97" on="0"/>
      </contour>
    </TTGlyph>
    <TTGlyph name="H" xMin="-2" yMin="-5" xMax="576" yMax="730">
      <contour>
        <pt x="369" y="232" on="1"/>
        <pt x="326" y="236" on="0"/>
        <pt x="235" y="251" on="0"/>
        <pt x="195" y="262" on="1"/>
        <pt x="193" y="263" on="0"/>
        <pt x="179" y="267" on="0"/>
        <pt x="179" y="269" on="1"/>
        <pt x="179" y="272" on="0"/>
        <pt x="193" y="274" on="0"/>
        <pt x="195" y="274" on="1"/>
        <pt x="215" y="276" on="0"/>
        <pt x="277" y="277" on="0"/>
        <pt x="297" y="274" on="1"/>
        <pt x="316" y="271" on="0"/>
        <pt x="367" y="267" on="0"/>
        <pt x="419" y="269" on="0"/>
        <pt x="468" y="277" on="0"/>
        <pt x="486" y="285" on="1"/>
        <pt x="494" y="288" on="0"/>
        <pt x="514" y="306" on="0"/>
        <pt x="519" y="315" on="1"/>
        <pt x="487" y="294" on="0"/>
        <pt x="409" y="284" on="0"/>
        <pt x="324" y="290" on="0"/>
        <pt x="237" y="302" on="0"/>
        <pt x="195" y="304" on="1"/>
        <pt x="168" y="305" on="0"/>
        <pt x="111" y="299" on="0"/>
        <pt x="58" y="281" on="0"/>
        <pt x="14" y="251" on="0"/>
        <pt x="0" y="229" on="1"/>
        <pt x="-2" y="224" on="0"/>
        <pt x="-1" y="231" on="0"/>
        <pt x="-1" y="233" on="1"/>
        <pt x="7" y="273" on="0"/>
        <pt x="66" y="314" on="0"/>
        <pt x="101" y="325" on="1"/>
        <pt x="114" y="379" on="0"/>
        <pt x="148" y="485" on="0"/>
        <pt x="177" y="585" on="0"/>
        <pt x="196" y="679" on="0"/>
        <pt x="195" y="723" on="1"/>
        <pt x="196" y="725" on="0"/>
        <pt x="195" y="729" on="0"/>
        <pt x="197" y="729" on="1"/>
        <pt x="199" y="730" on="0"/>
        <pt x="200" y="723" on="0"/>
        <pt x="200" y="722" on="1"/>
        <pt x="213" y="678" on="0"/>
        <pt x="207" y="583" on="0"/>
        <pt x="184" y="485" on="0"/>
        <pt x="151" y="384" on="0"/>
        <pt x="137" y="333" on="1"/>
        <pt x="163" y="336" on="1"/>
        <pt x="168" y="359" on="0"/>
        <pt x="179" y="407" on="0"/>
        <pt x="185" y="425" on="1"/>
        <pt x="187" y="431" on="0"/>
        <pt x="196" y="468" on="0"/>
        <pt x="206" y="520" on="0"/>
        <pt x="217" y="580" on="0"/>
        <pt x="224" y="636" on="0"/>
        <pt x="225" y="682" on="0"/>
        <pt x="222" y="695" on="1"/>
        <pt x="222" y="704" on="0"/>
        <pt x="223" y="704" on="1"/>
        <pt x="225" y="704" on="0"/>
        <pt x="229" y="699" on="0"/>
        <pt x="230" y="697" on="1"/>
        <pt x="241" y="680" on="0"/>
        <pt x="252" y="632" on="0"/>
        <pt x="255" y="579" on="0"/>
        <pt x="250" y="527" on="0"/>
        <pt x="245" y="508" on="1"/>
        <pt x="233" y="466" on="0"/>
        <pt x="205" y="378" on="0"/>
        <pt x="189" y="336" on="1"/>
        <pt x="206" y="336" on="1"/>
        <pt x="211" y="336" on="1"/>
        <pt x="215" y="353" on="0"/>
        <pt x="227" y="387" on="0"/>
        <pt x="232" y="404" on="1"/>
        <pt x="245" y="451" on="0"/>
        <pt x="271" y="550" on="0"/>
        <pt x="273" y="607" on="1"/>
        <pt x="273" y="612" on="0"/>
        <pt x="274" y="612" on="1"/>
        <pt x="276" y="612" on="0"/>
        <pt x="277" y="608" on="0"/>
        <pt x="278" y="606" on="1"/>
        <pt x="287" y="584" on="0"/>
        <pt x="286" y="516" on="0"/>
        <pt x="274" y="441" on="0"/>
        <pt x="255" y="364" on="0"/>
        <pt x="247" y="333" on="1"/>
        <pt x="284" y="330" on="0"/>
        <pt x="353" y="320" on="0"/>
        <pt x="388" y="316" on="1"/>
        <pt x="401" y="370" on="0"/>
        <pt x="434" y="475" on="0"/>
        <pt x="463" y="574" on="0"/>
        <pt x="482" y="668" on="0"/>
        <pt x="481" y="711" on="1"/>
        <pt x="481" y="716" on="0"/>
        <pt x="483" y="716" on="1"/>
        <pt x="485" y="716" on="0"/>
        <pt x="487" y="712" on="0"/>
        <pt x="487" y="711" on="1"/>
        <pt x="500" y="666" on="0"/>
        <pt x="493" y="569" on="0"/>
        <pt x="469" y="469" on="0"/>
        <pt x="435" y="366" on="0"/>
        <pt x="421" y="314" on="1"/>
        <pt x="427" y="312" on="0"/>
        <pt x="440" y="314" on="0"/>
        <pt x="447" y="314" on="1"/>
        <pt x="451" y="339" on="0"/>
        <pt x="465" y="392" on="0"/>
        <pt x="471" y="411" on="1"/>
        <pt x="473" y="417" on="0"/>
        <pt x="482" y="454" on="0"/>
        <pt x="492" y="506" on="0"/>
        <pt x="503" y="566" on="0"/>
        <pt x="510" y="623" on="0"/>
        <pt x="511" y="669" on="0"/>
        <pt x="508" y="682" on="1"/>
        <pt x="506" y="689" on="0"/>
        <pt x="509" y="690" on="1"/>
        <pt x="511" y="691" on="0"/>
        <pt x="515" y="686" on="0"/>
        <pt x="516" y="684" on="1"/>
        <pt x="527" y="667" on="0"/>
        <pt x="539" y="619" on="0"/>
        <pt x="542" y="567" on="0"/>
        <pt x="537" y="515" on="0"/>
        <pt x="532" y="496" on="1"/>
        <pt x="520" y="451" on="0"/>
        <pt x="488" y="359" on="0"/>
        <pt x="471" y="314" on="1"/>
        <pt x="496" y="318" on="1"/>
        <pt x="501" y="335" on="0"/>
        <pt x="513" y="372" on="0"/>
        <pt x="518" y="390" on="1"/>
        <pt x="532" y="438" on="0"/>
        <pt x="557" y="537" on="0"/>
        <pt x="559" y="593" on="1"/>
        <pt x="559" y="598" on="0"/>
        <pt x="559" y="599" on="0"/>
        <pt x="560" y="599" on="1"/>
        <pt x="562" y="599" on="0"/>
        <pt x="564" y="593" on="1"/>
        <pt x="576" y="566" on="0"/>
        <pt x="570" y="480" on="0"/>
        <pt x="552" y="387" on="0"/>
        <pt x="528" y="300" on="0"/>
        <pt x="522" y="274" on="1"/>
        <pt x="511" y="226" on="0"/>
        <pt x="477" y="124" on="0"/>
        <pt x="464" y="86" on="1"/>
        <pt x="461" y="74" on="0"/>
        <pt x="456" y="74" on="1"/>
        <pt x="454" y="75" on="0"/>
        <pt x="455" y="85" on="0"/>
        <pt x="455" y="90" on="1"/>
        <pt x="457" y="133" on="0"/>
        <pt x="470" y="218" on="0"/>
        <pt x="481" y="263" on="1"/>
        <pt x="456" y="246" on="0"/>
        <pt x="392" y="230" on="0"/>
      </contour>
      <contour>
        <pt x="169" y="103" on="1"/>
        <pt x="171" y="151" on="0"/>
        <pt x="178" y="197" on="1"/>
        <pt x="161" y="199" on="0"/>
        <pt x="128" y="204" on="0"/>
        <pt x="112" y="207" on="1"/>
        <pt x="108" y="153" on="0"/>
        <pt x="122" y="48" on="0"/>
        <pt x="145" y="4" on="1"/>
        <pt x="147" y="0" on="0"/>
        <pt x="147" y="0" on="1"/>
        <pt x="147" y="-5" on="0"/>
        <pt x="141" y="0" on="1"/>
        <pt x="101" y="44" on="0"/>
        <pt x="78" y="153" on="0"/>
        <pt x="82" y="211" on="1"/>
        <pt x="60" y="215" on="1"/>
        <pt x="55" y="215" on="0"/>
        <pt x="48" y="219" on="0"/>
        <pt x="48" y="221" on="1"/>
        <pt x="48" y="223" on="0"/>
        <pt x="56" y="225" on="0"/>
        <pt x="59" y="226" on="1"/>
        <pt x="116" y="238" on="0"/>
        <pt x="230" y="232" on="0"/>
        <pt x="289" y="225" on="1"/>
        <pt x="326" y="221" on="0"/>
        <pt x="402" y="215" on="0"/>
        <pt x="444" y="225" on="1"/>
        <pt x="448" y="226" on="0"/>
        <pt x="449" y="224" on="1"/>
        <pt x="449" y="223" on="0"/>
        <pt x="445" y="219" on="1"/>
        <pt x="428" y="203" on="0"/>
        <pt x="399" y="197" on="1"/>
        <pt x="394" y="143" on="0"/>
        <pt x="406" y="38" on="0"/>
        <pt x="430" y="0" on="1"/>
        <pt x="433" y="-3" on="0"/>
        <pt x="430" y="-3" on="1"/>
        <pt x="429" y="-3" on="0"/>
        <pt x="427" y="-1" on="0"/>
        <pt x="425" y="0" on="1"/>
        <pt x="406" y="16" on="0"/>
        <pt x="383" y="59" on="0"/>
        <pt x="371" y="109" on="0"/>
        <pt x="368" y="164" on="0"/>
        <pt x="369" y="192" on="1"/>
        <pt x="348" y="190" on="0"/>
        <pt x="304" y="190" on="0"/>
        <pt x="262" y="192" on="0"/>
        <pt x="224" y="195" on="0"/>
        <pt x="210" y="196" on="1"/>
        <pt x="202" y="169" on="0"/>
        <pt x="184" y="120" on="0"/>
        <pt x="178" y="100" on="1"/>
        <pt x="176" y="95" on="0"/>
        <pt x="172" y="86" on="0"/>
        <pt x="170" y="88" on="1"/>
        <pt x="168" y="88" on="0"/>
        <pt x="169" y="98" on="0"/>
      </contour>
      <contour>
        <pt x="442" y="58" on="1"/>
        <pt x="447" y="39" on="0"/>
        <pt x="455" y="9" on="0"/>
        <pt x="462" y="0" on="1"/>
        <pt x="463" y="-1" on="0"/>
        <pt x="465" y="-4" on="0"/>
        <pt x="463" y="-5" on="1"/>
        <pt x="459" y="-5" on="0"/>
        <pt x="452" y="0" on="1"/>
        <pt x="441" y="8" on="0"/>
        <pt x="424" y="28" on="0"/>
        <pt x="419" y="58" on="1"/>
        <pt x="417" y="70" on="0"/>
        <pt x="417" y="104" on="0"/>
        <pt x="419" y="135" on="0"/>
        <pt x="424" y="157" on="0"/>
        <pt x="427" y="156" on="1"/>
        <pt x="429" y="156" on="0"/>
        <pt x="431" y="146" on="0"/>
        <pt x="433" y="134" on="0"/>
        <pt x="434" y="122" on="0"/>
        <pt x="434" y="119" on="1"/>
        <pt x="436" y="102" on="0"/>
        <pt x="439" y="72" on="0"/>
      </contour>
      <contour>
        <pt x="156" y="71" on="1"/>
        <pt x="162" y="35" on="0"/>
        <pt x="175" y="4" on="1"/>
        <pt x="177" y="-3" on="0"/>
        <pt x="176" y="-3" on="1"/>
        <pt x="171" y="-3" on="0"/>
        <pt x="165" y="3" on="1"/>
        <pt x="152" y="18" on="0"/>
        <pt x="139" y="42" on="0"/>
        <pt x="134" y="71" on="1"/>
        <pt x="132" y="82" on="0"/>
        <pt x="131" y="116" on="0"/>
        <pt x="133" y="148" on="0"/>
        <pt x="138" y="170" on="0"/>
        <pt x="141" y="170" on="1"/>
        <pt x="142" y="170" on="0"/>
        <pt x="145" y="160" on="0"/>
        <pt x="147" y="147" on="0"/>
        <pt x="149" y="134" on="0"/>
        <pt x="149" y="132" on="1"/>
        <pt x="151" y="115" on="0"/>
        <pt x="154" y="85" on="0"/>
      </contour>
      <contour>
        <pt x="34" y="232" on="1"/>
        <pt x="21" y="225" on="0"/>
        <pt x="11" y="215" on="0"/>
        <pt x="4" y="207" on="1"/>
        <pt x="0" y="202" on="0"/>
        <pt x="0" y="206" on="0"/>
        <pt x="0" y="209" on="1"/>
        <pt x="4" y="224" on="0"/>
        <pt x="16" y="242" on="0"/>
        <pt x="30" y="253" on="1"/>
        <pt x="37" y="259" on="0"/>
        <pt x="62" y="267" on="0"/>
        <pt x="86" y="270" on="0"/>
        <pt x="104" y="269" on="0"/>
        <pt x="104" y="266" on="1"/>
        <pt x="104" y="263" on="0"/>
        <pt x="81" y="253" on="0"/>
        <pt x="78" y="251" on="1"/>
        <pt x="66" y="246" on="0"/>
        <pt x="44" y="237" on="0"/>
      </contour>
    </TTGlyph>
    <TTGlyph name="I" xMin="39" yMin="-4" xMax="248" yMax="729">
      <contour>
        <pt x="204" y="508" on="1"/>
        <pt x="190" y="454" on="0"/>
        <pt x="149" y="338" on="0"/>
        <pt x="127" y="286" on="1"/>
        <pt x="126" y="284" on="0"/>
        <pt x="120" y="269" on="0"/>
        <pt x="116" y="270" on="1"/>
        <pt x="114" y="270" on="0"/>
        <pt x="115" y="287" on="0"/>
        <pt x="115" y="290" on="1"/>
        <pt x="116" y="302" on="0"/>
        <pt x="122" y="338" on="0"/>
        <pt x="130" y="376" on="0"/>
        <pt x="138" y="412" on="0"/>
        <pt x="142" y="425" on="1"/>
        <pt x="144" y="431" on="0"/>
        <pt x="153" y="468" on="0"/>
        <pt x="164" y="520" on="0"/>
        <pt x="175" y="580" on="0"/>
        <pt x="183" y="636" on="0"/>
        <pt x="185" y="682" on="0"/>
        <pt x="181" y="695" on="1"/>
        <pt x="179" y="699" on="0"/>
        <pt x="181" y="704" on="0"/>
        <pt x="182" y="704" on="1"/>
        <pt x="184" y="704" on="0"/>
        <pt x="186" y="699" on="0"/>
        <pt x="188" y="697" on="1"/>
        <pt x="199" y="680" on="0"/>
        <pt x="211" y="632" on="0"/>
        <pt x="214" y="579" on="0"/>
        <pt x="209" y="527" on="0"/>
      </contour>
      <contour>
        <pt x="195" y="286" on="1"/>
        <pt x="183" y="238" on="0"/>
        <pt x="149" y="138" on="0"/>
        <pt x="136" y="100" on="1"/>
        <pt x="134" y="95" on="0"/>
        <pt x="130" y="86" on="0"/>
        <pt x="129" y="88" on="1"/>
        <pt x="127" y="88" on="0"/>
        <pt x="126" y="98" on="0"/>
        <pt x="126" y="103" on="1"/>
        <pt x="129" y="178" on="0"/>
        <pt x="166" y="328" on="0"/>
        <pt x="189" y="404" on="1"/>
        <pt x="203" y="451" on="0"/>
        <pt x="226" y="550" on="0"/>
        <pt x="230" y="607" on="1"/>
        <pt x="230" y="612" on="0"/>
        <pt x="233" y="612" on="1"/>
        <pt x="234" y="612" on="0"/>
        <pt x="236" y="608" on="0"/>
        <pt x="237" y="606" on="1"/>
        <pt x="248" y="579" on="0"/>
        <pt x="243" y="492" on="0"/>
        <pt x="225" y="399" on="0"/>
        <pt x="201" y="312" on="0"/>
      </contour>
      <contour>
        <pt x="103" y="4" on="1"/>
        <pt x="106" y="-2" on="0"/>
        <pt x="105" y="-2" on="1"/>
        <pt x="103" y="-2" on="0"/>
        <pt x="99" y="0" on="0"/>
        <pt x="98" y="0" on="1"/>
        <pt x="70" y="33" on="0"/>
        <pt x="44" y="110" on="0"/>
        <pt x="39" y="192" on="0"/>
        <pt x="50" y="276" on="0"/>
        <pt x="59" y="316" on="1"/>
        <pt x="72" y="371" on="0"/>
        <pt x="106" y="480" on="0"/>
        <pt x="135" y="583" on="0"/>
        <pt x="154" y="679" on="0"/>
        <pt x="153" y="723" on="1"/>
        <pt x="153" y="728" on="0"/>
        <pt x="155" y="729" on="1"/>
        <pt x="156" y="729" on="0"/>
        <pt x="159" y="723" on="0"/>
        <pt x="159" y="722" on="1"/>
        <pt x="173" y="674" on="0"/>
        <pt x="163" y="571" on="0"/>
        <pt x="134" y="463" on="0"/>
        <pt x="98" y="351" on="0"/>
        <pt x="85" y="296" on="1"/>
        <pt x="77" y="261" on="0"/>
        <pt x="68" y="185" on="0"/>
        <pt x="71" y="108" on="0"/>
        <pt x="87" y="35" on="0"/>
      </contour>
      <contour>
        <pt x="114" y="71" on="1"/>
        <pt x="119" y="39" on="0"/>
        <pt x="134" y="4" on="1"/>
        <pt x="135" y="2" on="0"/>
        <pt x="136" y="-4" on="0"/>
        <pt x="134" y="-4" on="1"/>
        <pt x="132" y="-4" on="0"/>
        <pt x="128" y="-2" on="1"/>
        <pt x="126" y="-1" on="0"/>
        <pt x="125" y="1" on="1"/>
        <pt x="112" y="16" on="0"/>
        <pt x="97" y="42" on="0"/>
        <pt x="92" y="71" on="1"/>
        <pt x="90" y="82" on="0"/>
        <pt x="89" y="116" on="0"/>
        <pt x="91" y="148" on="0"/>
        <pt x="96" y="170" on="0"/>
        <pt x="100" y="170" on="1"/>
        <pt x="101" y="170" on="0"/>
        <pt x="104" y="160" on="0"/>
        <pt x="106" y="147" on="0"/>
        <pt x="107" y="134" on="0"/>
        <pt x="107" y="132" on="1"/>
        <pt x="109" y="115" on="0"/>
        <pt x="111" y="85" on="0"/>
      </contour>
    </TTGlyph>
    <TTGlyph name="Iacute" xMin="39" yMin="-4" xMax="328" yMax="956">
      <component glyphName="I" x="0" y="0" flags="0x204"/>
      <component glyphName="acute" x="91" y="229" flags="0x4"/>
    </TTGlyph>
    <TTGlyph name="Icircumflex" xMin="39" yMin="-4" xMax="370" yMax="943">
      <component glyphName="I" x="0" y="0" flags="0x204"/>
      <component glyphName="circumflex" x="25" y="199" flags="0x4"/>
    </TTGlyph>
    <TTGlyph name="Idieresis" xMin="14" yMin="-4" xMax="350" yMax="886">
      <component glyphName="I" x="0" y="0" flags="0x204"/>
      <component glyphName="dieresis" x="-2" y="185" flags="0x4"/>
    </TTGlyph>
    <TTGlyph name="Igrave" xMin="39" yMin="-4" xMax="288" yMax="955">
      <component glyphName="I" x="0" y="0" flags="0x204"/>
      <component glyphName="grave" x="-28" y="228" flags="0x4"/>
    </TTGlyph>
    <TTGlyph name="J" xMin="-20" yMin="-205" xMax="374" yMax="734">
      <contour>
        <pt x="364" y="693" on="1"/>
        <pt x="362" y="679" on="0"/>
        <pt x="341" y="657" on="0"/>
        <pt x="313" y="642" on="0"/>
        <pt x="282" y="633" on="0"/>
        <pt x="269" y="633" on="1"/>
        <pt x="253" y="633" on="0"/>
        <pt x="210" y="641" on="0"/>
        <pt x="171" y="653" on="0"/>
        <pt x="144" y="665" on="0"/>
        <pt x="144" y="670" on="1"/>
        <pt x="144" y="672" on="0"/>
        <pt x="152" y="674" on="0"/>
        <pt x="165" y="676" on="0"/>
        <pt x="179" y="676" on="0"/>
        <pt x="184" y="676" on="1"/>
        <pt x="204" y="676" on="0"/>
        <pt x="253" y="672" on="0"/>
        <pt x="273" y="673" on="1"/>
        <pt x="289" y="673" on="0"/>
        <pt x="311" y="675" on="0"/>
        <pt x="330" y="680" on="0"/>
        <pt x="348" y="687" on="0"/>
        <pt x="360" y="693" on="1"/>
        <pt x="362" y="695" on="0"/>
      </contour>
      <contour>
        <pt x="374" y="725" on="1"/>
        <pt x="374" y="715" on="0"/>
        <pt x="355" y="701" on="0"/>
        <pt x="330" y="692" on="0"/>
        <pt x="303" y="687" on="0"/>
        <pt x="296" y="687" on="1"/>
        <pt x="259" y="687" on="0"/>
        <pt x="183" y="703" on="0"/>
        <pt x="146" y="703" on="1"/>
        <pt x="102" y="703" on="0"/>
        <pt x="32" y="662" on="0"/>
        <pt x="12" y="625" on="1"/>
        <pt x="10" y="622" on="0"/>
        <pt x="4" y="622" on="0"/>
        <pt x="6" y="627" on="1"/>
        <pt x="22" y="676" on="0"/>
        <pt x="92" y="734" on="0"/>
        <pt x="148" y="734" on="1"/>
        <pt x="190" y="734" on="0"/>
        <pt x="273" y="715" on="0"/>
        <pt x="315" y="715" on="1"/>
        <pt x="330" y="715" on="0"/>
        <pt x="363" y="722" on="0"/>
        <pt x="367" y="724" on="1"/>
        <pt x="368" y="725" on="0"/>
        <pt x="374" y="726" on="0"/>
      </contour>
      <contour>
        <pt x="91" y="664" on="1"/>
        <pt x="91" y="662" on="0"/>
        <pt x="79" y="652" on="0"/>
        <pt x="63" y="641" on="0"/>
        <pt x="48" y="632" on="0"/>
        <pt x="45" y="630" on="1"/>
        <pt x="36" y="622" on="0"/>
        <pt x="22" y="605" on="0"/>
        <pt x="14" y="596" on="1"/>
        <pt x="13" y="596" on="0"/>
        <pt x="13" y="593" on="0"/>
        <pt x="11" y="593" on="1"/>
        <pt x="10" y="593" on="0"/>
        <pt x="10" y="596" on="1"/>
        <pt x="10" y="608" on="0"/>
        <pt x="24" y="634" on="0"/>
        <pt x="45" y="655" on="0"/>
        <pt x="72" y="668" on="0"/>
        <pt x="85" y="668" on="1"/>
        <pt x="91" y="668" on="0"/>
      </contour>
      <contour>
        <pt x="318" y="487" on="1"/>
        <pt x="319" y="438" on="0"/>
        <pt x="297" y="331" on="0"/>
        <pt x="257" y="222" on="0"/>
        <pt x="206" y="116" on="0"/>
        <pt x="150" y="22" on="0"/>
        <pt x="94" y="-58" on="0"/>
        <pt x="71" y="-86" on="1"/>
        <pt x="70" y="-87" on="0"/>
        <pt x="66" y="-92" on="0"/>
        <pt x="62" y="-97" on="0"/>
        <pt x="58" y="-98" on="0"/>
        <pt x="58" y="-94" on="1"/>
        <pt x="57" y="-91" on="0"/>
        <pt x="82" y="-42" on="0"/>
        <pt x="119" y="30" on="0"/>
        <pt x="164" y="114" on="0"/>
        <pt x="204" y="191" on="0"/>
        <pt x="234" y="250" on="0"/>
        <pt x="238" y="261" on="1"/>
        <pt x="249" y="291" on="0"/>
        <pt x="272" y="358" on="0"/>
        <pt x="291" y="430" on="0"/>
        <pt x="302" y="506" on="0"/>
        <pt x="301" y="545" on="1"/>
        <pt x="301" y="553" on="0"/>
        <pt x="302" y="553" on="1"/>
        <pt x="304" y="553" on="0"/>
        <pt x="306" y="550" on="0"/>
        <pt x="308" y="543" on="1"/>
        <pt x="311" y="533" on="0"/>
        <pt x="318" y="496" on="0"/>
      </contour>
      <contour>
        <pt x="237" y="589" on="1"/>
        <pt x="229" y="507" on="0"/>
        <pt x="195" y="376" on="0"/>
        <pt x="154" y="270" on="0"/>
        <pt x="109" y="184" on="0"/>
        <pt x="91" y="148" on="1"/>
        <pt x="72" y="110" on="0"/>
        <pt x="39" y="34" on="0"/>
        <pt x="14" y="-45" on="0"/>
        <pt x="-1" y="-129" on="0"/>
        <pt x="-1" y="-176" on="1"/>
        <pt x="-1" y="-187" on="0"/>
        <pt x="-3" y="-185" on="1"/>
        <pt x="-5" y="-185" on="0"/>
        <pt x="-8" y="-174" on="0"/>
        <pt x="-12" y="-159" on="0"/>
        <pt x="-15" y="-145" on="0"/>
        <pt x="-15" y="-140" on="1"/>
        <pt x="-20" y="-94" on="0"/>
        <pt x="-9" y="-13" on="0"/>
        <pt x="14" y="62" on="0"/>
        <pt x="46" y="132" on="0"/>
        <pt x="61" y="168" on="1"/>
        <pt x="77" y="206" on="0"/>
        <pt x="124" y="306" on="0"/>
        <pt x="170" y="417" on="0"/>
        <pt x="208" y="534" on="0"/>
        <pt x="215" y="589" on="1"/>
        <pt x="177" y="591" on="0"/>
        <pt x="96" y="604" on="0"/>
        <pt x="61" y="614" on="1"/>
        <pt x="59" y="615" on="0"/>
        <pt x="55" y="617" on="0"/>
        <pt x="55" y="619" on="1"/>
        <pt x="54" y="622" on="0"/>
        <pt x="65" y="626" on="0"/>
        <pt x="66" y="626" on="1"/>
        <pt x="98" y="634" on="0"/>
        <pt x="126" y="634" on="1"/>
        <pt x="164" y="634" on="0"/>
        <pt x="238" y="619" on="0"/>
        <pt x="276" y="619" on="1"/>
        <pt x="288" y="619" on="0"/>
        <pt x="315" y="624" on="0"/>
        <pt x="320" y="626" on="1"/>
        <pt x="324" y="628" on="0"/>
        <pt x="324" y="623" on="0"/>
        <pt x="323" y="621" on="1"/>
        <pt x="314" y="610" on="0"/>
        <pt x="289" y="597" on="0"/>
        <pt x="275" y="593" on="1"/>
        <pt x="278" y="580" on="0"/>
        <pt x="280" y="559" on="0"/>
        <pt x="281" y="551" on="1"/>
        <pt x="287" y="500" on="0"/>
        <pt x="264" y="387" on="0"/>
        <pt x="220" y="274" on="0"/>
        <pt x="160" y="165" on="0"/>
        <pt x="129" y="119" on="1"/>
        <pt x="121" y="108" on="0"/>
        <pt x="114" y="116" on="0"/>
        <pt x="119" y="129" on="1"/>
        <pt x="125" y="145" on="0"/>
        <pt x="151" y="202" on="0"/>
        <pt x="179" y="263" on="0"/>
        <pt x="203" y="317" on="0"/>
        <pt x="207" y="329" on="1"/>
        <pt x="233" y="410" on="0"/>
        <pt x="256" y="541" on="0"/>
        <pt x="254" y="590" on="1"/>
        <pt x="249" y="589" on="0"/>
        <pt x="241" y="589" on="0"/>
      </contour>
      <contour>
        <pt x="62" y="5" on="1"/>
        <pt x="62" y="-1" on="0"/>
        <pt x="56" y="-32" on="0"/>
        <pt x="48" y="-68" on="0"/>
        <pt x="40" y="-101" on="0"/>
        <pt x="39" y="-109" on="1"/>
        <pt x="34" y="-130" on="0"/>
        <pt x="29" y="-172" on="0"/>
        <pt x="27" y="-195" on="1"/>
        <pt x="27" y="-197" on="0"/>
        <pt x="26" y="-205" on="0"/>
        <pt x="23" y="-205" on="1"/>
        <pt x="21" y="-204" on="0"/>
        <pt x="19" y="-194" on="0"/>
        <pt x="18" y="-192" on="1"/>
        <pt x="16" y="-183" on="0"/>
        <pt x="11" y="-154" on="0"/>
        <pt x="11" y="-146" on="1"/>
        <pt x="11" y="-121" on="0"/>
        <pt x="21" y="-66" on="0"/>
        <pt x="35" y="-20" on="0"/>
        <pt x="51" y="10" on="0"/>
        <pt x="58" y="9" on="1"/>
        <pt x="60" y="8" on="0"/>
        <pt x="61" y="6" on="0"/>
      </contour>
    </TTGlyph>
    <TTGlyph name="K" xMin="17" yMin="-39" xMax="610" yMax="730">
      <contour>
        <pt x="552" y="648" on="1"/>
        <pt x="552" y="630" on="0"/>
        <pt x="535" y="590" on="0"/>
        <pt x="511" y="552" on="0"/>
        <pt x="481" y="521" on="0"/>
        <pt x="467" y="511" on="1"/>
        <pt x="429" y="483" on="0"/>
        <pt x="338" y="432" on="0"/>
        <pt x="295" y="415" on="1"/>
        <pt x="293" y="414" on="0"/>
        <pt x="279" y="409" on="0"/>
        <pt x="277" y="411" on="1"/>
        <pt x="275" y="413" on="0"/>
        <pt x="285" y="424" on="0"/>
        <pt x="288" y="426" on="1"/>
        <pt x="295" y="433" on="0"/>
        <pt x="318" y="453" on="0"/>
        <pt x="343" y="472" on="0"/>
        <pt x="368" y="490" on="0"/>
        <pt x="378" y="495" on="1"/>
        <pt x="385" y="499" on="0"/>
        <pt x="434" y="536" on="0"/>
        <pt x="490" y="585" on="0"/>
        <pt x="539" y="635" on="0"/>
        <pt x="545" y="651" on="1"/>
        <pt x="549" y="658" on="0"/>
        <pt x="551" y="656" on="1"/>
        <pt x="552" y="655" on="0"/>
        <pt x="552" y="649" on="0"/>
      </contour>
      <contour>
        <pt x="116" y="277" on="1"/>
        <pt x="153" y="272" on="0"/>
        <pt x="223" y="253" on="0"/>
        <pt x="253" y="227" on="1"/>
        <pt x="288" y="197" on="0"/>
        <pt x="362" y="124" on="0"/>
        <pt x="393" y="89" on="1"/>
        <pt x="395" y="87" on="0"/>
        <pt x="403" y="76" on="0"/>
        <pt x="401" y="73" on="1"/>
        <pt x="400" y="71" on="0"/>
        <pt x="387" y="76" on="0"/>
        <pt x="385" y="78" on="1"/>
        <pt x="376" y="83" on="0"/>
        <pt x="351" y="100" on="0"/>
        <pt x="325" y="120" on="0"/>
        <pt x="301" y="139" on="0"/>
        <pt x="293" y="147" on="1"/>
        <pt x="288" y="152" on="0"/>
        <pt x="245" y="187" on="0"/>
        <pt x="187" y="226" on="0"/>
        <pt x="124" y="260" on="0"/>
        <pt x="99" y="266" on="1"/>
        <pt x="91" y="268" on="0"/>
        <pt x="92" y="284" on="0"/>
        <pt x="93" y="290" on="1"/>
        <pt x="95" y="302" on="0"/>
        <pt x="102" y="338" on="0"/>
        <pt x="109" y="376" on="0"/>
        <pt x="117" y="412" on="0"/>
        <pt x="121" y="425" on="1"/>
        <pt x="124" y="434" on="0"/>
        <pt x="140" y="506" on="0"/>
        <pt x="156" y="594" on="0"/>
        <pt x="164" y="676" on="0"/>
        <pt x="159" y="695" on="1"/>
        <pt x="157" y="704" on="0"/>
        <pt x="160" y="704" on="1"/>
        <pt x="162" y="704" on="0"/>
        <pt x="164" y="699" on="0"/>
        <pt x="166" y="697" on="1"/>
        <pt x="177" y="680" on="0"/>
        <pt x="189" y="632" on="0"/>
        <pt x="192" y="579" on="0"/>
        <pt x="187" y="527" on="0"/>
        <pt x="182" y="508" on="1"/>
        <pt x="171" y="466" on="0"/>
        <pt x="143" y="383" on="0"/>
        <pt x="127" y="341" on="1"/>
        <pt x="138" y="357" on="0"/>
        <pt x="158" y="386" on="0"/>
        <pt x="166" y="399" on="1"/>
        <pt x="167" y="404" on="1"/>
        <pt x="177" y="452" on="0"/>
        <pt x="206" y="550" on="0"/>
        <pt x="208" y="607" on="1"/>
        <pt x="210" y="612" on="0"/>
        <pt x="211" y="612" on="1"/>
        <pt x="212" y="612" on="0"/>
        <pt x="214" y="608" on="0"/>
        <pt x="215" y="606" on="1"/>
        <pt x="226" y="579" on="0"/>
        <pt x="220" y="492" on="0"/>
        <pt x="211" y="445" on="1"/>
        <pt x="223" y="455" on="0"/>
        <pt x="246" y="473" on="0"/>
        <pt x="260" y="482" on="1"/>
        <pt x="298" y="508" on="0"/>
        <pt x="378" y="556" on="0"/>
        <pt x="453" y="606" on="0"/>
        <pt x="517" y="658" on="0"/>
        <pt x="540" y="689" on="1"/>
        <pt x="543" y="692" on="0"/>
        <pt x="544" y="690" on="1"/>
        <pt x="545" y="690" on="0"/>
        <pt x="544" y="685" on="0"/>
        <pt x="544" y="684" on="1"/>
        <pt x="529" y="643" on="0"/>
        <pt x="468" y="580" on="0"/>
        <pt x="391" y="526" on="0"/>
        <pt x="307" y="478" on="0"/>
        <pt x="269" y="451" on="1"/>
        <pt x="222" y="419" on="0"/>
        <pt x="140" y="331" on="0"/>
      </contour>
      <contour>
        <pt x="164" y="283" on="1"/>
        <pt x="159" y="283" on="0"/>
        <pt x="142" y="284" on="0"/>
        <pt x="135" y="283" on="1"/>
        <pt x="139" y="291" on="0"/>
        <pt x="150" y="307" on="0"/>
        <pt x="155" y="315" on="1"/>
        <pt x="161" y="323" on="0"/>
        <pt x="178" y="342" on="0"/>
        <pt x="195" y="357" on="0"/>
        <pt x="208" y="364" on="0"/>
        <pt x="210" y="360" on="1"/>
        <pt x="211" y="359" on="0"/>
        <pt x="206" y="351" on="0"/>
        <pt x="198" y="340" on="0"/>
        <pt x="191" y="331" on="0"/>
        <pt x="190" y="329" on="1"/>
        <pt x="179" y="315" on="0"/>
        <pt x="169" y="294" on="0"/>
      </contour>
      <contour>
        <pt x="547" y="12" on="1"/>
        <pt x="545" y="10" on="0"/>
        <pt x="538" y="13" on="0"/>
        <pt x="534" y="15" on="1"/>
        <pt x="505" y="28" on="0"/>
        <pt x="454" y="66" on="0"/>
        <pt x="406" y="110" on="0"/>
        <pt x="359" y="157" on="0"/>
        <pt x="335" y="180" on="1"/>
        <pt x="318" y="196" on="0"/>
        <pt x="280" y="230" on="0"/>
        <pt x="240" y="259" on="0"/>
        <pt x="197" y="280" on="0"/>
        <pt x="175" y="283" on="1"/>
        <pt x="188" y="302" on="0"/>
        <pt x="246" y="350" on="0"/>
        <pt x="314" y="396" on="0"/>
        <pt x="380" y="438" on="0"/>
        <pt x="401" y="451" on="1"/>
        <pt x="436" y="473" on="0"/>
        <pt x="507" y="523" on="0"/>
        <pt x="537" y="559" on="1"/>
        <pt x="540" y="563" on="0"/>
        <pt x="543" y="562" on="1"/>
        <pt x="543" y="560" on="0"/>
        <pt x="541" y="557" on="0"/>
        <pt x="541" y="555" on="1"/>
        <pt x="536" y="530" on="0"/>
        <pt x="487" y="475" on="0"/>
        <pt x="425" y="425" on="0"/>
        <pt x="361" y="382" on="0"/>
        <pt x="342" y="369" on="1"/>
        <pt x="324" y="357" on="0"/>
        <pt x="285" y="335" on="0"/>
        <pt x="245" y="314" on="0"/>
        <pt x="208" y="297" on="0"/>
        <pt x="192" y="290" on="1"/>
        <pt x="218" y="290" on="0"/>
        <pt x="285" y="258" on="0"/>
        <pt x="351" y="213" on="0"/>
        <pt x="407" y="164" on="0"/>
        <pt x="422" y="148" on="1"/>
        <pt x="454" y="113" on="0"/>
        <pt x="517" y="47" on="0"/>
        <pt x="541" y="23" on="1"/>
        <pt x="549" y="15" on="0"/>
      </contour>
      <contour>
        <pt x="137" y="722" on="1"/>
        <pt x="151" y="674" on="0"/>
        <pt x="141" y="571" on="0"/>
        <pt x="112" y="463" on="0"/>
        <pt x="76" y="351" on="0"/>
        <pt x="63" y="296" on="1"/>
        <pt x="55" y="261" on="0"/>
        <pt x="46" y="185" on="0"/>
        <pt x="49" y="108" on="0"/>
        <pt x="64" y="35" on="0"/>
        <pt x="81" y="4" on="1"/>
        <pt x="85" y="-4" on="0"/>
        <pt x="84" y="-4" on="1"/>
        <pt x="82" y="-4" on="0"/>
        <pt x="78" y="0" on="0"/>
        <pt x="77" y="0" on="1"/>
        <pt x="49" y="33" on="0"/>
        <pt x="23" y="110" on="0"/>
        <pt x="17" y="192" on="0"/>
        <pt x="28" y="276" on="0"/>
        <pt x="37" y="316" on="1"/>
        <pt x="50" y="371" on="0"/>
        <pt x="84" y="480" on="0"/>
        <pt x="113" y="583" on="0"/>
        <pt x="133" y="679" on="0"/>
        <pt x="132" y="723" on="1"/>
        <pt x="132" y="729" on="0"/>
        <pt x="133" y="729" on="1"/>
        <pt x="134" y="730" on="0"/>
        <pt x="137" y="723" on="0"/>
      </contour>
      <contour>
        <pt x="610" y="-20" on="1"/>
        <pt x="610" y="-22" on="0"/>
        <pt x="606" y="-24" on="0"/>
        <pt x="604" y="-25" on="1"/>
        <pt x="566" y="-39" on="0"/>
        <pt x="495" y="-36" on="0"/>
        <pt x="428" y="-15" on="0"/>
        <pt x="367" y="19" on="0"/>
        <pt x="340" y="36" on="1"/>
        <pt x="313" y="53" on="0"/>
        <pt x="263" y="97" on="0"/>
        <pt x="215" y="143" on="0"/>
        <pt x="168" y="187" on="0"/>
        <pt x="145" y="204" on="1"/>
        <pt x="114" y="100" on="1"/>
        <pt x="112" y="95" on="0"/>
        <pt x="109" y="87" on="0"/>
        <pt x="107" y="88" on="1"/>
        <pt x="105" y="89" on="0"/>
        <pt x="104" y="98" on="0"/>
        <pt x="104" y="103" on="1"/>
        <pt x="105" y="132" on="0"/>
        <pt x="113" y="192" on="0"/>
        <pt x="119" y="222" on="1"/>
        <pt x="113" y="226" on="0"/>
        <pt x="95" y="236" on="0"/>
        <pt x="87" y="241" on="1"/>
        <pt x="85" y="242" on="0"/>
        <pt x="79" y="247" on="0"/>
        <pt x="80" y="249" on="1"/>
        <pt x="80" y="250" on="0"/>
        <pt x="85" y="250" on="1"/>
        <pt x="121" y="247" on="0"/>
        <pt x="190" y="206" on="0"/>
        <pt x="259" y="149" on="0"/>
        <pt x="329" y="83" on="0"/>
        <pt x="367" y="53" on="1"/>
        <pt x="415" y="16" on="0"/>
        <pt x="539" y="-27" on="0"/>
        <pt x="603" y="-19" on="1"/>
        <pt x="610" y="-17" on="0"/>
      </contour>
      <contour>
        <pt x="112" y="-4" on="1"/>
        <pt x="110" y="-4" on="0"/>
        <pt x="106" y="-2" on="1"/>
        <pt x="104" y="-1" on="0"/>
        <pt x="103" y="1" on="1"/>
        <pt x="90" y="16" on="0"/>
        <pt x="75" y="42" on="0"/>
        <pt x="70" y="71" on="1"/>
        <pt x="68" y="82" on="0"/>
        <pt x="67" y="116" on="0"/>
        <pt x="69" y="148" on="0"/>
        <pt x="74" y="170" on="0"/>
        <pt x="78" y="170" on="1"/>
        <pt x="79" y="170" on="0"/>
        <pt x="82" y="160" on="0"/>
        <pt x="84" y="147" on="0"/>
        <pt x="85" y="134" on="0"/>
        <pt x="85" y="132" on="1"/>
        <pt x="87" y="110" on="0"/>
        <pt x="90" y="82" on="0"/>
        <pt x="92" y="71" on="1"/>
        <pt x="97" y="39" on="0"/>
        <pt x="112" y="4" on="1"/>
        <pt x="113" y="2" on="0"/>
        <pt x="114" y="-4" on="0"/>
      </contour>
      <contour>
        <pt x="474" y="16" on="1"/>
        <pt x="481" y="15" on="0"/>
        <pt x="502" y="10" on="0"/>
        <pt x="508" y="8" on="1"/>
        <pt x="534" y="1" on="0"/>
        <pt x="569" y="-6" on="0"/>
        <pt x="593" y="-7" on="1"/>
        <pt x="595" y="-7" on="0"/>
        <pt x="602" y="-7" on="0"/>
        <pt x="602" y="-9" on="1"/>
        <pt x="602" y="-13" on="0"/>
        <pt x="592" y="-14" on="1"/>
        <pt x="580" y="-16" on="0"/>
        <pt x="562" y="-16" on="0"/>
        <pt x="548" y="-15" on="1"/>
        <pt x="540" y="-14" on="0"/>
        <pt x="518" y="-10" on="0"/>
        <pt x="496" y="-3" on="0"/>
        <pt x="477" y="4" on="0"/>
        <pt x="473" y="8" on="1"/>
        <pt x="469" y="12" on="0"/>
        <pt x="470" y="15" on="1"/>
        <pt x="470" y="16" on="0"/>
      </contour>
    </TTGlyph>
</ttFont>
